<svg width="1653" height="1015" viewBox="0 0 1653 1015" fill="none" xmlns="http://www.w3.org/2000/svg">
<rect width="1653" height="1015" fill="#F7F6F0" fill-opacity="0.9"/>
<path d="M703 883L653 717H420L370 883H216L446 185H634L861 883H703ZM538 323H533L456 588H616L538 323ZM1340.5 883C1313.83 883 1291.5 874.667 1273.5 858C1256.17 841.333 1245.17 819 1240.5 791H1234.5C1226.5 825 1208.83 851 1181.5 869C1154.17 886.333 1120.5 895 1080.5 895C1027.83 895 987.5 881 959.5 853C931.5 825 917.5 788 917.5 742C917.5 686.667 937.5 645.667 977.5 619C1018.17 591.667 1073.17 578 1142.5 578H1225.5V545C1225.5 519.667 1218.83 499.667 1205.5 485C1192.17 469.667 1169.83 462 1138.5 462C1109.17 462 1085.83 468.333 1068.5 481C1051.17 493.667 1036.83 508 1025.5 524L937.5 446C958.833 414.667 985.5 390.333 1017.5 373C1050.17 355 1094.17 346 1149.5 346C1224.17 346 1280.17 362.333 1317.5 395C1354.83 427.667 1373.5 475.333 1373.5 538V768H1422.5V883H1340.5ZM1135.5 792C1160.17 792 1181.17 786.667 1198.5 776C1216.5 765.333 1225.5 748 1225.5 724V662H1153.5C1095.5 662 1066.5 681.667 1066.5 721V736C1066.5 755.333 1072.5 769.667 1084.5 779C1096.5 787.667 1113.5 792 1135.5 792Z" fill="#262526"/>
</svg>
