<svg width="1653" height="1015" viewBox="0 0 1653 1015" fill="none" xmlns="http://www.w3.org/2000/svg">
<rect width="1653" height="1015" fill="#F7F6F0" fill-opacity="0.9"/>
<path d="M147.116 552.416V551.416H146.116V552.416H147.116ZM387.908 577.308L387.194 578.008L387.201 578.015L387.908 577.308ZM407.212 677.892L406.281 677.526L406.276 677.541L406.27 677.556L407.212 677.892ZM392.988 701.26L392.281 700.553L392.271 700.563L392.261 700.573L392.988 701.26ZM372.16 714.976L372.489 715.92L372.5 715.917L372.511 715.912L372.16 714.976ZM346.76 719.548L346.723 718.549L345.76 718.584V719.548H346.76ZM346.76 722.596H345.76V723.596H346.76V722.596ZM373.176 727.168L372.86 728.117L372.87 728.12L373.176 727.168ZM399.084 741.9L398.428 742.655L398.437 742.663L398.447 742.671L399.084 741.9ZM418.388 767.3L417.488 767.736L417.493 767.747L417.499 767.759L418.388 767.3ZM419.404 845.532L418.469 845.178L418.466 845.185L418.463 845.192L419.404 845.532ZM400.608 877.536L399.861 876.872L399.861 876.872L400.608 877.536ZM371.652 899.38L372.066 900.29L372.077 900.285L372.088 900.28L371.652 899.38ZM147.116 907H146.116V908H147.116V907ZM224.332 841.976H223.332V842.976H224.332V841.976ZM337.108 833.848L337.793 834.576L337.795 834.575L337.108 833.848ZM337.108 769.332L336.401 770.039L336.422 770.06L336.444 770.079L337.108 769.332ZM224.332 760.696V759.696H223.332V760.696H224.332ZM224.332 697.704H223.332V698.704H224.332V697.704ZM324.916 689.068L324.209 688.361L324.209 688.361L324.916 689.068ZM324.916 626.076L324.209 626.783L324.209 626.783L324.916 626.076ZM224.332 617.44V616.44H223.332V617.44H224.332ZM147.116 553.416H319.328V551.416H147.116V553.416ZM319.328 553.416C348.599 553.416 371.173 561.653 387.194 578.008L388.622 576.608C372.131 559.773 348.985 551.416 319.328 551.416V553.416ZM387.201 578.015C403.576 594.391 411.8 616.133 411.8 643.348H413.8C413.8 615.699 405.429 593.415 388.615 576.601L387.201 578.015ZM411.8 643.348C411.8 656.808 409.948 668.192 406.281 677.526L408.143 678.258C411.926 668.627 413.8 656.981 413.8 643.348H411.8ZM406.27 677.556C402.925 686.922 398.256 694.578 392.281 700.553L393.695 701.967C399.912 695.75 404.726 687.827 408.154 678.228L406.27 677.556ZM392.261 700.573C386.612 706.555 379.799 711.043 371.809 714.04L372.511 715.912C380.777 712.813 387.849 708.157 393.715 701.947L392.261 700.573ZM371.831 714.031C364.146 716.705 355.778 718.213 346.723 718.549L346.797 720.547C356.03 720.205 364.596 718.666 372.489 715.92L371.831 714.031ZM345.76 719.548V722.596H347.76V719.548H345.76ZM346.76 723.596C355.105 723.596 363.804 725.098 372.86 728.117L373.492 726.219C364.26 723.142 355.348 721.596 346.76 721.596V723.596ZM372.87 728.12C382.219 731.125 390.737 735.967 398.428 742.655L399.74 741.145C391.852 734.287 383.098 729.307 373.482 726.216L372.87 728.12ZM398.447 742.671C406.11 749.001 412.461 757.346 417.488 767.736L419.288 766.864C414.155 756.256 407.637 747.668 399.721 741.129L398.447 742.671ZM417.499 767.759C422.827 778.08 425.516 790.783 425.516 805.908H427.516C427.516 790.553 424.787 777.517 419.277 766.841L417.499 767.759ZM425.516 805.908C425.516 819.677 423.166 832.765 418.469 845.178L420.339 845.886C425.125 833.238 427.516 819.91 427.516 805.908H425.516ZM418.463 845.192C414.101 857.272 407.899 867.828 399.861 876.872L401.355 878.2C409.573 868.956 415.901 858.176 420.345 845.872L418.463 845.192ZM399.861 876.872C391.821 885.916 382.275 893.118 371.216 898.48L372.088 900.28C383.381 894.805 393.139 887.444 401.355 878.2L399.861 876.872ZM371.238 898.47C360.202 903.486 348.152 906 335.076 906V908C348.416 908 360.75 905.434 372.066 900.29L371.238 898.47ZM335.076 906H147.116V908H335.076V906ZM148.116 907V552.416H146.116V907H148.116ZM224.332 842.976H313.232V840.976H224.332V842.976ZM313.232 842.976C323.571 842.976 331.802 840.215 337.793 834.576L336.423 833.12C330.899 838.318 323.213 840.976 313.232 840.976V842.976ZM337.795 834.575C344.132 828.59 347.252 820.344 347.252 809.972H345.252C345.252 819.92 342.276 827.592 336.421 833.121L337.795 834.575ZM347.252 809.972V792.7H345.252V809.972H347.252ZM347.252 792.7C347.252 782.33 344.133 774.238 337.772 768.585L336.444 770.079C342.275 775.263 345.252 782.75 345.252 792.7H347.252ZM337.815 768.625C331.826 762.636 323.588 759.696 313.232 759.696V761.696C323.196 761.696 330.875 764.513 336.401 770.039L337.815 768.625ZM313.232 759.696H224.332V761.696H313.232V759.696ZM223.332 760.696V841.976H225.332V760.696H223.332ZM224.332 698.704H301.04V696.704H224.332V698.704ZM301.04 698.704C311.396 698.704 319.634 695.764 325.623 689.775L324.209 688.361C318.683 693.887 311.004 696.704 301.04 696.704V698.704ZM325.623 689.775C331.612 683.786 334.552 675.548 334.552 665.192H332.552C332.552 675.156 329.735 682.835 324.209 688.361L325.623 689.775ZM334.552 665.192V649.952H332.552V665.192H334.552ZM334.552 649.952C334.552 639.596 331.612 631.358 325.623 625.369L324.209 626.783C329.735 632.309 332.552 639.988 332.552 649.952H334.552ZM325.623 625.369C319.634 619.38 311.396 616.44 301.04 616.44V618.44C311.004 618.44 318.683 621.257 324.209 626.783L325.623 625.369ZM301.04 616.44H224.332V618.44H301.04V616.44ZM223.332 617.44V697.704H225.332V617.44H223.332ZM481.884 531.08V530.08H480.884V531.08H481.884ZM557.068 531.08H558.068V530.08H557.068V531.08ZM557.068 685.004H556.068V686.004H557.068V685.004ZM559.608 685.004V686.004H560.389L560.578 685.247L559.608 685.004ZM585.008 648.428L584.435 647.609L584.425 647.616L585.008 648.428ZM707.944 669.764L707.136 670.353L707.136 670.353L707.944 669.764ZM707.944 877.536L708.752 878.125L708.756 878.119L707.944 877.536ZM606.344 909.032L606.673 908.088L606.654 908.081L606.635 908.075L606.344 909.032ZM585.008 898.872L584.394 899.661L584.418 899.68L584.443 899.697L585.008 898.872ZM569.26 882.616L568.435 883.181L568.442 883.191L568.449 883.201L569.26 882.616ZM559.608 862.296L560.57 862.021L560.362 861.296H559.608V862.296ZM557.068 862.296V861.296H556.068V862.296H557.068ZM557.068 907V908H558.068V907H557.068ZM481.884 907H480.884V908H481.884V907ZM641.396 837.404L640.665 836.722L640.664 836.723L641.396 837.404ZM641.396 710.404L640.653 711.073L640.664 711.086L640.677 711.099L641.396 710.404ZM570.784 705.832L571.379 706.636L571.384 706.632L570.784 705.832ZM570.784 841.976L570.17 842.765L570.186 842.778L570.203 842.79L570.784 841.976ZM481.884 532.08H557.068V530.08H481.884V532.08ZM556.068 531.08V685.004H558.068V531.08H556.068ZM557.068 686.004H559.608V684.004H557.068V686.004ZM560.578 685.247C564.243 670.589 572.563 658.594 585.591 649.24L584.425 647.616C571.037 657.228 562.424 669.616 558.638 684.761L560.578 685.247ZM585.582 649.247C598.952 639.888 614.16 635.204 631.236 635.204V633.204C613.769 633.204 598.157 638.003 584.435 647.609L585.582 649.247ZM631.236 635.204C664.84 635.204 690.083 646.947 707.136 670.353L708.752 669.175C691.261 645.168 665.366 633.204 631.236 633.204V635.204ZM707.136 670.353C724.232 693.818 732.852 728.118 732.852 773.396H734.852C734.852 727.911 726.2 693.123 708.752 669.175L707.136 670.353ZM732.852 773.396C732.852 818.673 724.232 853.146 707.132 876.953L708.756 878.119C726.2 853.835 734.852 818.882 734.852 773.396H732.852ZM707.136 876.947C690.083 900.353 664.84 912.096 631.236 912.096V914.096C665.366 914.096 691.261 902.132 708.752 878.125L707.136 876.947ZM631.236 912.096C622.535 912.096 614.349 910.758 606.673 908.088L606.016 909.976C613.917 912.725 622.326 914.096 631.236 914.096V912.096ZM606.635 908.075C598.939 905.733 591.92 902.389 585.573 898.047L584.443 899.697C590.966 904.16 598.171 907.59 606.053 909.989L606.635 908.075ZM585.622 898.083C579.599 893.398 574.416 888.047 570.071 882.031L568.449 883.201C572.909 889.377 578.225 894.863 584.394 899.661L585.622 898.083ZM570.085 882.051C565.74 875.701 562.57 869.024 560.57 862.021L558.647 862.571C560.71 869.792 563.975 876.662 568.435 883.181L570.085 882.051ZM559.608 861.296H557.068V863.296H559.608V861.296ZM556.068 862.296V907H558.068V862.296H556.068ZM557.068 906H481.884V908H557.068V906ZM482.884 907V531.08H480.884V907H482.884ZM606.344 853.136C620.827 853.136 632.782 848.123 642.128 838.085L640.664 836.723C631.722 846.327 620.309 851.136 606.344 851.136V853.136ZM642.127 838.086C651.819 827.703 656.62 813.892 656.62 796.764H654.62C654.62 813.502 649.939 826.785 640.665 836.722L642.127 838.086ZM656.62 796.764V750.536H654.62V796.764H656.62ZM656.62 750.536C656.62 733.409 651.819 719.76 642.115 709.709L640.677 711.099C649.938 720.691 654.62 733.796 654.62 750.536H656.62ZM642.139 709.735C632.797 699.355 620.838 694.164 606.344 694.164V696.164C620.298 696.164 631.707 701.133 640.653 711.073L642.139 709.735ZM606.344 694.164C591.948 694.164 579.872 697.766 570.184 705.032L571.384 706.632C580.661 699.674 592.292 696.164 606.344 696.164V694.164ZM570.189 705.028C560.77 712.006 556.068 721.798 556.068 734.28H558.068C558.068 722.378 562.51 713.205 571.379 706.636L570.189 705.028ZM556.068 734.28V813.02H558.068V734.28H556.068ZM556.068 813.02C556.068 825.502 560.768 835.453 570.17 842.765L571.398 841.187C562.512 834.275 558.068 824.922 558.068 813.02H556.068ZM570.203 842.79C579.89 849.709 591.958 853.136 606.344 853.136V851.136C592.282 851.136 580.644 847.79 571.365 841.162L570.203 842.79Z" fill="black"/>
<path d="M1036.5 897.02C1032.99 897.02 1029.84 896.595 1027.07 895.745C1024.35 894.838 1022.05 893.62 1020.18 892.09C1018.31 890.56 1016.87 888.747 1015.85 886.65C1014.88 884.553 1014.4 882.258 1014.4 879.765C1014.4 875.968 1015.45 872.88 1017.55 870.5C1019.64 868.063 1022.48 866.363 1026.05 865.4V864.72C1023.16 863.643 1020.78 862 1018.91 859.79C1017.09 857.58 1016.19 854.747 1016.19 851.29C1016.19 849.023 1016.61 846.927 1017.46 845C1018.37 843.073 1019.67 841.43 1021.37 840.07C1023.13 838.653 1025.25 837.577 1027.75 836.84C1030.3 836.047 1033.21 835.65 1036.5 835.65C1039.79 835.65 1042.68 836.047 1045.17 836.84C1047.72 837.577 1049.85 838.653 1051.55 840.07C1053.3 841.43 1054.61 843.073 1055.46 845C1056.36 846.927 1056.82 849.023 1056.82 851.29C1056.82 854.747 1055.88 857.58 1054.01 859.79C1052.2 862 1049.85 863.643 1046.96 864.72V865.4C1050.53 866.363 1053.36 868.063 1055.46 870.5C1057.55 872.88 1058.6 875.968 1058.6 879.765C1058.6 882.258 1058.09 884.553 1057.07 886.65C1056.11 888.747 1054.69 890.56 1052.82 892.09C1050.95 893.62 1048.63 894.838 1045.85 895.745C1043.13 896.595 1040.01 897.02 1036.5 897.02ZM1036.5 887.245C1039.33 887.245 1041.49 886.593 1042.96 885.29C1044.49 883.93 1045.26 882.06 1045.26 879.68V877.98C1045.26 875.6 1044.49 873.758 1042.96 872.455C1041.49 871.095 1039.33 870.415 1036.5 870.415C1033.67 870.415 1031.49 871.095 1029.96 872.455C1028.48 873.758 1027.75 875.6 1027.75 877.98V879.68C1027.75 882.06 1028.48 883.93 1029.96 885.29C1031.49 886.593 1033.67 887.245 1036.5 887.245ZM1036.5 861.065C1039.22 861.065 1041.29 860.442 1042.71 859.195C1044.12 857.892 1044.83 856.135 1044.83 853.925V852.565C1044.83 850.355 1044.12 848.627 1042.71 847.38C1041.29 846.077 1039.22 845.425 1036.5 845.425C1033.78 845.425 1031.71 846.077 1030.3 847.38C1028.88 848.627 1028.17 850.355 1028.17 852.565V853.925C1028.17 856.135 1028.88 857.892 1030.3 859.195C1031.71 860.442 1033.78 861.065 1036.5 861.065ZM1106.34 847.805H1079.39L1078.12 866.59H1078.8C1079.36 865.173 1079.99 863.898 1080.67 862.765C1081.4 861.575 1082.25 860.583 1083.22 859.79C1084.18 858.94 1085.34 858.288 1086.7 857.835C1088.06 857.382 1089.68 857.155 1091.55 857.155C1094.1 857.155 1096.48 857.58 1098.69 858.43C1100.9 859.28 1102.82 860.527 1104.47 862.17C1106.11 863.757 1107.41 865.74 1108.38 868.12C1109.34 870.443 1109.82 873.078 1109.82 876.025C1109.82 879.028 1109.31 881.833 1108.29 884.44C1107.33 886.99 1105.86 889.2 1103.87 891.07C1101.95 892.94 1099.57 894.413 1096.73 895.49C1093.9 896.51 1090.67 897.02 1087.04 897.02C1084.15 897.02 1081.6 896.708 1079.39 896.085C1077.18 895.462 1075.23 894.64 1073.53 893.62C1071.83 892.543 1070.35 891.325 1069.11 889.965C1067.86 888.605 1066.78 887.16 1065.88 885.63L1075.14 878.32C1076.45 880.643 1078 882.627 1079.82 884.27C1081.63 885.857 1084.07 886.65 1087.13 886.65C1090.19 886.65 1092.48 885.772 1094.01 884.015C1095.6 882.258 1096.39 879.935 1096.39 877.045V876.365C1096.39 873.645 1095.6 871.492 1094.01 869.905C1092.43 868.318 1090.24 867.525 1087.47 867.525C1085.14 867.525 1083.22 868.007 1081.69 868.97C1080.21 869.877 1079.08 870.783 1078.29 871.69L1067.83 870.245L1070.04 836.67H1106.34V847.805ZM1118.8 851.375H1131.38V858.855H1131.8C1132.43 856.362 1133.84 854.322 1136.05 852.735C1138.32 851.148 1140.9 850.355 1143.79 850.355C1149.46 850.355 1153.73 852.338 1156.62 856.305C1159.51 860.272 1160.96 866.052 1160.96 873.645C1160.96 881.238 1159.51 887.047 1156.62 891.07C1153.73 895.037 1149.46 897.02 1143.79 897.02C1142.32 897.02 1140.93 896.793 1139.62 896.34C1138.32 895.943 1137.13 895.377 1136.05 894.64C1135.03 893.847 1134.16 892.94 1133.42 891.92C1132.68 890.843 1132.14 889.71 1131.8 888.52H1131.38V913H1118.8V851.375ZM1139.62 886.82C1142 886.82 1143.96 885.998 1145.49 884.355C1147.08 882.655 1147.87 880.388 1147.87 877.555V869.82C1147.87 866.987 1147.08 864.748 1145.49 863.105C1143.96 861.405 1142 860.555 1139.62 860.555C1137.24 860.555 1135.26 861.15 1133.67 862.34C1132.14 863.473 1131.38 865.06 1131.38 867.1V880.275C1131.38 882.315 1132.14 883.93 1133.67 885.12C1135.26 886.253 1137.24 886.82 1139.62 886.82ZM1164.85 896L1179.55 873.305L1165.02 851.375H1179.3L1187.63 865.4H1187.97L1196.04 851.375H1209.3L1194.51 873.73L1209.39 896H1195.11L1186.52 881.465H1186.18L1177.94 896H1164.85Z" fill="#262526"/>
<path d="M1006.5 206V199.95H1011V177.15H1006.5V171.1H1023.1V177.15H1018.6V199.95H1023.1V206H1006.5ZM1029.43 171.1H1046.38C1049.28 171.1 1051.53 171.917 1053.13 173.55C1054.77 175.183 1055.58 177.35 1055.58 180.05C1055.58 181.383 1055.4 182.517 1055.03 183.45C1054.7 184.383 1054.23 185.15 1053.63 185.75C1053.07 186.35 1052.38 186.8 1051.58 187.1C1050.82 187.367 1049.98 187.517 1049.08 187.55V187.85C1049.92 187.85 1050.78 188 1051.68 188.3C1052.62 188.6 1053.47 189.083 1054.23 189.75C1055 190.383 1055.63 191.217 1056.13 192.25C1056.67 193.283 1056.93 194.55 1056.93 196.05C1056.93 197.417 1056.7 198.717 1056.23 199.95C1055.8 201.15 1055.18 202.2 1054.38 203.1C1053.58 204 1052.63 204.717 1051.53 205.25C1050.43 205.75 1049.23 206 1047.93 206H1029.43V171.1ZM1037.03 199.6H1045.78C1046.78 199.6 1047.57 199.333 1048.13 198.8C1048.73 198.233 1049.03 197.45 1049.03 196.45V194.75C1049.03 193.75 1048.73 192.983 1048.13 192.45C1047.57 191.883 1046.78 191.6 1045.78 191.6H1037.03V199.6ZM1037.03 185.4H1044.58C1045.58 185.4 1046.37 185.117 1046.93 184.55C1047.5 183.983 1047.78 183.2 1047.78 182.2V180.7C1047.78 179.7 1047.5 178.917 1046.93 178.35C1046.37 177.783 1045.58 177.5 1044.58 177.5H1037.03V185.4ZM1088.88 183.1H1088.73L1086.18 188.2L1079.38 200.55L1072.73 188.25L1070.08 182.75H1069.93V206H1062.78V171.1H1070.83L1079.38 187.45H1079.48L1087.93 171.1H1096.03V206H1088.88V183.1ZM1115.56 206V171.1H1132.06C1133.7 171.1 1135.16 171.383 1136.46 171.95C1137.76 172.483 1138.86 173.233 1139.76 174.2C1140.7 175.167 1141.41 176.35 1141.91 177.75C1142.41 179.117 1142.66 180.617 1142.66 182.25C1142.66 183.917 1142.41 185.433 1141.91 186.8C1141.41 188.167 1140.7 189.333 1139.76 190.3C1138.86 191.267 1137.76 192.033 1136.46 192.6C1135.16 193.133 1133.7 193.4 1132.06 193.4H1123.16V206H1115.56ZM1123.16 186.8H1131.16C1132.3 186.8 1133.18 186.517 1133.81 185.95C1134.48 185.35 1134.81 184.483 1134.81 183.35V181.15C1134.81 180.017 1134.48 179.167 1133.81 178.6C1133.18 178 1132.3 177.7 1131.16 177.7H1123.16V186.8ZM1155.33 206C1152.79 206 1150.93 205.383 1149.73 204.15C1148.56 202.917 1147.98 201.133 1147.98 198.8V169H1155.38V200.25H1158.68V206H1155.33ZM1174.06 206.6C1172.06 206.6 1170.28 206.283 1168.71 205.65C1167.15 204.983 1165.81 204.067 1164.71 202.9C1163.65 201.7 1162.83 200.25 1162.26 198.55C1161.73 196.85 1161.46 194.95 1161.46 192.85C1161.46 190.783 1161.73 188.917 1162.26 187.25C1162.8 185.55 1163.58 184.1 1164.61 182.9C1165.68 181.7 1166.98 180.783 1168.51 180.15C1170.05 179.483 1171.8 179.15 1173.76 179.15C1175.93 179.15 1177.78 179.517 1179.31 180.25C1180.88 180.983 1182.15 181.967 1183.11 183.2C1184.11 184.433 1184.83 185.867 1185.26 187.5C1185.73 189.1 1185.96 190.783 1185.96 192.55V194.75H1169.11V195.15C1169.11 196.883 1169.58 198.267 1170.51 199.3C1171.45 200.3 1172.91 200.8 1174.91 200.8C1176.45 200.8 1177.7 200.5 1178.66 199.9C1179.63 199.267 1180.53 198.517 1181.36 197.65L1185.06 202.25C1183.9 203.617 1182.36 204.683 1180.46 205.45C1178.6 206.217 1176.46 206.6 1174.06 206.6ZM1173.91 184.6C1172.41 184.6 1171.23 185.1 1170.36 186.1C1169.53 187.067 1169.11 188.367 1169.11 190V190.4H1178.31V189.95C1178.31 188.35 1177.95 187.067 1177.21 186.1C1176.51 185.1 1175.41 184.6 1173.91 184.6ZM1187.86 206L1196.51 192.65L1187.96 179.75H1196.36L1201.26 188H1201.46L1206.21 179.75H1214.01L1205.31 192.9L1214.06 206H1205.66L1200.61 197.45H1200.41L1195.56 206H1187.86ZM1241.9 206.6C1238.84 206.6 1236.24 206.083 1234.1 205.05C1231.97 203.983 1230.15 202.617 1228.65 200.95L1233.65 195.9C1236.02 198.567 1238.94 199.9 1242.4 199.9C1244.27 199.9 1245.65 199.517 1246.55 198.75C1247.45 197.983 1247.9 196.967 1247.9 195.7C1247.9 194.733 1247.64 193.933 1247.1 193.3C1246.57 192.633 1245.49 192.183 1243.85 191.95L1240.4 191.5C1236.7 191.033 1233.99 189.917 1232.25 188.15C1230.55 186.383 1229.7 184.033 1229.7 181.1C1229.7 179.533 1230 178.1 1230.6 176.8C1231.2 175.5 1232.05 174.383 1233.15 173.45C1234.29 172.517 1235.65 171.8 1237.25 171.3C1238.89 170.767 1240.74 170.5 1242.8 170.5C1245.44 170.5 1247.75 170.917 1249.75 171.75C1251.75 172.583 1253.47 173.8 1254.9 175.4L1249.85 180.5C1249.02 179.533 1248 178.75 1246.8 178.15C1245.64 177.517 1244.15 177.2 1242.35 177.2C1240.65 177.2 1239.39 177.5 1238.55 178.1C1237.72 178.7 1237.3 179.533 1237.3 180.6C1237.3 181.8 1237.62 182.667 1238.25 183.2C1238.92 183.733 1239.99 184.117 1241.45 184.35L1244.9 184.9C1248.5 185.467 1251.17 186.583 1252.9 188.25C1254.64 189.883 1255.5 192.217 1255.5 195.25C1255.5 196.917 1255.2 198.45 1254.6 199.85C1254 201.25 1253.12 202.45 1251.95 203.45C1250.82 204.45 1249.4 205.233 1247.7 205.8C1246 206.333 1244.07 206.6 1241.9 206.6ZM1280.81 206C1279.47 206 1278.36 205.583 1277.46 204.75C1276.59 203.917 1276.04 202.8 1275.81 201.4H1275.51C1275.11 203.1 1274.22 204.4 1272.86 205.3C1271.49 206.167 1269.81 206.6 1267.81 206.6C1265.17 206.6 1263.16 205.9 1261.76 204.5C1260.36 203.1 1259.66 201.25 1259.66 198.95C1259.66 196.183 1260.66 194.133 1262.66 192.8C1264.69 191.433 1267.44 190.75 1270.91 190.75H1275.06V189.1C1275.06 187.833 1274.72 186.833 1274.06 186.1C1273.39 185.333 1272.27 184.95 1270.71 184.95C1269.24 184.95 1268.07 185.267 1267.21 185.9C1266.34 186.533 1265.62 187.25 1265.06 188.05L1260.66 184.15C1261.72 182.583 1263.06 181.367 1264.66 180.5C1266.29 179.6 1268.49 179.15 1271.26 179.15C1274.99 179.15 1277.79 179.967 1279.66 181.6C1281.52 183.233 1282.46 185.617 1282.46 188.75V200.25H1284.91V206H1280.81ZM1270.56 201.45C1271.79 201.45 1272.84 201.183 1273.71 200.65C1274.61 200.117 1275.06 199.25 1275.06 198.05V194.95H1271.46C1268.56 194.95 1267.11 195.933 1267.11 197.9V198.65C1267.11 199.617 1267.41 200.333 1268.01 200.8C1268.61 201.233 1269.46 201.45 1270.56 201.45ZM1289.87 206V179.75H1297.27V184.2H1297.57C1298.04 182.833 1298.86 181.65 1300.02 180.65C1301.19 179.65 1302.81 179.15 1304.87 179.15C1307.57 179.15 1309.61 180.05 1310.97 181.85C1312.37 183.65 1313.07 186.217 1313.07 189.55V206H1305.67V190.15C1305.67 188.45 1305.41 187.2 1304.87 186.4C1304.34 185.567 1303.39 185.15 1302.02 185.15C1301.42 185.15 1300.84 185.233 1300.27 185.4C1299.71 185.533 1299.19 185.767 1298.72 186.1C1298.29 186.433 1297.94 186.85 1297.67 187.35C1297.41 187.817 1297.27 188.367 1297.27 189V206H1289.87ZM1328.56 206.6C1326.02 206.6 1323.89 206.2 1322.16 205.4C1320.42 204.567 1318.87 203.4 1317.51 201.9L1321.86 197.5C1322.79 198.533 1323.82 199.35 1324.96 199.95C1326.09 200.55 1327.37 200.85 1328.81 200.85C1330.27 200.85 1331.29 200.633 1331.86 200.2C1332.42 199.733 1332.71 199.117 1332.71 198.35C1332.71 197.117 1331.82 196.383 1330.06 196.15L1327.21 195.8C1321.31 195.067 1318.36 192.367 1318.36 187.7C1318.36 186.433 1318.59 185.283 1319.06 184.25C1319.56 183.183 1320.24 182.283 1321.11 181.55C1322.01 180.783 1323.07 180.2 1324.31 179.8C1325.57 179.367 1326.99 179.15 1328.56 179.15C1329.92 179.15 1331.12 179.25 1332.16 179.45C1333.22 179.617 1334.16 179.883 1334.96 180.25C1335.79 180.583 1336.54 181.017 1337.21 181.55C1337.91 182.05 1338.59 182.617 1339.26 183.25L1335.01 187.6C1334.17 186.767 1333.22 186.117 1332.16 185.65C1331.12 185.15 1330.06 184.9 1328.96 184.9C1327.69 184.9 1326.79 185.1 1326.26 185.5C1325.72 185.9 1325.46 186.433 1325.46 187.1C1325.46 187.8 1325.64 188.35 1326.01 188.75C1326.41 189.117 1327.14 189.383 1328.21 189.55L1331.16 189.95C1336.92 190.717 1339.81 193.35 1339.81 197.85C1339.81 199.117 1339.54 200.283 1339.01 201.35C1338.47 202.417 1337.71 203.35 1336.71 204.15C1335.74 204.917 1334.56 205.517 1333.16 205.95C1331.79 206.383 1330.26 206.6 1328.56 206.6ZM1357.07 171.1H1374.02C1376.92 171.1 1379.17 171.917 1380.77 173.55C1382.4 175.183 1383.22 177.35 1383.22 180.05C1383.22 181.383 1383.04 182.517 1382.67 183.45C1382.34 184.383 1381.87 185.15 1381.27 185.75C1380.7 186.35 1380.02 186.8 1379.22 187.1C1378.45 187.367 1377.62 187.517 1376.72 187.55V187.85C1377.55 187.85 1378.42 188 1379.32 188.3C1380.25 188.6 1381.1 189.083 1381.87 189.75C1382.64 190.383 1383.27 191.217 1383.77 192.25C1384.3 193.283 1384.57 194.55 1384.57 196.05C1384.57 197.417 1384.34 198.717 1383.87 199.95C1383.44 201.15 1382.82 202.2 1382.02 203.1C1381.22 204 1380.27 204.717 1379.17 205.25C1378.07 205.75 1376.87 206 1375.57 206H1357.07V171.1ZM1364.67 199.6H1373.42C1374.42 199.6 1375.2 199.333 1375.77 198.8C1376.37 198.233 1376.67 197.45 1376.67 196.45V194.75C1376.67 193.75 1376.37 192.983 1375.77 192.45C1375.2 191.883 1374.42 191.6 1373.42 191.6H1364.67V199.6ZM1364.67 185.4H1372.22C1373.22 185.4 1374 185.117 1374.57 184.55C1375.14 183.983 1375.42 183.2 1375.42 182.2V180.7C1375.42 179.7 1375.14 178.917 1374.57 178.35C1374 177.783 1373.22 177.5 1372.22 177.5H1364.67V185.4ZM1400.67 206.6C1398.74 206.6 1397 206.283 1395.47 205.65C1393.97 205.017 1392.69 204.1 1391.62 202.9C1390.59 201.7 1389.79 200.25 1389.22 198.55C1388.65 196.85 1388.37 194.95 1388.37 192.85C1388.37 190.75 1388.65 188.85 1389.22 187.15C1389.79 185.45 1390.59 184.017 1391.62 182.85C1392.69 181.65 1393.97 180.733 1395.47 180.1C1397 179.467 1398.74 179.15 1400.67 179.15C1402.6 179.15 1404.32 179.467 1405.82 180.1C1407.35 180.733 1408.64 181.65 1409.67 182.85C1410.74 184.017 1411.55 185.45 1412.12 187.15C1412.69 188.85 1412.97 190.75 1412.97 192.85C1412.97 194.95 1412.69 196.85 1412.12 198.55C1411.55 200.25 1410.74 201.7 1409.67 202.9C1408.64 204.1 1407.35 205.017 1405.82 205.65C1404.32 206.283 1402.6 206.6 1400.67 206.6ZM1400.67 200.75C1402.14 200.75 1403.27 200.3 1404.07 199.4C1404.87 198.5 1405.27 197.217 1405.27 195.55V190.2C1405.27 188.533 1404.87 187.25 1404.07 186.35C1403.27 185.45 1402.14 185 1400.67 185C1399.2 185 1398.07 185.45 1397.27 186.35C1396.47 187.25 1396.07 188.533 1396.07 190.2V195.55C1396.07 197.217 1396.47 198.5 1397.27 199.4C1398.07 200.3 1399.2 200.75 1400.67 200.75ZM1425.59 206C1423.06 206 1421.19 205.383 1419.99 204.15C1418.82 202.917 1418.24 201.133 1418.24 198.8V169H1425.64V200.25H1428.94V206H1425.59ZM1449.48 201.6H1449.23C1449.03 202.3 1448.71 202.967 1448.28 203.6C1447.84 204.2 1447.31 204.733 1446.68 205.2C1446.08 205.633 1445.38 205.967 1444.58 206.2C1443.81 206.467 1443.01 206.6 1442.18 206.6C1438.84 206.6 1436.33 205.433 1434.63 203.1C1432.93 200.733 1432.08 197.317 1432.08 192.85C1432.08 188.383 1432.93 184.983 1434.63 182.65C1436.33 180.317 1438.84 179.15 1442.18 179.15C1443.88 179.15 1445.38 179.617 1446.68 180.55C1448.01 181.483 1448.86 182.683 1449.23 184.15H1449.48V169H1456.88V206H1449.48V201.6ZM1444.63 200.6C1446.03 200.6 1447.18 200.267 1448.08 199.6C1449.01 198.9 1449.48 197.95 1449.48 196.75V189C1449.48 187.8 1449.01 186.867 1448.08 186.2C1447.18 185.5 1446.03 185.15 1444.63 185.15C1443.23 185.15 1442.06 185.65 1441.13 186.65C1440.23 187.617 1439.78 188.933 1439.78 190.6V195.15C1439.78 196.817 1440.23 198.15 1441.13 199.15C1442.06 200.117 1443.23 200.6 1444.63 200.6Z" fill="#262526"/>
<path d="M1377.35 883.136C1378.87 883.136 1380 882.795 1380.74 882.112C1381.51 881.408 1381.9 880.512 1381.9 879.424V879.2C1381.9 878.027 1381.52 877.152 1380.78 876.576C1380.05 875.979 1379.09 875.68 1377.9 875.68C1376.74 875.68 1375.81 875.936 1375.08 876.448C1374.35 876.939 1373.76 877.611 1373.29 878.464L1371.3 876.928C1371.58 876.48 1371.91 876.043 1372.3 875.616C1372.7 875.168 1373.17 874.773 1373.7 874.432C1374.24 874.091 1374.86 873.813 1375.56 873.6C1376.26 873.387 1377.06 873.28 1377.96 873.28C1378.9 873.28 1379.78 873.408 1380.62 873.664C1381.45 873.899 1382.16 874.261 1382.76 874.752C1383.38 875.221 1383.86 875.808 1384.2 876.512C1384.56 877.216 1384.74 878.016 1384.74 878.912C1384.74 879.637 1384.63 880.288 1384.39 880.864C1384.18 881.44 1383.88 881.941 1383.5 882.368C1383.11 882.795 1382.65 883.157 1382.12 883.456C1381.61 883.755 1381.05 883.979 1380.46 884.128V884.256C1381.05 884.384 1381.63 884.597 1382.18 884.896C1382.76 885.173 1383.26 885.547 1383.69 886.016C1384.14 886.464 1384.49 887.019 1384.74 887.68C1385.02 888.32 1385.16 889.056 1385.16 889.888C1385.16 890.848 1384.98 891.733 1384.62 892.544C1384.25 893.333 1383.74 894.016 1383.08 894.592C1382.42 895.147 1381.62 895.584 1380.68 895.904C1379.74 896.224 1378.71 896.384 1377.58 896.384C1376.62 896.384 1375.76 896.277 1375.02 896.064C1374.27 895.851 1373.61 895.563 1373.03 895.2C1372.46 894.837 1371.94 894.432 1371.5 893.984C1371.07 893.536 1370.69 893.067 1370.34 892.576L1372.36 891.04C1372.64 891.488 1372.94 891.893 1373.26 892.256C1373.6 892.619 1373.97 892.928 1374.38 893.184C1374.78 893.44 1375.24 893.643 1375.75 893.792C1376.26 893.92 1376.86 893.984 1377.54 893.984C1379.12 893.984 1380.32 893.632 1381.13 892.928C1381.94 892.203 1382.34 891.179 1382.34 889.856V889.6C1382.34 888.277 1381.94 887.264 1381.13 886.56C1380.32 885.835 1379.12 885.472 1377.54 885.472H1374.92V883.136H1377.35ZM1405.24 896H1390.59V893.248L1397.88 886.528C1398.93 885.568 1399.8 884.555 1400.51 883.488C1401.21 882.4 1401.56 881.312 1401.56 880.224V879.84C1401.56 878.603 1401.22 877.6 1400.54 876.832C1399.86 876.064 1398.82 875.68 1397.44 875.68C1396.75 875.68 1396.16 875.776 1395.64 875.968C1395.13 876.16 1394.68 876.427 1394.3 876.768C1393.94 877.109 1393.63 877.515 1393.37 877.984C1393.14 878.432 1392.94 878.923 1392.8 879.456L1390.4 878.528C1390.61 877.867 1390.9 877.227 1391.26 876.608C1391.64 875.968 1392.11 875.403 1392.67 874.912C1393.24 874.421 1393.93 874.027 1394.72 873.728C1395.53 873.429 1396.48 873.28 1397.56 873.28C1398.65 873.28 1399.62 873.44 1400.48 873.76C1401.33 874.08 1402.04 874.528 1402.62 875.104C1403.2 875.68 1403.63 876.363 1403.93 877.152C1404.25 877.941 1404.41 878.816 1404.41 879.776C1404.41 880.651 1404.28 881.461 1404.03 882.208C1403.79 882.955 1403.46 883.669 1403.04 884.352C1402.61 885.013 1402.09 885.664 1401.47 886.304C1400.87 886.944 1400.22 887.584 1399.52 888.224L1393.5 893.632H1405.24V896ZM1410.1 879.488H1412.66V882.176H1412.78C1413.21 881.131 1413.83 880.363 1414.64 879.872C1415.47 879.36 1416.46 879.104 1417.62 879.104C1418.64 879.104 1419.57 879.307 1420.4 879.712C1421.23 880.117 1421.94 880.693 1422.51 881.44C1423.11 882.187 1423.56 883.093 1423.86 884.16C1424.18 885.227 1424.34 886.421 1424.34 887.744C1424.34 889.067 1424.18 890.261 1423.86 891.328C1423.56 892.395 1423.11 893.301 1422.51 894.048C1421.94 894.795 1421.23 895.371 1420.4 895.776C1419.57 896.181 1418.64 896.384 1417.62 896.384C1415.38 896.384 1413.76 895.36 1412.78 893.312H1412.66V902.4H1410.1V879.488ZM1416.91 894.08C1418.36 894.08 1419.5 893.632 1420.34 892.736C1421.17 891.819 1421.58 890.624 1421.58 889.152V886.336C1421.58 884.864 1421.17 883.68 1420.34 882.784C1419.5 881.867 1418.36 881.408 1416.91 881.408C1416.34 881.408 1415.78 881.493 1415.25 881.664C1414.74 881.813 1414.29 882.027 1413.9 882.304C1413.52 882.581 1413.21 882.923 1412.98 883.328C1412.76 883.712 1412.66 884.128 1412.66 884.576V890.72C1412.66 891.253 1412.76 891.733 1412.98 892.16C1413.21 892.565 1413.52 892.917 1413.9 893.216C1414.29 893.493 1414.74 893.707 1415.25 893.856C1415.78 894.005 1416.34 894.08 1416.91 894.08ZM1426.23 896L1432.35 887.68L1426.49 879.488H1429.5L1433.69 885.632H1433.79L1438.14 879.488H1440.99L1435.16 887.488L1441.11 896H1438.11L1433.82 889.536H1433.72L1429.08 896H1426.23Z" fill="#262526"/>
<path d="M1471.66 896H1462.5V894.28L1467.06 890.08C1467.71 889.48 1468.26 888.847 1468.7 888.18C1469.14 887.5 1469.36 886.82 1469.36 886.14V885.9C1469.36 885.127 1469.15 884.5 1468.72 884.02C1468.29 883.54 1467.65 883.3 1466.78 883.3C1466.35 883.3 1465.98 883.36 1465.66 883.48C1465.34 883.6 1465.06 883.767 1464.82 883.98C1464.59 884.193 1464.4 884.447 1464.24 884.74C1464.09 885.02 1463.97 885.327 1463.88 885.66L1462.38 885.08C1462.51 884.667 1462.69 884.267 1462.92 883.88C1463.16 883.48 1463.45 883.127 1463.8 882.82C1464.16 882.513 1464.59 882.267 1465.08 882.08C1465.59 881.893 1466.18 881.8 1466.86 881.8C1467.54 881.8 1468.15 881.9 1468.68 882.1C1469.21 882.3 1469.66 882.58 1470.02 882.94C1470.38 883.3 1470.65 883.727 1470.84 884.22C1471.04 884.713 1471.14 885.26 1471.14 885.86C1471.14 886.407 1471.06 886.913 1470.9 887.38C1470.75 887.847 1470.55 888.293 1470.28 888.72C1470.01 889.133 1469.69 889.54 1469.3 889.94C1468.93 890.34 1468.52 890.74 1468.08 891.14L1464.32 894.52H1471.66V896ZM1478.99 896.24C1477.33 896.24 1476.11 895.607 1475.33 894.34C1474.57 893.073 1474.19 891.3 1474.19 889.02C1474.19 886.74 1474.57 884.967 1475.33 883.7C1476.11 882.433 1477.33 881.8 1478.99 881.8C1480.66 881.8 1481.87 882.433 1482.63 883.7C1483.41 884.967 1483.79 886.74 1483.79 889.02C1483.79 891.3 1483.41 893.073 1482.63 894.34C1481.87 895.607 1480.66 896.24 1478.99 896.24ZM1478.99 894.78C1479.54 894.78 1480.01 894.667 1480.39 894.44C1480.78 894.213 1481.09 893.893 1481.33 893.48C1481.57 893.067 1481.75 892.58 1481.85 892.02C1481.97 891.46 1482.03 890.84 1482.03 890.16V887.88C1482.03 887.2 1481.97 886.58 1481.85 886.02C1481.75 885.46 1481.57 884.973 1481.33 884.56C1481.09 884.147 1480.78 883.827 1480.39 883.6C1480.01 883.373 1479.54 883.26 1478.99 883.26C1478.45 883.26 1477.98 883.373 1477.59 883.6C1477.21 883.827 1476.89 884.147 1476.65 884.56C1476.41 884.973 1476.23 885.46 1476.11 886.02C1476.01 886.58 1475.95 887.2 1475.95 887.88V890.16C1475.95 890.84 1476.01 891.46 1476.11 892.02C1476.23 892.58 1476.41 893.067 1476.65 893.48C1476.89 893.893 1477.21 894.213 1477.59 894.44C1477.98 894.667 1478.45 894.78 1478.99 894.78ZM1486.68 885.68H1488.28V887.36H1488.36C1488.63 886.707 1489.02 886.227 1489.52 885.92C1490.04 885.6 1490.66 885.44 1491.38 885.44C1492.02 885.44 1492.6 885.567 1493.12 885.82C1493.64 886.073 1494.08 886.433 1494.44 886.9C1494.82 887.367 1495.1 887.933 1495.28 888.6C1495.48 889.267 1495.58 890.013 1495.58 890.84C1495.58 891.667 1495.48 892.413 1495.28 893.08C1495.1 893.747 1494.82 894.313 1494.44 894.78C1494.08 895.247 1493.64 895.607 1493.12 895.86C1492.6 896.113 1492.02 896.24 1491.38 896.24C1489.98 896.24 1488.98 895.6 1488.36 894.32H1488.28V900H1486.68V885.68ZM1490.94 894.8C1491.85 894.8 1492.56 894.52 1493.08 893.96C1493.6 893.387 1493.86 892.64 1493.86 891.72V889.96C1493.86 889.04 1493.6 888.3 1493.08 887.74C1492.56 887.167 1491.85 886.88 1490.94 886.88C1490.58 886.88 1490.24 886.933 1489.9 887.04C1489.58 887.133 1489.3 887.267 1489.06 887.44C1488.82 887.613 1488.63 887.827 1488.48 888.08C1488.35 888.32 1488.28 888.58 1488.28 888.86V892.7C1488.28 893.033 1488.35 893.333 1488.48 893.6C1488.63 893.853 1488.82 894.073 1489.06 894.26C1489.3 894.433 1489.58 894.567 1489.9 894.66C1490.24 894.753 1490.58 894.8 1490.94 894.8ZM1496.77 896L1500.59 890.8L1496.93 885.68H1498.81L1501.43 889.52H1501.49L1504.21 885.68H1505.99L1502.35 890.68L1506.07 896H1504.19L1501.51 891.96H1501.45L1498.55 896H1496.77Z" fill="#262526"/>
<path d="M1001 454V450.5H1005.9V422.6H1001V419.1H1015V422.6H1010.1V450.5H1015V454H1001ZM1022.67 419.1H1037.02C1039.92 419.1 1042.19 419.917 1043.82 421.55C1045.49 423.183 1046.32 425.367 1046.32 428.1C1046.32 429.4 1046.14 430.5 1045.77 431.4C1045.4 432.3 1044.94 433.05 1044.37 433.65C1043.8 434.217 1043.19 434.65 1042.52 434.95C1041.85 435.217 1041.24 435.4 1040.67 435.5V435.8C1041.3 435.833 1042 436 1042.77 436.3C1043.57 436.6 1044.32 437.083 1045.02 437.75C1045.72 438.383 1046.3 439.217 1046.77 440.25C1047.27 441.25 1047.52 442.467 1047.52 443.9C1047.52 445.333 1047.29 446.667 1046.82 447.9C1046.39 449.133 1045.77 450.2 1044.97 451.1C1044.17 452 1043.22 452.717 1042.12 453.25C1041.02 453.75 1039.82 454 1038.52 454H1022.67V419.1ZM1026.87 450.3H1037.22C1039.02 450.3 1040.44 449.85 1041.47 448.95C1042.5 448.017 1043.02 446.667 1043.02 444.9V443.2C1043.02 441.433 1042.5 440.1 1041.47 439.2C1040.44 438.267 1039.02 437.8 1037.22 437.8H1026.87V450.3ZM1026.87 434.2H1036.52C1038.19 434.2 1039.49 433.783 1040.42 432.95C1041.35 432.117 1041.82 430.917 1041.82 429.35V427.65C1041.82 426.083 1041.35 424.883 1040.42 424.05C1039.49 423.217 1038.19 422.8 1036.52 422.8H1026.87V434.2ZM1082.54 424.6H1082.29L1079.34 430.45L1070.99 445.65L1062.64 430.45L1059.69 424.6H1059.44V454H1055.34V419.1H1060.94L1070.94 437.9H1071.19L1081.24 419.1H1086.64V454H1082.54V424.6ZM1107.73 454V419.1H1121.63C1124.76 419.1 1127.16 420 1128.83 421.8C1130.53 423.567 1131.38 426 1131.38 429.1C1131.38 432.2 1130.53 434.65 1128.83 436.45C1127.16 438.217 1124.76 439.1 1121.63 439.1H1111.93V454H1107.73ZM1111.93 435.4H1121.63C1123.29 435.4 1124.58 434.967 1125.48 434.1C1126.41 433.233 1126.88 432 1126.88 430.4V427.8C1126.88 426.2 1126.41 424.967 1125.48 424.1C1124.58 423.233 1123.29 422.8 1121.63 422.8H1111.93V435.4ZM1141.9 454C1140.5 454 1139.43 453.617 1138.7 452.85C1138 452.05 1137.65 451.05 1137.65 449.85V417H1141.65V450.5H1145.45V454H1141.9ZM1160.97 454.6C1159.21 454.6 1157.61 454.283 1156.17 453.65C1154.77 453.017 1153.56 452.117 1152.52 450.95C1151.52 449.75 1150.74 448.333 1150.17 446.7C1149.64 445.033 1149.37 443.167 1149.37 441.1C1149.37 439.067 1149.64 437.217 1150.17 435.55C1150.74 433.883 1151.52 432.467 1152.52 431.3C1153.56 430.1 1154.77 429.183 1156.17 428.55C1157.61 427.917 1159.21 427.6 1160.97 427.6C1162.71 427.6 1164.26 427.917 1165.62 428.55C1166.99 429.183 1168.16 430.067 1169.12 431.2C1170.09 432.3 1170.82 433.617 1171.32 435.15C1171.86 436.683 1172.12 438.367 1172.12 440.2V442.1H1153.57V443.3C1153.57 444.4 1153.74 445.433 1154.07 446.4C1154.44 447.333 1154.94 448.15 1155.57 448.85C1156.24 449.55 1157.04 450.1 1157.97 450.5C1158.94 450.9 1160.02 451.1 1161.22 451.1C1162.86 451.1 1164.27 450.717 1165.47 449.95C1166.71 449.183 1167.66 448.083 1168.32 446.65L1171.17 448.7C1170.34 450.467 1169.04 451.9 1167.27 453C1165.51 454.067 1163.41 454.6 1160.97 454.6ZM1160.97 430.95C1159.87 430.95 1158.87 431.15 1157.97 431.55C1157.07 431.917 1156.29 432.45 1155.62 433.15C1154.99 433.85 1154.49 434.683 1154.12 435.65C1153.76 436.583 1153.57 437.617 1153.57 438.75V439.1H1167.82V438.55C1167.82 436.25 1167.19 434.417 1165.92 433.05C1164.69 431.65 1163.04 430.95 1160.97 430.95ZM1174.93 454L1184.48 441L1175.33 428.2H1180.03L1186.58 437.8H1186.73L1193.53 428.2H1197.98L1188.88 440.7L1198.18 454H1193.48L1186.78 443.9H1186.63L1179.38 454H1174.93ZM1225.49 454.6C1222.65 454.6 1220.24 454.067 1218.24 453C1216.24 451.9 1214.54 450.4 1213.14 448.5L1216.24 445.9C1217.47 447.533 1218.84 448.783 1220.34 449.65C1221.84 450.483 1223.6 450.9 1225.64 450.9C1228.14 450.9 1230.04 450.3 1231.34 449.1C1232.67 447.9 1233.34 446.3 1233.34 444.3C1233.34 442.633 1232.84 441.35 1231.84 440.45C1230.84 439.55 1229.19 438.833 1226.89 438.3L1224.04 437.65C1220.84 436.917 1218.39 435.817 1216.69 434.35C1215.02 432.85 1214.19 430.75 1214.19 428.05C1214.19 426.517 1214.47 425.15 1215.04 423.95C1215.6 422.75 1216.39 421.75 1217.39 420.95C1218.42 420.15 1219.64 419.55 1221.04 419.15C1222.47 418.717 1224.04 418.5 1225.74 418.5C1228.37 418.5 1230.62 418.983 1232.49 419.95C1234.39 420.917 1235.99 422.333 1237.29 424.2L1234.14 426.5C1233.17 425.167 1232 424.117 1230.64 423.35C1229.27 422.583 1227.57 422.2 1225.54 422.2C1223.3 422.2 1221.54 422.683 1220.24 423.65C1218.97 424.583 1218.34 426 1218.34 427.9C1218.34 429.567 1218.87 430.833 1219.94 431.7C1221.04 432.533 1222.69 433.2 1224.89 433.7L1227.74 434.35C1231.17 435.117 1233.65 436.283 1235.19 437.85C1236.72 439.417 1237.49 441.5 1237.49 444.1C1237.49 445.7 1237.2 447.15 1236.64 448.45C1236.1 449.75 1235.32 450.85 1234.29 451.75C1233.25 452.65 1231.99 453.35 1230.49 453.85C1229.02 454.35 1227.35 454.6 1225.49 454.6ZM1263.09 454C1261.59 454 1260.51 453.6 1259.84 452.8C1259.21 452 1258.81 451 1258.64 449.8H1258.39C1257.82 451.4 1256.89 452.6 1255.59 453.4C1254.29 454.2 1252.74 454.6 1250.94 454.6C1248.21 454.6 1246.07 453.9 1244.54 452.5C1243.04 451.1 1242.29 449.2 1242.29 446.8C1242.29 444.367 1243.17 442.5 1244.94 441.2C1246.74 439.9 1249.52 439.25 1253.29 439.25H1258.39V436.7C1258.39 434.867 1257.89 433.467 1256.89 432.5C1255.89 431.533 1254.36 431.05 1252.29 431.05C1250.72 431.05 1249.41 431.4 1248.34 432.1C1247.31 432.8 1246.44 433.733 1245.74 434.9L1243.34 432.65C1244.04 431.25 1245.16 430.067 1246.69 429.1C1248.22 428.1 1250.16 427.6 1252.49 427.6C1255.62 427.6 1258.06 428.367 1259.79 429.9C1261.52 431.433 1262.39 433.567 1262.39 436.3V450.5H1265.34V454H1263.09ZM1251.59 451.2C1252.59 451.2 1253.51 451.083 1254.34 450.85C1255.17 450.617 1255.89 450.283 1256.49 449.85C1257.09 449.417 1257.56 448.917 1257.89 448.35C1258.22 447.783 1258.39 447.167 1258.39 446.5V442.25H1253.09C1250.79 442.25 1249.11 442.583 1248.04 443.25C1247.01 443.917 1246.49 444.883 1246.49 446.15V447.2C1246.49 448.467 1246.94 449.45 1247.84 450.15C1248.77 450.85 1250.02 451.2 1251.59 451.2ZM1271.05 454V428.2H1275.05V432.4H1275.25C1275.88 430.933 1276.77 429.767 1277.9 428.9C1279.07 428.033 1280.62 427.6 1282.55 427.6C1285.22 427.6 1287.32 428.467 1288.85 430.2C1290.42 431.9 1291.2 434.317 1291.2 437.45V454H1287.2V438.15C1287.2 433.517 1285.25 431.2 1281.35 431.2C1280.55 431.2 1279.77 431.3 1279 431.5C1278.27 431.7 1277.6 432 1277 432.4C1276.4 432.8 1275.92 433.317 1275.55 433.95C1275.22 434.55 1275.05 435.267 1275.05 436.1V454H1271.05ZM1307.22 454.6C1304.82 454.6 1302.8 454.15 1301.17 453.25C1299.57 452.317 1298.18 451.083 1297.02 449.55L1299.87 447.25C1300.87 448.517 1301.98 449.5 1303.22 450.2C1304.45 450.867 1305.88 451.2 1307.52 451.2C1309.22 451.2 1310.53 450.833 1311.47 450.1C1312.43 449.367 1312.92 448.333 1312.92 447C1312.92 446 1312.58 445.15 1311.92 444.45C1311.28 443.717 1310.12 443.217 1308.42 442.95L1306.37 442.65C1305.17 442.483 1304.07 442.233 1303.07 441.9C1302.07 441.533 1301.18 441.067 1300.42 440.5C1299.68 439.9 1299.1 439.167 1298.67 438.3C1298.27 437.433 1298.07 436.4 1298.07 435.2C1298.07 433.933 1298.3 432.833 1298.77 431.9C1299.23 430.933 1299.87 430.133 1300.67 429.5C1301.5 428.867 1302.48 428.4 1303.62 428.1C1304.75 427.767 1305.97 427.6 1307.27 427.6C1309.37 427.6 1311.12 427.967 1312.52 428.7C1313.95 429.433 1315.2 430.45 1316.27 431.75L1313.62 434.15C1313.05 433.35 1312.22 432.633 1311.12 432C1310.02 431.333 1308.63 431 1306.97 431C1305.3 431 1304.03 431.367 1303.17 432.1C1302.33 432.8 1301.92 433.767 1301.92 435C1301.92 436.267 1302.33 437.183 1303.17 437.75C1304.03 438.317 1305.27 438.733 1306.87 439L1308.87 439.3C1311.73 439.733 1313.77 440.567 1314.97 441.8C1316.17 443 1316.77 444.583 1316.77 446.55C1316.77 449.05 1315.92 451.017 1314.22 452.45C1312.52 453.883 1310.18 454.6 1307.22 454.6ZM1340.25 454H1336.05V419.1H1349.95C1353.02 419.1 1355.4 419.95 1357.1 421.65C1358.83 423.35 1359.7 425.8 1359.7 429C1359.7 431.567 1359.1 433.683 1357.9 435.35C1356.73 436.983 1355 438.067 1352.7 438.6L1360.7 454H1355.95L1348.4 439H1340.25V454ZM1349.95 435.4C1351.62 435.4 1352.9 434.967 1353.8 434.1C1354.73 433.233 1355.2 432 1355.2 430.4V427.8C1355.2 426.2 1354.73 424.967 1353.8 424.1C1352.9 423.233 1351.62 422.8 1349.95 422.8H1340.25V435.4H1349.95ZM1376.6 454.6C1374.83 454.6 1373.23 454.283 1371.8 453.65C1370.4 453.017 1369.18 452.117 1368.15 450.95C1367.15 449.75 1366.37 448.333 1365.8 446.7C1365.27 445.033 1365 443.167 1365 441.1C1365 439.067 1365.27 437.217 1365.8 435.55C1366.37 433.883 1367.15 432.467 1368.15 431.3C1369.18 430.1 1370.4 429.183 1371.8 428.55C1373.23 427.917 1374.83 427.6 1376.6 427.6C1378.33 427.6 1379.88 427.917 1381.25 428.55C1382.62 429.183 1383.78 430.067 1384.75 431.2C1385.72 432.3 1386.45 433.617 1386.95 435.15C1387.48 436.683 1387.75 438.367 1387.75 440.2V442.1H1369.2V443.3C1369.2 444.4 1369.37 445.433 1369.7 446.4C1370.07 447.333 1370.57 448.15 1371.2 448.85C1371.87 449.55 1372.67 450.1 1373.6 450.5C1374.57 450.9 1375.65 451.1 1376.85 451.1C1378.48 451.1 1379.9 450.717 1381.1 449.95C1382.33 449.183 1383.28 448.083 1383.95 446.65L1386.8 448.7C1385.97 450.467 1384.67 451.9 1382.9 453C1381.13 454.067 1379.03 454.6 1376.6 454.6ZM1376.6 430.95C1375.5 430.95 1374.5 431.15 1373.6 431.55C1372.7 431.917 1371.92 432.45 1371.25 433.15C1370.62 433.85 1370.12 434.683 1369.75 435.65C1369.38 436.583 1369.2 437.617 1369.2 438.75V439.1H1383.45V438.55C1383.45 436.25 1382.82 434.417 1381.55 433.05C1380.32 431.65 1378.67 430.95 1376.6 430.95ZM1416.09 456.85C1416.09 459.517 1415.04 461.467 1412.94 462.7C1410.87 463.967 1407.76 464.6 1403.59 464.6C1399.56 464.6 1396.66 464.05 1394.89 462.95C1393.12 461.85 1392.24 460.283 1392.24 458.25C1392.24 456.85 1392.61 455.75 1393.34 454.95C1394.07 454.183 1395.07 453.617 1396.34 453.25V452.7C1394.81 451.967 1394.04 450.767 1394.04 449.1C1394.04 447.8 1394.46 446.817 1395.29 446.15C1396.12 445.45 1397.19 444.933 1398.49 444.6V444.4C1396.96 443.667 1395.76 442.617 1394.89 441.25C1394.06 439.883 1393.64 438.3 1393.64 436.5C1393.64 435.2 1393.87 434 1394.34 432.9C1394.81 431.8 1395.46 430.867 1396.29 430.1C1397.16 429.3 1398.17 428.683 1399.34 428.25C1400.54 427.817 1401.87 427.6 1403.34 427.6C1405.17 427.6 1406.81 427.933 1408.24 428.6V428.15C1408.24 427.15 1408.47 426.333 1408.94 425.7C1409.41 425.033 1410.17 424.7 1411.24 424.7H1415.09V428.2H1410.19V429.85C1411.12 430.65 1411.84 431.617 1412.34 432.75C1412.87 433.85 1413.14 435.1 1413.14 436.5C1413.14 437.8 1412.91 439 1412.44 440.1C1411.97 441.2 1411.31 442.15 1410.44 442.95C1409.61 443.717 1408.59 444.317 1407.39 444.75C1406.19 445.183 1404.86 445.4 1403.39 445.4C1402.56 445.4 1401.72 445.317 1400.89 445.15C1400.02 445.383 1399.24 445.733 1398.54 446.2C1397.84 446.633 1397.49 447.25 1397.49 448.05C1397.49 448.817 1397.86 449.333 1398.59 449.6C1399.32 449.867 1400.27 450 1401.44 450H1406.94C1410.14 450 1412.46 450.617 1413.89 451.85C1415.36 453.05 1416.09 454.717 1416.09 456.85ZM1412.34 457.15C1412.34 456.117 1411.94 455.283 1411.14 454.65C1410.37 454.05 1408.99 453.75 1406.99 453.75H1398.39C1396.79 454.483 1395.99 455.65 1395.99 457.25C1395.99 458.383 1396.41 459.35 1397.24 460.15C1398.11 460.95 1399.56 461.35 1401.59 461.35H1405.29C1407.52 461.35 1409.26 461 1410.49 460.3C1411.72 459.6 1412.34 458.55 1412.34 457.15ZM1403.39 442.2C1405.09 442.2 1406.44 441.8 1407.44 441C1408.44 440.167 1408.94 438.9 1408.94 437.2V435.8C1408.94 434.1 1408.44 432.85 1407.44 432.05C1406.44 431.217 1405.09 430.8 1403.39 430.8C1401.69 430.8 1400.34 431.217 1399.34 432.05C1398.34 432.85 1397.84 434.1 1397.84 435.8V437.2C1397.84 438.9 1398.34 440.167 1399.34 441C1400.34 441.8 1401.69 442.2 1403.39 442.2ZM1436.46 449.8H1436.26C1435.99 450.4 1435.66 451 1435.26 451.6C1434.89 452.167 1434.43 452.683 1433.86 453.15C1433.29 453.583 1432.61 453.933 1431.81 454.2C1431.01 454.467 1430.08 454.6 1429.01 454.6C1426.34 454.6 1424.23 453.75 1422.66 452.05C1421.09 450.317 1420.31 447.883 1420.31 444.75V428.2H1424.31V444.05C1424.31 448.683 1426.28 451 1430.21 451C1431.01 451 1431.78 450.9 1432.51 450.7C1433.28 450.5 1433.94 450.2 1434.51 449.8C1435.11 449.4 1435.58 448.9 1435.91 448.3C1436.28 447.667 1436.46 446.917 1436.46 446.05V428.2H1440.46V454H1436.46V449.8ZM1453.23 454C1451.83 454 1450.76 453.617 1450.03 452.85C1449.33 452.05 1448.98 451.05 1448.98 449.85V417H1452.98V450.5H1456.78V454H1453.23ZM1481.35 454C1479.85 454 1478.77 453.6 1478.1 452.8C1477.47 452 1477.07 451 1476.9 449.8H1476.65C1476.08 451.4 1475.15 452.6 1473.85 453.4C1472.55 454.2 1471 454.6 1469.2 454.6C1466.47 454.6 1464.33 453.9 1462.8 452.5C1461.3 451.1 1460.55 449.2 1460.55 446.8C1460.55 444.367 1461.43 442.5 1463.2 441.2C1465 439.9 1467.78 439.25 1471.55 439.25H1476.65V436.7C1476.65 434.867 1476.15 433.467 1475.15 432.5C1474.15 431.533 1472.62 431.05 1470.55 431.05C1468.98 431.05 1467.67 431.4 1466.6 432.1C1465.57 432.8 1464.7 433.733 1464 434.9L1461.6 432.65C1462.3 431.25 1463.42 430.067 1464.95 429.1C1466.48 428.1 1468.42 427.6 1470.75 427.6C1473.88 427.6 1476.32 428.367 1478.05 429.9C1479.78 431.433 1480.65 433.567 1480.65 436.3V450.5H1483.6V454H1481.35ZM1469.85 451.2C1470.85 451.2 1471.77 451.083 1472.6 450.85C1473.43 450.617 1474.15 450.283 1474.75 449.85C1475.35 449.417 1475.82 448.917 1476.15 448.35C1476.48 447.783 1476.65 447.167 1476.65 446.5V442.25H1471.35C1469.05 442.25 1467.37 442.583 1466.3 443.25C1465.27 443.917 1464.75 444.883 1464.75 446.15V447.2C1464.75 448.467 1465.2 449.45 1466.1 450.15C1467.03 450.85 1468.28 451.2 1469.85 451.2ZM1489.31 454V428.2H1493.31V432.95H1493.56C1494.03 431.717 1494.86 430.617 1496.06 429.65C1497.26 428.683 1498.91 428.2 1501.01 428.2H1502.56V432.2H1500.21C1498.04 432.2 1496.34 432.617 1495.11 433.45C1493.91 434.25 1493.31 435.267 1493.31 436.5V454H1489.31Z" fill="#262526"/>
<path d="M1256.42 862.8H1240.3L1239.36 875.644H1239.72C1240.14 874.916 1240.57 874.275 1241.02 873.72C1241.47 873.131 1241.99 872.628 1242.58 872.212C1243.17 871.796 1243.85 871.484 1244.61 871.276C1245.37 871.033 1246.28 870.912 1247.32 870.912C1248.88 870.912 1250.31 871.172 1251.63 871.692C1252.98 872.212 1254.15 872.957 1255.12 873.928C1256.12 874.899 1256.9 876.095 1257.46 877.516C1258.01 878.903 1258.29 880.48 1258.29 882.248C1258.29 884.051 1257.99 885.715 1257.4 887.24C1256.85 888.765 1256.02 890.083 1254.91 891.192C1253.8 892.267 1252.43 893.116 1250.8 893.74C1249.21 894.329 1247.39 894.624 1245.34 894.624C1243.71 894.624 1242.27 894.433 1241.02 894.052C1239.78 893.705 1238.67 893.237 1237.7 892.648C1236.76 892.024 1235.93 891.331 1235.2 890.568C1234.51 889.771 1233.88 888.956 1233.33 888.124L1237.59 884.744C1238.04 885.472 1238.51 886.131 1239 886.72C1239.48 887.309 1240.04 887.829 1240.66 888.28C1241.28 888.731 1241.98 889.077 1242.74 889.32C1243.54 889.563 1244.44 889.684 1245.44 889.684C1247.59 889.684 1249.24 889.095 1250.38 887.916C1251.56 886.737 1252.15 885.108 1252.15 883.028V882.404C1252.15 880.324 1251.56 878.695 1250.38 877.516C1249.24 876.337 1247.59 875.748 1245.44 875.748C1243.88 875.748 1242.64 876.043 1241.7 876.632C1240.76 877.221 1239.97 877.88 1239.31 878.608L1234.47 877.932L1235.82 857.704H1256.42V862.8ZM1289.31 894H1264.66V888.384L1276.26 878.036C1278.1 876.372 1279.5 874.795 1280.47 873.304C1281.48 871.779 1281.98 870.184 1281.98 868.52V867.844C1281.98 866.076 1281.44 864.689 1280.37 863.684C1279.33 862.679 1277.91 862.176 1276.1 862.176C1275.1 862.176 1274.21 862.332 1273.45 862.644C1272.72 862.921 1272.08 863.32 1271.53 863.84C1270.97 864.36 1270.51 864.967 1270.12 865.66C1269.78 866.353 1269.5 867.099 1269.29 867.896L1264.14 865.92C1264.53 864.776 1265.05 863.684 1265.7 862.644C1266.36 861.569 1267.19 860.616 1268.2 859.784C1269.21 858.952 1270.38 858.293 1271.74 857.808C1273.12 857.323 1274.73 857.08 1276.57 857.08C1278.41 857.08 1280.06 857.357 1281.51 857.912C1282.97 858.432 1284.18 859.177 1285.15 860.148C1286.16 861.084 1286.92 862.211 1287.44 863.528C1287.96 864.845 1288.22 866.284 1288.22 867.844C1288.22 869.3 1287.99 870.652 1287.54 871.9C1287.09 873.148 1286.47 874.327 1285.67 875.436C1284.87 876.545 1283.94 877.603 1282.86 878.608C1281.82 879.613 1280.71 880.636 1279.54 881.676L1271.01 889.008H1289.31V894ZM1296.42 866.96H1302.08V871.432H1302.34C1302.93 869.803 1303.89 868.555 1305.2 867.688C1306.56 866.787 1308.13 866.336 1309.94 866.336C1313.37 866.336 1316.02 867.584 1317.89 870.08C1319.76 872.541 1320.7 876.008 1320.7 880.48C1320.7 884.952 1319.76 888.436 1317.89 890.932C1316.02 893.393 1313.37 894.624 1309.94 894.624C1308.13 894.624 1306.56 894.173 1305.2 893.272C1303.89 892.371 1302.93 891.123 1302.34 889.528H1302.08V904.4H1296.42V866.96ZM1308.22 889.736C1310.2 889.736 1311.77 889.112 1312.95 887.864C1314.13 886.581 1314.72 884.9 1314.72 882.82V878.14C1314.72 876.06 1314.13 874.396 1312.95 873.148C1311.77 871.865 1310.2 871.224 1308.22 871.224C1306.49 871.224 1305.03 871.657 1303.85 872.524C1302.67 873.356 1302.08 874.465 1302.08 875.852V885.108C1302.08 886.495 1302.67 887.621 1303.85 888.488C1305.03 889.32 1306.49 889.736 1308.22 889.736ZM1323.46 894L1332.98 880.324L1323.72 866.96H1330.27L1336.36 876.372H1336.51L1342.75 866.96H1348.79L1339.53 880.272L1348.94 894H1342.39L1336.15 884.172H1335.99L1329.49 894H1323.46Z" fill="#262526"/>
<path d="M1000.8 330V325.4H1005.55V299.7H1000.8V295.1H1016V299.7H1011.2V325.4H1016V330H1000.8ZM1023.1 295.1H1038.55C1041.45 295.1 1043.72 295.917 1045.35 297.55C1047.02 299.183 1047.85 301.367 1047.85 304.1C1047.85 305.4 1047.67 306.517 1047.3 307.45C1046.93 308.35 1046.47 309.1 1045.9 309.7C1045.33 310.267 1044.68 310.7 1043.95 311C1043.22 311.267 1042.5 311.433 1041.8 311.5V311.8C1042.5 311.833 1043.27 312 1044.1 312.3C1044.97 312.6 1045.77 313.083 1046.5 313.75C1047.23 314.383 1047.85 315.217 1048.35 316.25C1048.85 317.25 1049.1 318.483 1049.1 319.95C1049.1 321.35 1048.87 322.667 1048.4 323.9C1047.97 325.133 1047.35 326.2 1046.55 327.1C1045.75 328 1044.8 328.717 1043.7 329.25C1042.6 329.75 1041.4 330 1040.1 330H1023.1V295.1ZM1028.75 325.15H1038.45C1039.92 325.15 1041.07 324.767 1041.9 324C1042.73 323.233 1043.15 322.133 1043.15 320.7V319C1043.15 317.567 1042.73 316.467 1041.9 315.7C1041.07 314.933 1039.92 314.55 1038.45 314.55H1028.75V325.15ZM1028.75 309.85H1037.5C1038.9 309.85 1039.98 309.5 1040.75 308.8C1041.52 308.067 1041.9 307.033 1041.9 305.7V304.1C1041.9 302.767 1041.52 301.75 1040.75 301.05C1039.98 300.317 1038.9 299.95 1037.5 299.95H1028.75V309.85ZM1082.76 303.3H1082.51L1079.76 308.95L1072.11 322.9L1064.46 308.95L1061.71 303.3H1061.46V330H1056.06V295.1H1062.76L1072.11 312.85H1072.41L1081.76 295.1H1088.16V330H1082.76V303.3ZM1108.6 330V295.1H1123.6C1126.83 295.1 1129.33 296.05 1131.1 297.95C1132.87 299.85 1133.75 302.4 1133.75 305.6C1133.75 308.8 1132.87 311.35 1131.1 313.25C1129.33 315.15 1126.83 316.1 1123.6 316.1H1114.25V330H1108.6ZM1114.25 311.15H1123.25C1124.68 311.15 1125.8 310.783 1126.6 310.05C1127.4 309.283 1127.8 308.2 1127.8 306.8V304.4C1127.8 303 1127.4 301.933 1126.6 301.2C1125.8 300.433 1124.68 300.05 1123.25 300.05H1114.25V311.15ZM1145.1 330C1143.23 330 1141.83 329.533 1140.9 328.6C1140 327.633 1139.55 326.3 1139.55 324.6V293H1145V325.55H1148.6V330H1145.1ZM1164 330.6C1162.14 330.6 1160.47 330.283 1159 329.65C1157.54 329.017 1156.29 328.117 1155.25 326.95C1154.22 325.75 1153.42 324.317 1152.85 322.65C1152.32 320.95 1152.05 319.067 1152.05 317C1152.05 314.933 1152.32 313.067 1152.85 311.4C1153.42 309.7 1154.22 308.267 1155.25 307.1C1156.29 305.9 1157.54 304.983 1159 304.35C1160.47 303.717 1162.14 303.4 1164 303.4C1165.9 303.4 1167.57 303.733 1169 304.4C1170.47 305.067 1171.69 306 1172.65 307.2C1173.62 308.367 1174.34 309.733 1174.8 311.3C1175.3 312.867 1175.55 314.55 1175.55 316.35V318.4H1157.7V319.25C1157.7 321.25 1158.29 322.9 1159.45 324.2C1160.65 325.467 1162.35 326.1 1164.55 326.1C1166.15 326.1 1167.5 325.75 1168.6 325.05C1169.7 324.35 1170.64 323.4 1171.4 322.2L1174.6 325.35C1173.64 326.95 1172.24 328.233 1170.4 329.2C1168.57 330.133 1166.44 330.6 1164 330.6ZM1164 307.65C1163.07 307.65 1162.2 307.817 1161.4 308.15C1160.64 308.483 1159.97 308.95 1159.4 309.55C1158.87 310.15 1158.45 310.867 1158.15 311.7C1157.85 312.533 1157.7 313.45 1157.7 314.45V314.8H1169.8V314.3C1169.8 312.3 1169.29 310.7 1168.25 309.5C1167.22 308.267 1165.8 307.65 1164 307.65ZM1178 330L1187.15 316.85L1178.25 304H1184.55L1190.4 313.05H1190.55L1196.55 304H1202.35L1193.45 316.8L1202.5 330H1196.2L1190.2 320.55H1190.05L1183.8 330H1178ZM1230.08 330.6C1227.15 330.6 1224.65 330.067 1222.58 329C1220.55 327.933 1218.8 326.5 1217.33 324.7L1221.23 321.05C1222.47 322.55 1223.82 323.683 1225.28 324.45C1226.78 325.217 1228.48 325.6 1230.38 325.6C1232.62 325.6 1234.3 325.1 1235.43 324.1C1236.57 323.1 1237.13 321.75 1237.13 320.05C1237.13 318.683 1236.73 317.6 1235.93 316.8C1235.13 316 1233.72 315.4 1231.68 315L1228.58 314.45C1225.18 313.817 1222.63 312.7 1220.93 311.1C1219.23 309.5 1218.38 307.3 1218.38 304.5C1218.38 302.967 1218.67 301.583 1219.23 300.35C1219.83 299.083 1220.65 298.033 1221.68 297.2C1222.75 296.333 1224.03 295.667 1225.53 295.2C1227.03 294.733 1228.72 294.5 1230.58 294.5C1233.22 294.5 1235.5 294.967 1237.43 295.9C1239.37 296.8 1241.02 298.117 1242.38 299.85L1238.43 303.35C1237.53 302.183 1236.43 301.25 1235.13 300.55C1233.83 299.85 1232.22 299.5 1230.28 299.5C1228.28 299.5 1226.73 299.9 1225.63 300.7C1224.53 301.5 1223.98 302.667 1223.98 304.2C1223.98 305.667 1224.43 306.767 1225.33 307.5C1226.23 308.2 1227.63 308.733 1229.53 309.1L1232.63 309.75C1236.13 310.417 1238.68 311.55 1240.28 313.15C1241.92 314.75 1242.73 316.95 1242.73 319.75C1242.73 321.383 1242.45 322.867 1241.88 324.2C1241.32 325.533 1240.48 326.683 1239.38 327.65C1238.32 328.583 1237 329.317 1235.43 329.85C1233.87 330.35 1232.08 330.6 1230.08 330.6ZM1268.17 330C1266.73 330 1265.63 329.6 1264.87 328.8C1264.1 327.967 1263.63 326.917 1263.47 325.65H1263.22C1262.72 327.283 1261.8 328.517 1260.47 329.35C1259.13 330.183 1257.52 330.6 1255.62 330.6C1252.92 330.6 1250.83 329.9 1249.37 328.5C1247.93 327.1 1247.22 325.217 1247.22 322.85C1247.22 320.25 1248.15 318.3 1250.02 317C1251.92 315.7 1254.68 315.05 1258.32 315.05H1263.02V312.85C1263.02 311.25 1262.58 310.017 1261.72 309.15C1260.85 308.283 1259.5 307.85 1257.67 307.85C1256.13 307.85 1254.88 308.183 1253.92 308.85C1252.95 309.517 1252.13 310.367 1251.47 311.4L1248.22 308.45C1249.08 306.983 1250.3 305.783 1251.87 304.85C1253.43 303.883 1255.48 303.4 1258.02 303.4C1261.38 303.4 1263.97 304.183 1265.77 305.75C1267.57 307.317 1268.47 309.567 1268.47 312.5V325.55H1271.22V330H1268.17ZM1257.17 326.45C1258.87 326.45 1260.27 326.083 1261.37 325.35C1262.47 324.583 1263.02 323.567 1263.02 322.3V318.55H1258.42C1254.65 318.55 1252.77 319.717 1252.77 322.05V322.95C1252.77 324.117 1253.15 325 1253.92 325.6C1254.72 326.167 1255.8 326.45 1257.17 326.45ZM1276.56 330V304H1282.01V308.3H1282.26C1282.82 306.9 1283.67 305.733 1284.81 304.8C1285.97 303.867 1287.56 303.4 1289.56 303.4C1292.22 303.4 1294.29 304.283 1295.76 306.05C1297.26 307.783 1298.01 310.267 1298.01 313.5V330H1292.56V314.2C1292.56 310.133 1290.92 308.1 1287.66 308.1C1286.96 308.1 1286.26 308.2 1285.56 308.4C1284.89 308.567 1284.29 308.833 1283.76 309.2C1283.22 309.567 1282.79 310.033 1282.46 310.6C1282.16 311.167 1282.01 311.833 1282.01 312.6V330H1276.56ZM1313.81 330.6C1311.35 330.6 1309.28 330.167 1307.61 329.3C1305.95 328.433 1304.5 327.233 1303.26 325.7L1306.76 322.5C1307.73 323.667 1308.8 324.583 1309.96 325.25C1311.16 325.883 1312.55 326.2 1314.11 326.2C1315.71 326.2 1316.9 325.9 1317.66 325.3C1318.46 324.667 1318.86 323.8 1318.86 322.7C1318.86 321.867 1318.58 321.167 1318.01 320.6C1317.48 320 1316.53 319.617 1315.16 319.45L1312.76 319.15C1310.1 318.817 1308 318.05 1306.46 316.85C1304.96 315.617 1304.21 313.8 1304.21 311.4C1304.21 310.133 1304.45 309.017 1304.91 308.05C1305.38 307.05 1306.03 306.217 1306.86 305.55C1307.73 304.85 1308.75 304.317 1309.91 303.95C1311.11 303.583 1312.43 303.4 1313.86 303.4C1316.2 303.4 1318.1 303.767 1319.56 304.5C1321.06 305.233 1322.4 306.25 1323.56 307.55L1320.21 310.75C1319.55 309.95 1318.66 309.267 1317.56 308.7C1316.5 308.1 1315.26 307.8 1313.86 307.8C1312.36 307.8 1311.25 308.1 1310.51 308.7C1309.81 309.3 1309.46 310.083 1309.46 311.05C1309.46 312.05 1309.78 312.8 1310.41 313.3C1311.05 313.8 1312.06 314.167 1313.46 314.4L1315.86 314.7C1318.73 315.133 1320.81 315.983 1322.11 317.25C1323.45 318.483 1324.11 320.15 1324.11 322.25C1324.11 323.517 1323.86 324.667 1323.36 325.7C1322.9 326.7 1322.21 327.567 1321.31 328.3C1320.41 329.033 1319.33 329.6 1318.06 330C1316.8 330.4 1315.38 330.6 1313.81 330.6ZM1369.19 303.3H1368.94L1366.19 308.95L1358.54 322.9L1350.89 308.95L1348.14 303.3H1347.89V330H1342.49V295.1H1349.19L1358.54 312.85H1358.84L1368.19 295.1H1374.59V330H1369.19V303.3ZM1393.01 330.6C1391.14 330.6 1389.47 330.283 1388.01 329.65C1386.54 329.017 1385.29 328.117 1384.26 326.95C1383.22 325.75 1382.42 324.317 1381.86 322.65C1381.32 320.95 1381.06 319.067 1381.06 317C1381.06 314.933 1381.32 313.067 1381.86 311.4C1382.42 309.7 1383.22 308.267 1384.26 307.1C1385.29 305.9 1386.54 304.983 1388.01 304.35C1389.47 303.717 1391.14 303.4 1393.01 303.4C1394.91 303.4 1396.57 303.733 1398.01 304.4C1399.47 305.067 1400.69 306 1401.66 307.2C1402.62 308.367 1403.34 309.733 1403.81 311.3C1404.31 312.867 1404.56 314.55 1404.56 316.35V318.4H1386.71V319.25C1386.71 321.25 1387.29 322.9 1388.46 324.2C1389.66 325.467 1391.36 326.1 1393.56 326.1C1395.16 326.1 1396.51 325.75 1397.61 325.05C1398.71 324.35 1399.64 323.4 1400.41 322.2L1403.61 325.35C1402.64 326.95 1401.24 328.233 1399.41 329.2C1397.57 330.133 1395.44 330.6 1393.01 330.6ZM1393.01 307.65C1392.07 307.65 1391.21 307.817 1390.41 308.15C1389.64 308.483 1388.97 308.95 1388.41 309.55C1387.87 310.15 1387.46 310.867 1387.16 311.7C1386.86 312.533 1386.71 313.45 1386.71 314.45V314.8H1398.81V314.3C1398.81 312.3 1398.29 310.7 1397.26 309.5C1396.22 308.267 1394.81 307.65 1393.01 307.65ZM1426.94 325.7H1426.69C1426.12 327.233 1425.19 328.433 1423.89 329.3C1422.62 330.167 1421.12 330.6 1419.39 330.6C1416.09 330.6 1413.54 329.417 1411.74 327.05C1409.94 324.65 1409.04 321.3 1409.04 317C1409.04 312.7 1409.94 309.367 1411.74 307C1413.54 304.6 1416.09 303.4 1419.39 303.4C1421.12 303.4 1422.62 303.833 1423.89 304.7C1425.19 305.533 1426.12 306.733 1426.69 308.3H1426.94V293H1432.39V330H1426.94V325.7ZM1421.04 325.9C1422.71 325.9 1424.11 325.5 1425.24 324.7C1426.37 323.867 1426.94 322.783 1426.94 321.45V312.55C1426.94 311.217 1426.37 310.15 1425.24 309.35C1424.11 308.517 1422.71 308.1 1421.04 308.1C1419.14 308.1 1417.62 308.717 1416.49 309.95C1415.36 311.15 1414.79 312.75 1414.79 314.75V319.25C1414.79 321.25 1415.36 322.867 1416.49 324.1C1417.62 325.3 1419.14 325.9 1421.04 325.9ZM1442.93 299.35C1441.8 299.35 1440.96 299.083 1440.43 298.55C1439.93 298.017 1439.68 297.333 1439.68 296.5V295.65C1439.68 294.817 1439.93 294.133 1440.43 293.6C1440.96 293.067 1441.8 292.8 1442.93 292.8C1444.06 292.8 1444.88 293.067 1445.38 293.6C1445.88 294.133 1446.13 294.817 1446.13 295.65V296.5C1446.13 297.333 1445.88 298.017 1445.38 298.55C1444.88 299.083 1444.06 299.35 1442.93 299.35ZM1440.18 304H1445.63V330H1440.18V304ZM1469.16 325.7H1468.96C1468.73 326.333 1468.41 326.95 1468.01 327.55C1467.65 328.15 1467.16 328.683 1466.56 329.15C1466 329.583 1465.3 329.933 1464.46 330.2C1463.66 330.467 1462.73 330.6 1461.66 330.6C1458.96 330.6 1456.86 329.733 1455.36 328C1453.9 326.267 1453.16 323.783 1453.16 320.55V304H1458.61V319.85C1458.61 323.883 1460.28 325.9 1463.61 325.9C1464.31 325.9 1465 325.817 1465.66 325.65C1466.33 325.45 1466.91 325.167 1467.41 324.8C1467.95 324.433 1468.36 323.967 1468.66 323.4C1469 322.833 1469.16 322.167 1469.16 321.4V304H1474.61V330H1469.16V325.7ZM1482.42 330V304H1487.87V308.3H1488.12C1488.38 307.633 1488.7 307 1489.07 306.4C1489.47 305.8 1489.93 305.283 1490.47 304.85C1491.03 304.383 1491.68 304.033 1492.42 303.8C1493.18 303.533 1494.07 303.4 1495.07 303.4C1496.83 303.4 1498.4 303.833 1499.77 304.7C1501.13 305.567 1502.13 306.9 1502.77 308.7H1502.92C1503.38 307.233 1504.28 305.983 1505.62 304.95C1506.95 303.917 1508.67 303.4 1510.77 303.4C1513.37 303.4 1515.38 304.283 1516.82 306.05C1518.25 307.783 1518.97 310.267 1518.97 313.5V330H1513.52V314.15C1513.52 312.15 1513.13 310.65 1512.37 309.65C1511.6 308.617 1510.38 308.1 1508.72 308.1C1508.02 308.1 1507.35 308.2 1506.72 308.4C1506.08 308.567 1505.52 308.833 1505.02 309.2C1504.55 309.567 1504.17 310.033 1503.87 310.6C1503.57 311.167 1503.42 311.817 1503.42 312.55V330H1497.97V314.15C1497.97 310.117 1496.38 308.1 1493.22 308.1C1492.55 308.1 1491.88 308.2 1491.22 308.4C1490.58 308.567 1490.02 308.833 1489.52 309.2C1489.02 309.567 1488.62 310.033 1488.32 310.6C1488.02 311.167 1487.87 311.817 1487.87 312.55V330H1482.42Z" fill="#262526"/>
<path d="M1001.15 578V575.5H1006.25V545.6H1001.15V543.1H1014.35V545.6H1009.25V575.5H1014.35V578H1001.15ZM1022.43 543.1H1036.08C1038.82 543.1 1040.95 543.883 1042.48 545.45C1044.05 546.983 1044.83 549.133 1044.83 551.9C1044.83 553.1 1044.67 554.15 1044.33 555.05C1044.03 555.95 1043.63 556.7 1043.13 557.3C1042.63 557.9 1042.05 558.383 1041.38 558.75C1040.75 559.117 1040.12 559.367 1039.48 559.5V559.7C1040.28 559.8 1041.08 560.05 1041.88 560.45C1042.68 560.817 1043.4 561.35 1044.03 562.05C1044.67 562.717 1045.18 563.567 1045.58 564.6C1045.98 565.6 1046.18 566.783 1046.18 568.15C1046.18 569.583 1045.97 570.9 1045.53 572.1C1045.13 573.3 1044.53 574.35 1043.73 575.25C1042.97 576.117 1042.03 576.8 1040.93 577.3C1039.87 577.767 1038.67 578 1037.33 578H1022.43V543.1ZM1025.43 575.35H1036.53C1038.63 575.35 1040.23 574.783 1041.33 573.65C1042.43 572.483 1042.98 570.983 1042.98 569.15V567.3C1042.98 565.5 1042.43 564.033 1041.33 562.9C1040.23 561.733 1038.63 561.15 1036.53 561.15H1025.43V575.35ZM1025.43 558.55H1035.78C1037.68 558.55 1039.13 558.05 1040.13 557.05C1041.13 556.017 1041.63 554.7 1041.63 553.1V551.2C1041.63 549.6 1041.13 548.3 1040.13 547.3C1039.13 546.267 1037.68 545.75 1035.78 545.75H1025.43V558.55ZM1081.72 546.95H1081.52L1069.47 568.3L1057.42 546.95H1057.22V578H1054.32V543.1H1058.42L1069.47 562.75H1069.62L1080.67 543.1H1084.62V578H1081.72V546.95ZM1106.32 578V543.1H1120.02C1123.05 543.1 1125.37 543.983 1126.97 545.75C1128.57 547.483 1129.37 549.85 1129.37 552.85C1129.37 555.883 1128.57 558.283 1126.97 560.05C1125.37 561.783 1123.05 562.65 1120.02 562.65H1109.32V578H1106.32ZM1109.32 560H1120.02C1122.02 560 1123.54 559.45 1124.57 558.35C1125.64 557.217 1126.17 555.783 1126.17 554.05V551.65C1126.17 549.95 1125.64 548.55 1124.57 547.45C1123.54 546.317 1122.02 545.75 1120.02 545.75H1109.32V560ZM1139.2 578C1138.17 578 1137.38 577.717 1136.85 577.15C1136.32 576.583 1136.05 575.833 1136.05 574.9V541H1138.9V575.5H1142.85V578H1139.2ZM1158.38 578.6C1156.68 578.6 1155.13 578.3 1153.73 577.7C1152.37 577.1 1151.18 576.233 1150.18 575.1C1149.22 573.933 1148.47 572.517 1147.93 570.85C1147.43 569.183 1147.18 567.3 1147.18 565.2C1147.18 563.1 1147.43 561.233 1147.93 559.6C1148.47 557.933 1149.22 556.533 1150.18 555.4C1151.18 554.233 1152.37 553.35 1153.73 552.75C1155.1 552.117 1156.63 551.8 1158.33 551.8C1159.97 551.8 1161.45 552.117 1162.78 552.75C1164.12 553.35 1165.25 554.2 1166.18 555.3C1167.12 556.4 1167.83 557.733 1168.33 559.3C1168.87 560.833 1169.13 562.533 1169.13 564.4V565.75H1150.18V567C1150.18 568.333 1150.37 569.567 1150.73 570.7C1151.13 571.8 1151.68 572.75 1152.38 573.55C1153.12 574.35 1154 574.983 1155.03 575.45C1156.07 575.883 1157.23 576.1 1158.53 576.1C1162.27 576.1 1164.85 574.383 1166.28 570.95L1168.38 572.35C1167.58 574.25 1166.32 575.767 1164.58 576.9C1162.88 578.033 1160.82 578.6 1158.38 578.6ZM1158.33 554.2C1157.1 554.2 1155.98 554.433 1154.98 554.9C1153.98 555.333 1153.12 555.95 1152.38 556.75C1151.68 557.55 1151.13 558.517 1150.73 559.65C1150.37 560.75 1150.18 561.967 1150.18 563.3V563.55H1166.03V563.15C1166.03 561.817 1165.85 560.6 1165.48 559.5C1165.12 558.367 1164.58 557.417 1163.88 556.65C1163.22 555.883 1162.4 555.283 1161.43 554.85C1160.5 554.417 1159.47 554.2 1158.33 554.2ZM1172.49 578L1181.99 565.1L1172.84 552.4H1176.19L1183.49 562.85H1183.64L1191.09 552.4H1194.29L1185.19 564.9L1194.54 578H1191.19L1183.64 567.2H1183.54L1175.69 578H1172.49ZM1221.87 578.6C1219 578.6 1216.6 578.067 1214.67 577C1212.77 575.9 1211.13 574.45 1209.77 572.65L1212.02 570.8C1213.25 572.433 1214.63 573.7 1216.17 574.6C1217.73 575.5 1219.67 575.95 1221.97 575.95C1224.67 575.95 1226.73 575.317 1228.17 574.05C1229.63 572.75 1230.37 570.95 1230.37 568.65C1230.37 566.517 1229.75 564.95 1228.52 563.95C1227.28 562.95 1225.55 562.217 1223.32 561.75L1220.22 561.1C1216.88 560.433 1214.47 559.317 1212.97 557.75C1211.47 556.183 1210.72 554.183 1210.72 551.75C1210.72 550.217 1210.98 548.883 1211.52 547.75C1212.05 546.583 1212.8 545.617 1213.77 544.85C1214.77 544.083 1215.95 543.5 1217.32 543.1C1218.72 542.7 1220.25 542.5 1221.92 542.5C1224.52 542.5 1226.72 542.967 1228.52 543.9C1230.32 544.833 1231.8 546.15 1232.97 547.85L1230.72 549.5C1229.75 548.1 1228.53 547.033 1227.07 546.3C1225.63 545.533 1223.87 545.15 1221.77 545.15C1219.27 545.15 1217.28 545.7 1215.82 546.8C1214.38 547.867 1213.67 549.483 1213.67 551.65C1213.67 553.717 1214.32 555.233 1215.62 556.2C1216.92 557.167 1218.65 557.867 1220.82 558.3L1223.92 558.95C1227.38 559.717 1229.82 560.9 1231.22 562.5C1232.62 564.1 1233.32 566.1 1233.32 568.5C1233.32 571.7 1232.3 574.183 1230.27 575.95C1228.23 577.717 1225.43 578.6 1221.87 578.6ZM1258.34 578C1257.24 578 1256.44 577.717 1255.94 577.15C1255.44 576.583 1255.15 575.817 1255.09 574.85V573.95H1254.84C1254.27 575.383 1253.34 576.517 1252.04 577.35C1250.74 578.183 1249.09 578.6 1247.09 578.6C1244.39 578.6 1242.3 577.95 1240.84 576.65C1239.37 575.317 1238.64 573.45 1238.64 571.05C1238.64 568.783 1239.44 566.983 1241.04 565.65C1242.67 564.317 1245.34 563.65 1249.04 563.65H1254.94V560.65C1254.94 556.417 1252.75 554.3 1248.39 554.3C1246.69 554.3 1245.27 554.667 1244.14 555.4C1243 556.1 1242.09 557.117 1241.39 558.45L1239.59 556.95C1240.29 555.45 1241.35 554.217 1242.79 553.25C1244.25 552.283 1246.15 551.8 1248.49 551.8C1251.49 551.8 1253.79 552.55 1255.39 554.05C1256.99 555.55 1257.79 557.65 1257.79 560.35V575.5H1261.24V578H1258.34ZM1247.49 576.15C1248.52 576.15 1249.49 576.017 1250.39 575.75C1251.29 575.483 1252.07 575.117 1252.74 574.65C1253.44 574.15 1253.97 573.567 1254.34 572.9C1254.74 572.2 1254.94 571.417 1254.94 570.55V565.8H1248.94C1246.37 565.8 1244.5 566.217 1243.34 567.05C1242.2 567.85 1241.64 568.967 1241.64 570.4V571.6C1241.64 573.1 1242.17 574.233 1243.24 575C1244.3 575.767 1245.72 576.15 1247.49 576.15ZM1267.1 578V552.4H1269.95V556.45H1270.1C1270.67 555.117 1271.55 554.017 1272.75 553.15C1273.95 552.25 1275.59 551.8 1277.65 551.8C1280.39 551.8 1282.5 552.65 1284 554.35C1285.54 556.017 1286.3 558.417 1286.3 561.55V578H1283.45V562.05C1283.45 559.45 1282.89 557.517 1281.75 556.25C1280.65 554.983 1279.04 554.35 1276.9 554.35C1276 554.35 1275.14 554.467 1274.3 554.7C1273.47 554.933 1272.72 555.283 1272.05 555.75C1271.42 556.217 1270.9 556.817 1270.5 557.55C1270.14 558.25 1269.95 559.067 1269.95 560V578H1267.1ZM1302.53 578.6C1300.29 578.6 1298.38 578.183 1296.78 577.35C1295.21 576.517 1293.84 575.3 1292.68 573.7L1294.78 572.05C1295.84 573.45 1297.01 574.483 1298.28 575.15C1299.54 575.817 1301.03 576.15 1302.73 576.15C1304.69 576.15 1306.21 575.733 1307.28 574.9C1308.34 574.067 1308.88 572.867 1308.88 571.3C1308.88 569.933 1308.46 568.867 1307.63 568.1C1306.83 567.3 1305.49 566.767 1303.63 566.5L1301.53 566.15C1300.36 565.983 1299.29 565.733 1298.33 565.4C1297.36 565.067 1296.53 564.617 1295.83 564.05C1295.16 563.483 1294.63 562.8 1294.23 562C1293.86 561.167 1293.68 560.167 1293.68 559C1293.68 557.8 1293.89 556.75 1294.33 555.85C1294.79 554.95 1295.41 554.2 1296.18 553.6C1296.94 553 1297.86 552.55 1298.93 552.25C1299.99 551.95 1301.14 551.8 1302.38 551.8C1304.51 551.8 1306.26 552.167 1307.63 552.9C1308.99 553.633 1310.16 554.583 1311.13 555.75L1309.23 557.5C1308.56 556.7 1307.66 555.967 1306.53 555.3C1305.43 554.6 1303.99 554.25 1302.23 554.25C1300.39 554.25 1298.96 554.65 1297.93 555.45C1296.93 556.25 1296.43 557.383 1296.43 558.85C1296.43 560.35 1296.88 561.433 1297.78 562.1C1298.71 562.767 1300.09 563.25 1301.93 563.55L1303.98 563.85C1306.58 564.25 1308.49 565.033 1309.73 566.2C1310.99 567.333 1311.63 568.933 1311.63 571C1311.63 573.4 1310.81 575.267 1309.18 576.6C1307.58 577.933 1305.36 578.6 1302.53 578.6ZM1331.22 578V543.1H1334.22V575.35H1349.62V578H1331.22ZM1356.88 545.45C1356.22 545.45 1355.72 545.283 1355.38 544.95C1355.08 544.617 1354.93 544.183 1354.93 543.65V543.15C1354.93 542.617 1355.08 542.183 1355.38 541.85C1355.72 541.517 1356.22 541.35 1356.88 541.35C1357.55 541.35 1358.03 541.517 1358.33 541.85C1358.67 542.183 1358.83 542.617 1358.83 543.15V543.65C1358.83 544.183 1358.67 544.617 1358.33 544.95C1358.03 545.283 1357.55 545.45 1356.88 545.45ZM1355.48 552.4H1358.33V578H1355.48V552.4ZM1388.64 581C1388.64 583.6 1387.59 585.517 1385.49 586.75C1383.42 587.983 1380.37 588.6 1376.34 588.6C1372.44 588.6 1369.62 588.033 1367.89 586.9C1366.16 585.767 1365.29 584.2 1365.29 582.2C1365.29 580.733 1365.67 579.567 1366.44 578.7C1367.21 577.833 1368.29 577.2 1369.69 576.8V576.4C1368.09 575.767 1367.29 574.6 1367.29 572.9C1367.29 571.633 1367.71 570.667 1368.54 570C1369.37 569.333 1370.41 568.833 1371.64 568.5V568.3C1370.14 567.633 1368.97 566.633 1368.14 565.3C1367.31 563.967 1366.89 562.367 1366.89 560.5C1366.89 559.2 1367.11 558.017 1367.54 556.95C1367.97 555.883 1368.59 554.967 1369.39 554.2C1370.22 553.433 1371.21 552.85 1372.34 552.45C1373.51 552.017 1374.79 551.8 1376.19 551.8C1378.16 551.8 1379.87 552.217 1381.34 553.05V551.8C1381.34 551.033 1381.52 550.417 1381.89 549.95C1382.26 549.45 1382.86 549.2 1383.69 549.2H1388.09V551.7H1382.89V554.15C1383.76 554.917 1384.42 555.85 1384.89 556.95C1385.36 558.017 1385.59 559.2 1385.59 560.5C1385.59 561.8 1385.36 562.983 1384.89 564.05C1384.46 565.117 1383.82 566.05 1382.99 566.85C1382.19 567.617 1381.21 568.217 1380.04 568.65C1378.91 569.05 1377.64 569.25 1376.24 569.25C1375.77 569.25 1375.32 569.217 1374.89 569.15C1374.46 569.083 1374.02 569.017 1373.59 568.95C1372.49 569.25 1371.57 569.667 1370.84 570.2C1370.14 570.7 1369.79 571.383 1369.79 572.25C1369.79 573.783 1371.16 574.55 1373.89 574.55H1379.84C1382.94 574.55 1385.17 575.133 1386.54 576.3C1387.94 577.433 1388.64 579 1388.64 581ZM1385.89 581.2C1385.89 579.967 1385.44 578.983 1384.54 578.25C1383.67 577.55 1382.11 577.2 1379.84 577.2H1371.54C1370.44 577.567 1369.57 578.117 1368.94 578.85C1368.31 579.583 1367.99 580.5 1367.99 581.6C1367.99 582.933 1368.54 584.033 1369.64 584.9C1370.74 585.8 1372.41 586.25 1374.64 586.25H1377.84C1380.34 586.25 1382.31 585.833 1383.74 585C1385.17 584.2 1385.89 582.933 1385.89 581.2ZM1376.24 566.95C1378.21 566.95 1379.74 566.467 1380.84 565.5C1381.97 564.5 1382.54 563.1 1382.54 561.3V559.7C1382.54 557.933 1381.97 556.567 1380.84 555.6C1379.74 554.6 1378.21 554.1 1376.24 554.1C1374.24 554.1 1372.69 554.6 1371.59 555.6C1370.49 556.567 1369.94 557.933 1369.94 559.7V561.3C1369.94 563.1 1370.49 564.5 1371.59 565.5C1372.72 566.467 1374.27 566.95 1376.24 566.95ZM1394.11 541H1396.96V556.45H1397.11C1397.67 555.117 1398.56 554.017 1399.76 553.15C1400.96 552.25 1402.59 551.8 1404.66 551.8C1407.39 551.8 1409.51 552.65 1411.01 554.35C1412.54 556.017 1413.31 558.417 1413.31 561.55V578H1410.46V562.05C1410.46 559.45 1409.89 557.517 1408.76 556.25C1407.66 554.983 1406.04 554.35 1403.91 554.35C1403.01 554.35 1402.14 554.467 1401.31 554.7C1400.47 554.933 1399.72 555.283 1399.06 555.75C1398.42 556.217 1397.91 556.817 1397.51 557.55C1397.14 558.25 1396.96 559.067 1396.96 560V578H1394.11V541ZM1426.68 578C1425.65 578 1424.86 577.717 1424.33 577.15C1423.8 576.583 1423.53 575.817 1423.53 574.85V554.9H1419.08V552.4H1421.98C1422.68 552.4 1423.15 552.267 1423.38 552C1423.65 551.7 1423.78 551.183 1423.78 550.45V545.25H1426.38V552.4H1432.18V554.9H1426.38V575.5H1431.78V578H1426.68Z" fill="#262526"/>
<line x1="866.5" y1="1015" x2="866.5" stroke="black"/>
<line x1="867" y1="715.5" x2="1653" y2="715.5" stroke="black"/>
</svg>
