<svg width="1440" height="838" viewBox="0 0 1440 838" fill="none" xmlns="http://www.w3.org/2000/svg">
<g clip-path="url(#clip0_1_1596)">
<rect width="1440" height="838" fill="#F7F6F0"/>
<rect y="419" width="360.086" height="419" fill="#E1C4C4"/>
<rect x="360.084" width="360.086" height="419" fill="#262526"/>
<rect x="1080.26" width="360.086" height="419" fill="#F8EDEB"/>
<rect x="720.171" width="360.086" height="419" fill="#F7F6F0"/>
<rect x="360.084" y="419" width="360.086" height="419" fill="#E2D5CA"/>
<rect x="1080.26" y="419" width="359.743" height="419" fill="#C8D2C9"/>
<rect x="720.171" y="419" width="360.086" height="419" fill="#C9BFA3"/>
<path d="M1230.88 189.248H1238.3C1239.69 189.248 1240.78 189.64 1241.56 190.424C1242.36 191.208 1242.76 192.256 1242.76 193.568C1242.76 194.192 1242.67 194.728 1242.5 195.176C1242.32 195.608 1242.1 195.968 1241.82 196.256C1241.55 196.528 1241.24 196.736 1240.89 196.88C1240.54 197.008 1240.19 197.088 1239.86 197.12V197.264C1240.19 197.28 1240.56 197.36 1240.96 197.504C1241.38 197.648 1241.76 197.88 1242.11 198.2C1242.46 198.504 1242.76 198.904 1243 199.4C1243.24 199.88 1243.36 200.472 1243.36 201.176C1243.36 201.848 1243.25 202.48 1243.02 203.072C1242.82 203.664 1242.52 204.176 1242.14 204.608C1241.75 205.04 1241.3 205.384 1240.77 205.64C1240.24 205.88 1239.66 206 1239.04 206H1230.88V189.248ZM1233.59 203.672H1238.25C1238.95 203.672 1239.5 203.488 1239.9 203.12C1240.3 202.752 1240.5 202.224 1240.5 201.536V200.72C1240.5 200.032 1240.3 199.504 1239.9 199.136C1239.5 198.768 1238.95 198.584 1238.25 198.584H1233.59V203.672ZM1233.59 196.328H1237.79C1238.46 196.328 1238.98 196.16 1239.35 195.824C1239.72 195.472 1239.9 194.976 1239.9 194.336V193.568C1239.9 192.928 1239.72 192.44 1239.35 192.104C1238.98 191.752 1238.46 191.576 1237.79 191.576H1233.59V196.328ZM1249.17 206C1248.28 206 1247.6 205.776 1247.16 205.328C1246.72 204.864 1246.51 204.224 1246.51 203.408V188.24H1249.12V203.864H1250.85V206H1249.17ZM1260.91 203.936H1260.82C1260.7 204.24 1260.55 204.536 1260.36 204.824C1260.18 205.112 1259.95 205.368 1259.66 205.592C1259.39 205.8 1259.06 205.968 1258.66 206.096C1258.27 206.224 1257.82 206.288 1257.31 206.288C1256.02 206.288 1255.01 205.872 1254.29 205.04C1253.58 204.208 1253.23 203.016 1253.23 201.464V193.52H1255.85V201.128C1255.85 203.064 1256.65 204.032 1258.25 204.032C1258.58 204.032 1258.91 203.992 1259.23 203.912C1259.55 203.816 1259.83 203.68 1260.07 203.504C1260.33 203.328 1260.53 203.104 1260.67 202.832C1260.83 202.56 1260.91 202.24 1260.91 201.872V193.52H1263.53V206H1260.91V203.936ZM1271.23 206.288C1270.05 206.288 1269.06 206.08 1268.26 205.664C1267.46 205.248 1266.76 204.672 1266.17 203.936L1267.85 202.4C1268.31 202.96 1268.83 203.4 1269.39 203.72C1269.96 204.024 1270.63 204.176 1271.38 204.176C1272.15 204.176 1272.71 204.032 1273.08 203.744C1273.47 203.44 1273.66 203.024 1273.66 202.496C1273.66 202.096 1273.52 201.76 1273.25 201.488C1272.99 201.2 1272.54 201.016 1271.88 200.936L1270.73 200.792C1269.45 200.632 1268.44 200.264 1267.71 199.688C1266.99 199.096 1266.63 198.224 1266.63 197.072C1266.63 196.464 1266.74 195.928 1266.96 195.464C1267.19 194.984 1267.5 194.584 1267.9 194.264C1268.31 193.928 1268.8 193.672 1269.36 193.496C1269.94 193.32 1270.57 193.232 1271.26 193.232C1272.38 193.232 1273.29 193.408 1273.99 193.76C1274.71 194.112 1275.35 194.6 1275.91 195.224L1274.31 196.76C1273.99 196.376 1273.56 196.048 1273.03 195.776C1272.52 195.488 1271.93 195.344 1271.26 195.344C1270.54 195.344 1270 195.488 1269.65 195.776C1269.31 196.064 1269.15 196.44 1269.15 196.904C1269.15 197.384 1269.3 197.744 1269.6 197.984C1269.91 198.224 1270.39 198.4 1271.07 198.512L1272.22 198.656C1273.59 198.864 1274.59 199.272 1275.22 199.88C1275.86 200.472 1276.18 201.272 1276.18 202.28C1276.18 202.888 1276.06 203.44 1275.82 203.936C1275.59 204.416 1275.27 204.832 1274.83 205.184C1274.4 205.536 1273.88 205.808 1273.27 206C1272.67 206.192 1271.99 206.288 1271.23 206.288ZM1279.13 188.24H1281.75V195.584H1281.87C1282.14 194.912 1282.55 194.352 1283.09 193.904C1283.65 193.456 1284.41 193.232 1285.37 193.232C1286.65 193.232 1287.65 193.656 1288.35 194.504C1289.07 195.336 1289.43 196.528 1289.43 198.08V206H1286.81V198.392C1286.81 196.456 1286.03 195.488 1284.46 195.488C1284.13 195.488 1283.79 195.536 1283.45 195.632C1283.13 195.712 1282.85 195.84 1282.59 196.016C1282.33 196.192 1282.13 196.416 1281.97 196.688C1281.82 196.96 1281.75 197.272 1281.75 197.624V206H1279.13V188.24ZM1218.14 236.936H1214.16L1213.27 242H1212.14L1213 236.936H1209.74V235.88H1213.2L1213.96 231.368H1210.68V230.312H1214.16L1215.02 225.248H1216.15L1215.28 230.312H1219.27L1220.13 225.248H1221.28L1220.4 230.312H1223.68V231.368H1220.2L1219.46 235.88H1222.75V236.936H1219.27L1218.4 242H1217.25L1218.14 236.936ZM1218.31 235.88L1219.08 231.368H1215.09L1214.32 235.88H1218.31ZM1227.64 242V225.248H1237.43V226.52H1229.08V232.856H1237.03V234.128H1229.08V240.728H1237.43V242H1227.64ZM1241.21 242V240.728H1246.1V226.304H1245.98L1241.37 230.408L1240.56 229.496L1245.33 225.248H1247.54V240.728H1252.15V242H1241.21ZM1261.48 242.288C1259.4 242.288 1257.79 241.568 1256.65 240.128C1255.52 238.672 1254.95 236.52 1254.95 233.672C1254.95 230.84 1255.52 228.68 1256.65 227.192C1257.79 225.704 1259.4 224.96 1261.48 224.96C1262.82 224.96 1263.95 225.28 1264.86 225.92C1265.79 226.56 1266.51 227.432 1267.02 228.536L1265.85 229.232C1265.48 228.32 1264.92 227.6 1264.17 227.072C1263.43 226.528 1262.53 226.256 1261.48 226.256C1259.91 226.256 1258.69 226.816 1257.81 227.936C1256.93 229.056 1256.49 230.656 1256.49 232.736V234.632C1256.49 236.696 1256.93 238.272 1257.81 239.36C1258.69 240.448 1259.91 240.992 1261.48 240.992C1262.6 240.992 1263.53 240.712 1264.29 240.152C1265.04 239.576 1265.6 238.808 1265.97 237.848L1267.14 238.544C1266.65 239.696 1265.92 240.608 1264.96 241.28C1264 241.952 1262.84 242.288 1261.48 242.288ZM1277.59 242V238.496H1269.26V237.224L1276.89 225.248H1278.95V237.296H1281.55V238.496H1278.95V242H1277.59ZM1270.6 237.296H1277.59V226.472H1277.51L1270.6 237.296ZM1290.68 242.288C1288.6 242.288 1286.99 241.568 1285.86 240.128C1284.72 238.672 1284.15 236.52 1284.15 233.672C1284.15 230.84 1284.72 228.68 1285.86 227.192C1286.99 225.704 1288.6 224.96 1290.68 224.96C1292.02 224.96 1293.15 225.28 1294.06 225.92C1294.99 226.56 1295.71 227.432 1296.22 228.536L1295.05 229.232C1294.68 228.32 1294.12 227.6 1293.37 227.072C1292.63 226.528 1291.74 226.256 1290.68 226.256C1289.11 226.256 1287.89 226.816 1287.01 227.936C1286.13 229.056 1285.69 230.656 1285.69 232.736V234.632C1285.69 236.696 1286.13 238.272 1287.01 239.36C1287.89 240.448 1289.11 240.992 1290.68 240.992C1291.8 240.992 1292.74 240.712 1293.49 240.152C1294.24 239.576 1294.8 238.808 1295.17 237.848L1296.34 238.544C1295.85 239.696 1295.12 240.608 1294.16 241.28C1293.2 241.952 1292.04 242.288 1290.68 242.288ZM1306.79 242V238.496H1298.46V237.224L1306.09 225.248H1308.16V237.296H1310.75V238.496H1308.16V242H1306.79ZM1299.81 237.296H1306.79V226.472H1306.72L1299.81 237.296Z" fill="#262526"/>
<path d="M872.293 206.288C870.101 206.288 868.381 205.552 867.133 204.08C865.885 202.592 865.261 200.44 865.261 197.624C865.261 196.216 865.421 194.976 865.741 193.904C866.061 192.832 866.525 191.928 867.133 191.192C867.741 190.456 868.477 189.904 869.341 189.536C870.221 189.152 871.205 188.96 872.293 188.96C873.749 188.96 874.965 189.28 875.941 189.92C876.933 190.56 877.709 191.504 878.269 192.752L875.989 194C875.701 193.2 875.253 192.568 874.645 192.104C874.053 191.624 873.269 191.384 872.293 191.384C870.997 191.384 869.981 191.824 869.245 192.704C868.509 193.584 868.141 194.8 868.141 196.352V198.896C868.141 200.448 868.509 201.664 869.245 202.544C869.981 203.424 870.997 203.864 872.293 203.864C873.301 203.864 874.117 203.608 874.741 203.096C875.381 202.568 875.853 201.896 876.157 201.08L878.341 202.4C877.781 203.616 876.997 204.568 875.989 205.256C874.981 205.944 873.749 206.288 872.293 206.288ZM881.024 206V193.52H883.64V195.92H883.76C883.936 195.28 884.304 194.72 884.864 194.24C885.424 193.76 886.2 193.52 887.192 193.52H887.888V196.04H886.856C885.816 196.04 885.016 196.208 884.456 196.544C883.912 196.88 883.64 197.376 883.64 198.032V206H881.024ZM894.991 206.288C894.095 206.288 893.295 206.136 892.591 205.832C891.887 205.528 891.287 205.096 890.791 204.536C890.295 203.96 889.911 203.272 889.639 202.472C889.383 201.656 889.255 200.752 889.255 199.76C889.255 198.768 889.383 197.872 889.639 197.072C889.911 196.256 890.295 195.568 890.791 195.008C891.287 194.432 891.887 193.992 892.591 193.688C893.295 193.384 894.095 193.232 894.991 193.232C895.903 193.232 896.703 193.392 897.391 193.712C898.095 194.032 898.679 194.48 899.143 195.056C899.607 195.616 899.951 196.272 900.175 197.024C900.415 197.776 900.535 198.584 900.535 199.448V200.432H891.967V200.84C891.967 201.8 892.247 202.592 892.807 203.216C893.383 203.824 894.199 204.128 895.255 204.128C896.023 204.128 896.671 203.96 897.199 203.624C897.727 203.288 898.175 202.832 898.543 202.256L900.079 203.768C899.615 204.536 898.943 205.152 898.063 205.616C897.183 206.064 896.159 206.288 894.991 206.288ZM894.991 195.272C894.543 195.272 894.127 195.352 893.743 195.512C893.375 195.672 893.055 195.896 892.783 196.184C892.527 196.472 892.327 196.816 892.183 197.216C892.039 197.616 891.967 198.056 891.967 198.536V198.704H897.775V198.464C897.775 197.504 897.527 196.736 897.031 196.16C896.535 195.568 895.855 195.272 894.991 195.272ZM903.431 206V193.52H906.047V195.584H906.167C906.295 195.264 906.447 194.96 906.623 194.672C906.815 194.384 907.039 194.136 907.295 193.928C907.567 193.704 907.879 193.536 908.231 193.424C908.599 193.296 909.023 193.232 909.503 193.232C910.351 193.232 911.103 193.44 911.759 193.856C912.415 194.272 912.895 194.912 913.199 195.776H913.271C913.495 195.072 913.927 194.472 914.567 193.976C915.207 193.48 916.031 193.232 917.039 193.232C918.287 193.232 919.255 193.656 919.943 194.504C920.631 195.336 920.975 196.528 920.975 198.08V206H918.359V198.392C918.359 197.432 918.175 196.712 917.807 196.232C917.439 195.736 916.855 195.488 916.055 195.488C915.719 195.488 915.399 195.536 915.095 195.632C914.791 195.712 914.519 195.84 914.279 196.016C914.055 196.192 913.871 196.416 913.727 196.688C913.583 196.96 913.511 197.272 913.511 197.624V206H910.895V198.392C910.895 196.456 910.135 195.488 908.615 195.488C908.295 195.488 907.975 195.536 907.655 195.632C907.351 195.712 907.079 195.84 906.839 196.016C906.599 196.192 906.407 196.416 906.263 196.688C906.119 196.96 906.047 197.272 906.047 197.624V206H903.431ZM929.491 206.288C928.595 206.288 927.795 206.136 927.091 205.832C926.387 205.528 925.787 205.096 925.291 204.536C924.795 203.96 924.411 203.272 924.139 202.472C923.883 201.656 923.755 200.752 923.755 199.76C923.755 198.768 923.883 197.872 924.139 197.072C924.411 196.256 924.795 195.568 925.291 195.008C925.787 194.432 926.387 193.992 927.091 193.688C927.795 193.384 928.595 193.232 929.491 193.232C930.403 193.232 931.203 193.392 931.891 193.712C932.595 194.032 933.179 194.48 933.643 195.056C934.107 195.616 934.451 196.272 934.675 197.024C934.915 197.776 935.035 198.584 935.035 199.448V200.432H926.467V200.84C926.467 201.8 926.747 202.592 927.307 203.216C927.883 203.824 928.699 204.128 929.755 204.128C930.523 204.128 931.171 203.96 931.699 203.624C932.227 203.288 932.675 202.832 933.043 202.256L934.579 203.768C934.115 204.536 933.443 205.152 932.563 205.616C931.683 206.064 930.659 206.288 929.491 206.288ZM929.491 195.272C929.043 195.272 928.627 195.352 928.243 195.512C927.875 195.672 927.555 195.896 927.283 196.184C927.027 196.472 926.827 196.816 926.683 197.216C926.539 197.616 926.467 198.056 926.467 198.536V198.704H932.275V198.464C932.275 197.504 932.027 196.736 931.531 196.16C931.035 195.568 930.355 195.272 929.491 195.272ZM860.05 236.936H856.066L855.178 242H854.05L854.914 236.936H851.65V235.88H855.106L855.874 231.368H852.586V230.312H856.066L856.93 225.248H858.058L857.194 230.312H861.178L862.042 225.248H863.194L862.306 230.312H865.594V231.368H862.114L861.37 235.88H864.658V236.936H861.178L860.314 242H859.162L860.05 236.936ZM860.218 235.88L860.986 231.368H857.002L856.234 235.88H860.218ZM869.552 242V225.248H879.128V226.52H870.992V232.856H878.576V234.128H870.992V242H869.552ZM884.691 242L891.411 226.496H883.395V229.952H882.099V225.248H892.875V226.52L886.227 242H884.691ZM897.138 242V225.248H906.714V226.52H898.578V232.856H906.162V234.128H898.578V242H897.138ZM915.181 242.288C914.285 242.288 913.501 242.144 912.829 241.856C912.157 241.552 911.589 241.136 911.125 240.608C910.677 240.064 910.333 239.416 910.093 238.664C909.869 237.896 909.757 237.056 909.757 236.144C909.757 234.848 909.933 233.648 910.285 232.544C910.653 231.424 911.125 230.408 911.701 229.496C912.277 228.584 912.933 227.776 913.669 227.072C914.421 226.352 915.181 225.744 915.949 225.248H917.845C916.917 225.888 916.093 226.528 915.373 227.168C914.653 227.808 914.021 228.488 913.477 229.208C912.933 229.912 912.477 230.672 912.109 231.488C911.757 232.304 911.477 233.2 911.269 234.176L911.365 234.2C911.781 233.448 912.325 232.856 912.997 232.424C913.685 231.976 914.533 231.752 915.541 231.752C916.277 231.752 916.949 231.872 917.557 232.112C918.181 232.352 918.709 232.696 919.141 233.144C919.589 233.576 919.933 234.112 920.173 234.752C920.413 235.376 920.533 236.08 920.533 236.864C920.533 237.68 920.405 238.424 920.149 239.096C919.893 239.752 919.533 240.32 919.069 240.8C918.605 241.264 918.045 241.632 917.389 241.904C916.733 242.16 915.997 242.288 915.181 242.288ZM915.157 241.04C916.373 241.04 917.325 240.696 918.013 240.008C918.701 239.304 919.045 238.368 919.045 237.2V236.792C919.045 235.624 918.701 234.696 918.013 234.008C917.341 233.32 916.389 232.976 915.157 232.976C913.909 232.976 912.941 233.32 912.253 234.008C911.581 234.696 911.245 235.624 911.245 236.792V237.176C911.245 238.36 911.589 239.304 912.277 240.008C912.965 240.696 913.925 241.04 915.157 241.04ZM924.724 242V225.248H934.3V226.52H926.164V232.856H933.748V234.128H926.164V242H924.724ZM942.743 242.288C938.967 242.288 937.079 239.4 937.079 233.624C937.079 227.848 938.967 224.96 942.743 224.96C946.519 224.96 948.407 227.848 948.407 233.624C948.407 239.4 946.519 242.288 942.743 242.288ZM942.743 241.04C944.151 241.04 945.191 240.48 945.863 239.36C946.551 238.24 946.895 236.704 946.895 234.752V232.496C946.895 230.544 946.551 229.008 945.863 227.888C945.191 226.768 944.151 226.208 942.743 226.208C941.319 226.208 940.271 226.768 939.599 227.888C938.927 229.008 938.591 230.544 938.591 232.496V234.752C938.591 236.704 938.927 238.24 939.599 239.36C940.271 240.48 941.319 241.04 942.743 241.04Z" fill="#262526"/>
<path d="M511.146 626V609.248H513.858V623.6H520.674V626H511.146ZM524.579 611.288C524.035 611.288 523.635 611.16 523.379 610.904C523.139 610.648 523.019 610.32 523.019 609.92V609.512C523.019 609.112 523.139 608.784 523.379 608.528C523.635 608.272 524.035 608.144 524.579 608.144C525.123 608.144 525.515 608.272 525.755 608.528C525.995 608.784 526.115 609.112 526.115 609.512V609.92C526.115 610.32 525.995 610.648 525.755 610.904C525.515 611.16 525.123 611.288 524.579 611.288ZM523.259 613.52H525.875V626H523.259V613.52ZM529.61 626V613.52H532.226V615.584H532.346C532.618 614.912 533.026 614.352 533.57 613.904C534.13 613.456 534.89 613.232 535.85 613.232C537.13 613.232 538.122 613.656 538.826 614.504C539.546 615.336 539.906 616.528 539.906 618.08V626H537.29V618.416C537.29 616.464 536.506 615.488 534.938 615.488C534.602 615.488 534.266 615.536 533.93 615.632C533.61 615.712 533.322 615.84 533.066 616.016C532.81 616.192 532.602 616.416 532.442 616.688C532.298 616.96 532.226 617.28 532.226 617.648V626H529.61ZM548.428 626.288C547.532 626.288 546.732 626.136 546.028 625.832C545.324 625.528 544.724 625.096 544.228 624.536C543.732 623.96 543.348 623.272 543.076 622.472C542.82 621.656 542.692 620.752 542.692 619.76C542.692 618.768 542.82 617.872 543.076 617.072C543.348 616.256 543.732 615.568 544.228 615.008C544.724 614.432 545.324 613.992 546.028 613.688C546.732 613.384 547.532 613.232 548.428 613.232C549.34 613.232 550.14 613.392 550.828 613.712C551.532 614.032 552.116 614.48 552.58 615.056C553.044 615.616 553.388 616.272 553.612 617.024C553.852 617.776 553.972 618.584 553.972 619.448V620.432H545.404V620.84C545.404 621.8 545.684 622.592 546.244 623.216C546.82 623.824 547.636 624.128 548.692 624.128C549.46 624.128 550.108 623.96 550.636 623.624C551.164 623.288 551.612 622.832 551.98 622.256L553.516 623.768C553.052 624.536 552.38 625.152 551.5 625.616C550.62 626.064 549.596 626.288 548.428 626.288ZM548.428 615.272C547.98 615.272 547.564 615.352 547.18 615.512C546.812 615.672 546.492 615.896 546.22 616.184C545.964 616.472 545.764 616.816 545.62 617.216C545.476 617.616 545.404 618.056 545.404 618.536V618.704H551.212V618.464C551.212 617.504 550.964 616.736 550.468 616.16C549.972 615.568 549.292 615.272 548.428 615.272ZM556.868 626V613.52H559.484V615.584H559.604C559.876 614.912 560.284 614.352 560.828 613.904C561.388 613.456 562.148 613.232 563.108 613.232C564.388 613.232 565.38 613.656 566.084 614.504C566.804 615.336 567.164 616.528 567.164 618.08V626H564.548V618.416C564.548 616.464 563.764 615.488 562.196 615.488C561.86 615.488 561.524 615.536 561.188 615.632C560.868 615.712 560.58 615.84 560.324 616.016C560.068 616.192 559.86 616.416 559.7 616.688C559.556 616.96 559.484 617.28 559.484 617.648V626H556.868ZM496.273 656.936H492.289L491.401 662H490.273L491.137 656.936H487.873V655.88H491.329L492.097 651.368H488.809V650.312H492.289L493.153 645.248H494.281L493.417 650.312H497.401L498.265 645.248H499.417L498.529 650.312H501.817V651.368H498.337L497.593 655.88H500.881V656.936H497.401L496.537 662H495.385L496.273 656.936ZM496.441 655.88L497.209 651.368H493.225L492.457 655.88H496.441ZM505.774 662V645.248H515.566V646.52H507.214V652.856H515.158V654.128H507.214V660.728H515.566V662H505.774ZM529.852 662H519.1V660.536L524.956 654.92C525.74 654.152 526.38 653.368 526.876 652.568C527.372 651.752 527.62 650.92 527.62 650.072V649.616C527.62 648.624 527.332 647.816 526.756 647.192C526.18 646.568 525.316 646.256 524.164 646.256C523.044 646.256 522.188 646.536 521.596 647.096C521.004 647.656 520.572 648.384 520.3 649.28L519.004 648.8C519.164 648.288 519.38 647.8 519.652 647.336C519.924 646.872 520.268 646.464 520.684 646.112C521.116 645.76 521.62 645.48 522.196 645.272C522.772 645.064 523.444 644.96 524.212 644.96C524.996 644.96 525.692 645.08 526.3 645.32C526.924 645.544 527.444 645.864 527.86 646.28C528.292 646.696 528.612 647.2 528.82 647.792C529.044 648.368 529.156 649.016 529.156 649.736C529.156 650.344 529.076 650.92 528.916 651.464C528.756 651.992 528.532 652.504 528.244 653C527.956 653.48 527.604 653.96 527.188 654.44C526.772 654.904 526.316 655.368 525.82 655.832L520.66 660.728H529.852V662ZM533.946 645.248H539.274C541.434 645.248 543.098 645.944 544.266 647.336C545.45 648.728 546.042 650.824 546.042 653.624C546.042 656.424 545.45 658.52 544.266 659.912C543.098 661.304 541.434 662 539.274 662H533.946V645.248ZM539.298 660.728C540.946 660.728 542.226 660.2 543.138 659.144C544.05 658.072 544.506 656.6 544.506 654.728V652.52C544.506 650.648 544.05 649.184 543.138 648.128C542.226 647.056 540.946 646.52 539.298 646.52H535.386V660.728H539.298ZM559.339 646.52H551.851L551.323 653.528L551.467 653.552C551.883 652.96 552.371 652.52 552.931 652.232C553.491 651.928 554.219 651.776 555.115 651.776C555.851 651.776 556.523 651.896 557.131 652.136C557.739 652.36 558.259 652.696 558.691 653.144C559.123 653.576 559.451 654.112 559.675 654.752C559.915 655.376 560.035 656.088 560.035 656.888C560.035 657.704 559.907 658.448 559.651 659.12C559.411 659.776 559.059 660.344 558.595 660.824C558.131 661.288 557.563 661.648 556.891 661.904C556.235 662.16 555.491 662.288 554.659 662.288C554.003 662.288 553.411 662.216 552.883 662.072C552.355 661.944 551.883 661.76 551.467 661.52C551.051 661.264 550.675 660.968 550.339 660.632C550.019 660.296 549.731 659.936 549.475 659.552L550.555 658.736C551.019 659.456 551.555 660.016 552.163 660.416C552.787 660.8 553.619 660.992 554.659 660.992C555.907 660.992 556.859 660.656 557.515 659.984C558.187 659.296 558.523 658.368 558.523 657.2V656.792C558.523 655.624 558.195 654.704 557.539 654.032C556.899 653.344 555.963 653 554.731 653C554.299 653 553.915 653.04 553.579 653.12C553.243 653.184 552.939 653.288 552.667 653.432C552.411 653.56 552.171 653.72 551.947 653.912C551.739 654.088 551.531 654.296 551.323 654.536L550.075 654.344L550.675 645.248H559.339V646.52ZM569.985 662.288C567.905 662.288 566.297 661.568 565.161 660.128C564.025 658.672 563.457 656.52 563.457 653.672C563.457 650.84 564.025 648.68 565.161 647.192C566.297 645.704 567.905 644.96 569.985 644.96C571.329 644.96 572.457 645.28 573.369 645.92C574.297 646.56 575.017 647.432 575.529 648.536L574.353 649.232C573.985 648.32 573.425 647.6 572.673 647.072C571.937 646.528 571.041 646.256 569.985 646.256C568.417 646.256 567.193 646.816 566.313 647.936C565.433 649.056 564.993 650.656 564.993 652.736V654.632C564.993 656.696 565.433 658.272 566.313 659.36C567.193 660.448 568.417 660.992 569.985 660.992C571.105 660.992 572.041 660.712 572.793 660.152C573.545 659.576 574.105 658.808 574.473 657.848L575.649 658.544C575.153 659.696 574.425 660.608 573.465 661.28C572.505 661.952 571.345 662.288 569.985 662.288ZM589.575 662L587.751 656.792H580.623L578.799 662H577.359L583.287 645.248H585.135L591.087 662H589.575ZM584.223 646.616H584.127L580.983 655.544H587.367L584.223 646.616Z" fill="#262526"/>
<path d="M1203.84 626.288C1201.64 626.288 1199.92 625.552 1198.68 624.08C1197.43 622.592 1196.8 620.44 1196.8 617.624C1196.8 616.216 1196.96 614.976 1197.28 613.904C1197.6 612.832 1198.07 611.928 1198.68 611.192C1199.28 610.456 1200.02 609.904 1200.88 609.536C1201.76 609.152 1202.75 608.96 1203.84 608.96C1205.29 608.96 1206.51 609.28 1207.48 609.92C1208.48 610.56 1209.25 611.504 1209.81 612.752L1207.53 614C1207.24 613.2 1206.8 612.568 1206.19 612.104C1205.6 611.624 1204.81 611.384 1203.84 611.384C1202.54 611.384 1201.52 611.824 1200.79 612.704C1200.05 613.584 1199.68 614.8 1199.68 616.352V618.896C1199.68 620.448 1200.05 621.664 1200.79 622.544C1201.52 623.424 1202.54 623.864 1203.84 623.864C1204.84 623.864 1205.66 623.608 1206.28 623.096C1206.92 622.568 1207.4 621.896 1207.7 621.08L1209.88 622.4C1209.32 623.616 1208.54 624.568 1207.53 625.256C1206.52 625.944 1205.29 626.288 1203.84 626.288ZM1217.46 626.288C1216.6 626.288 1215.81 626.136 1215.09 625.832C1214.38 625.528 1213.78 625.096 1213.29 624.536C1212.79 623.96 1212.41 623.272 1212.14 622.472C1211.86 621.656 1211.73 620.752 1211.73 619.76C1211.73 618.768 1211.86 617.872 1212.14 617.072C1212.41 616.256 1212.79 615.568 1213.29 615.008C1213.78 614.432 1214.38 613.992 1215.09 613.688C1215.81 613.384 1216.6 613.232 1217.46 613.232C1218.33 613.232 1219.11 613.384 1219.82 613.688C1220.54 613.992 1221.14 614.432 1221.64 615.008C1222.14 615.568 1222.52 616.256 1222.79 617.072C1223.06 617.872 1223.2 618.768 1223.2 619.76C1223.2 620.752 1223.06 621.656 1222.79 622.472C1222.52 623.272 1222.14 623.96 1221.64 624.536C1221.14 625.096 1220.54 625.528 1219.82 625.832C1219.11 626.136 1218.33 626.288 1217.46 626.288ZM1217.46 624.128C1218.36 624.128 1219.08 623.856 1219.62 623.312C1220.17 622.752 1220.44 621.92 1220.44 620.816V618.704C1220.44 617.6 1220.17 616.776 1219.62 616.232C1219.08 615.672 1218.36 615.392 1217.46 615.392C1216.57 615.392 1215.85 615.672 1215.3 616.232C1214.76 616.776 1214.49 617.6 1214.49 618.704V620.816C1214.49 621.92 1214.76 622.752 1215.3 623.312C1215.85 623.856 1216.57 624.128 1217.46 624.128ZM1226.11 626V613.52H1228.73V615.92H1228.85C1229.03 615.28 1229.39 614.72 1229.95 614.24C1230.51 613.76 1231.29 613.52 1232.28 613.52H1232.98V616.04H1231.95C1230.91 616.04 1230.11 616.208 1229.55 616.544C1229 616.88 1228.73 617.376 1228.73 618.032V626H1226.11ZM1244.26 626C1243.57 626 1243.04 625.808 1242.67 625.424C1242.31 625.024 1242.08 624.52 1242 623.912H1241.88C1241.64 624.696 1241.2 625.288 1240.56 625.688C1239.92 626.088 1239.15 626.288 1238.23 626.288C1236.94 626.288 1235.94 625.952 1235.23 625.28C1234.55 624.608 1234.2 623.704 1234.2 622.568C1234.2 621.32 1234.65 620.384 1235.55 619.76C1236.46 619.136 1237.79 618.824 1239.53 618.824H1241.79V617.768C1241.79 617 1241.58 616.408 1241.16 615.992C1240.75 615.576 1240.1 615.368 1239.22 615.368C1238.48 615.368 1237.88 615.528 1237.42 615.848C1236.95 616.168 1236.56 616.576 1236.24 617.072L1234.68 615.656C1235.1 614.952 1235.68 614.376 1236.43 613.928C1237.19 613.464 1238.17 613.232 1239.39 613.232C1241 613.232 1242.24 613.608 1243.11 614.36C1243.97 615.112 1244.4 616.192 1244.4 617.6V623.864H1245.72V626H1244.26ZM1238.98 624.296C1239.79 624.296 1240.47 624.12 1240.99 623.768C1241.52 623.4 1241.79 622.912 1241.79 622.304V620.504H1239.58C1237.77 620.504 1236.87 621.064 1236.87 622.184V622.616C1236.87 623.176 1237.05 623.6 1237.42 623.888C1237.8 624.16 1238.32 624.296 1238.98 624.296ZM1250.95 626C1250.05 626 1249.38 625.776 1248.93 625.328C1248.5 624.864 1248.29 624.224 1248.29 623.408V608.24H1250.9V623.864H1252.63V626H1250.95ZM1271.77 623.456H1271.67C1271.5 624.272 1271.02 624.952 1270.23 625.496C1269.47 626.024 1268.44 626.288 1267.16 626.288C1266.17 626.288 1265.25 626.104 1264.4 625.736C1263.55 625.352 1262.82 624.8 1262.19 624.08C1261.59 623.344 1261.11 622.44 1260.75 621.368C1260.42 620.28 1260.25 619.032 1260.25 617.624C1260.25 616.232 1260.43 615 1260.78 613.928C1261.13 612.84 1261.63 611.928 1262.27 611.192C1262.91 610.456 1263.67 609.904 1264.57 609.536C1265.47 609.152 1266.47 608.96 1267.57 608.96C1269.07 608.96 1270.35 609.296 1271.39 609.968C1272.43 610.624 1273.23 611.544 1273.81 612.728L1271.6 614.024C1271.28 613.24 1270.79 612.608 1270.11 612.128C1269.44 611.632 1268.59 611.384 1267.57 611.384C1266.24 611.384 1265.17 611.808 1264.35 612.656C1263.55 613.504 1263.15 614.704 1263.15 616.256V618.992C1263.15 620.544 1263.55 621.744 1264.35 622.592C1265.17 623.44 1266.24 623.864 1267.57 623.864C1268.1 623.864 1268.6 623.8 1269.08 623.672C1269.56 623.528 1269.98 623.328 1270.33 623.072C1270.7 622.8 1270.99 622.472 1271.19 622.088C1271.42 621.688 1271.53 621.224 1271.53 620.696V619.4H1268.07V617.072H1274.15V626H1271.77V623.456ZM1277.72 626V613.52H1280.34V615.92H1280.46C1280.64 615.28 1281 614.72 1281.56 614.24C1282.12 613.76 1282.9 613.52 1283.89 613.52H1284.59V616.04H1283.56C1282.52 616.04 1281.72 616.208 1281.16 616.544C1280.61 616.88 1280.34 617.376 1280.34 618.032V626H1277.72ZM1291.69 626.288C1290.79 626.288 1289.99 626.136 1289.29 625.832C1288.59 625.528 1287.99 625.096 1287.49 624.536C1286.99 623.96 1286.61 623.272 1286.34 622.472C1286.08 621.656 1285.95 620.752 1285.95 619.76C1285.95 618.768 1286.08 617.872 1286.34 617.072C1286.61 616.256 1286.99 615.568 1287.49 615.008C1287.99 614.432 1288.59 613.992 1289.29 613.688C1289.99 613.384 1290.79 613.232 1291.69 613.232C1292.6 613.232 1293.4 613.392 1294.09 613.712C1294.79 614.032 1295.38 614.48 1295.84 615.056C1296.31 615.616 1296.65 616.272 1296.87 617.024C1297.11 617.776 1297.23 618.584 1297.23 619.448V620.432H1288.67V620.84C1288.67 621.8 1288.95 622.592 1289.51 623.216C1290.08 623.824 1290.9 624.128 1291.95 624.128C1292.72 624.128 1293.37 623.96 1293.9 623.624C1294.43 623.288 1294.87 622.832 1295.24 622.256L1296.78 623.768C1296.31 624.536 1295.64 625.152 1294.76 625.616C1293.88 626.064 1292.86 626.288 1291.69 626.288ZM1291.69 615.272C1291.24 615.272 1290.83 615.352 1290.44 615.512C1290.07 615.672 1289.75 615.896 1289.48 616.184C1289.23 616.472 1289.03 616.816 1288.88 617.216C1288.74 617.616 1288.67 618.056 1288.67 618.536V618.704H1294.47V618.464C1294.47 617.504 1294.23 616.736 1293.73 616.16C1293.23 615.568 1292.55 615.272 1291.69 615.272ZM1305.03 626.288C1304.13 626.288 1303.33 626.136 1302.63 625.832C1301.92 625.528 1301.32 625.096 1300.83 624.536C1300.33 623.96 1299.95 623.272 1299.67 622.472C1299.42 621.656 1299.29 620.752 1299.29 619.76C1299.29 618.768 1299.42 617.872 1299.67 617.072C1299.95 616.256 1300.33 615.568 1300.83 615.008C1301.32 614.432 1301.92 613.992 1302.63 613.688C1303.33 613.384 1304.13 613.232 1305.03 613.232C1305.94 613.232 1306.74 613.392 1307.43 613.712C1308.13 614.032 1308.71 614.48 1309.18 615.056C1309.64 615.616 1309.99 616.272 1310.21 617.024C1310.45 617.776 1310.57 618.584 1310.57 619.448V620.432H1302V620.84C1302 621.8 1302.28 622.592 1302.84 623.216C1303.42 623.824 1304.23 624.128 1305.29 624.128C1306.06 624.128 1306.71 623.96 1307.23 623.624C1307.76 623.288 1308.21 622.832 1308.58 622.256L1310.11 623.768C1309.65 624.536 1308.98 625.152 1308.1 625.616C1307.22 626.064 1306.19 626.288 1305.03 626.288ZM1305.03 615.272C1304.58 615.272 1304.16 615.352 1303.78 615.512C1303.41 615.672 1303.09 615.896 1302.82 616.184C1302.56 616.472 1302.36 616.816 1302.22 617.216C1302.07 617.616 1302 618.056 1302 618.536V618.704H1307.81V618.464C1307.81 617.504 1307.56 616.736 1307.07 616.16C1306.57 615.568 1305.89 615.272 1305.03 615.272ZM1313.47 626V613.52H1316.08V615.584H1316.2C1316.47 614.912 1316.88 614.352 1317.43 613.904C1317.99 613.456 1318.75 613.232 1319.71 613.232C1320.99 613.232 1321.98 613.656 1322.68 614.504C1323.4 615.336 1323.76 616.528 1323.76 618.08V626H1321.15V618.416C1321.15 616.464 1320.36 615.488 1318.79 615.488C1318.46 615.488 1318.12 615.536 1317.79 615.632C1317.47 615.712 1317.18 615.84 1316.92 616.016C1316.67 616.192 1316.46 616.416 1316.3 616.688C1316.15 616.96 1316.08 617.28 1316.08 617.648V626H1313.47ZM1217.54 656.936H1213.55L1212.67 662H1211.54L1212.4 656.936H1209.14V655.88H1212.59L1213.36 651.368H1210.07V650.312H1213.55L1214.42 645.248H1215.55L1214.68 650.312H1218.67L1219.53 645.248H1220.68L1219.79 650.312H1223.08V651.368H1219.6L1218.86 655.88H1222.15V656.936H1218.67L1217.8 662H1216.65L1217.54 656.936ZM1217.71 655.88L1218.47 651.368H1214.49L1213.72 655.88H1217.71ZM1232.7 662.288C1230.62 662.288 1229.02 661.568 1227.88 660.128C1226.74 658.672 1226.18 656.52 1226.18 653.672C1226.18 650.84 1226.74 648.68 1227.88 647.192C1229.02 645.704 1230.62 644.96 1232.7 644.96C1234.05 644.96 1235.18 645.28 1236.09 645.92C1237.02 646.56 1237.74 647.432 1238.25 648.536L1237.07 649.232C1236.7 648.32 1236.14 647.6 1235.39 647.072C1234.66 646.528 1233.76 646.256 1232.7 646.256C1231.14 646.256 1229.91 646.816 1229.03 647.936C1228.15 649.056 1227.71 650.656 1227.71 652.736V654.632C1227.71 656.696 1228.15 658.272 1229.03 659.36C1229.91 660.448 1231.14 660.992 1232.7 660.992C1233.82 660.992 1234.76 660.712 1235.51 660.152C1236.26 659.576 1236.82 658.808 1237.19 657.848L1238.37 658.544C1237.87 659.696 1237.14 660.608 1236.18 661.28C1235.22 661.952 1234.06 662.288 1232.7 662.288ZM1246.68 662.288C1245.76 662.288 1244.96 662.168 1244.25 661.928C1243.55 661.688 1242.95 661.36 1242.45 660.944C1241.97 660.528 1241.6 660.032 1241.35 659.456C1241.11 658.864 1240.99 658.224 1240.99 657.536C1240.99 656.368 1241.31 655.432 1241.95 654.728C1242.59 654.008 1243.44 653.528 1244.52 653.288V653.12C1243.6 652.864 1242.88 652.392 1242.33 651.704C1241.8 651.016 1241.54 650.168 1241.54 649.16C1241.54 647.88 1241.99 646.864 1242.88 646.112C1243.8 645.344 1245.06 644.96 1246.68 644.96C1248.29 644.96 1249.55 645.344 1250.44 646.112C1251.36 646.864 1251.81 647.88 1251.81 649.16C1251.81 650.168 1251.54 651.016 1251 651.704C1250.47 652.392 1249.75 652.864 1248.84 653.12V653.288C1249.91 653.528 1250.76 654.008 1251.4 654.728C1252.04 655.432 1252.36 656.368 1252.36 657.536C1252.36 658.224 1252.24 658.864 1251.98 659.456C1251.74 660.032 1251.37 660.528 1250.88 660.944C1250.4 661.36 1249.8 661.688 1249.1 661.928C1248.4 662.168 1247.59 662.288 1246.68 662.288ZM1246.68 661.04C1247.97 661.04 1248.99 660.744 1249.72 660.152C1250.46 659.544 1250.83 658.728 1250.83 657.704V657.152C1250.83 656.112 1250.46 655.296 1249.72 654.704C1248.99 654.112 1247.97 653.816 1246.68 653.816C1245.38 653.816 1244.36 654.112 1243.63 654.704C1242.89 655.296 1242.52 656.112 1242.52 657.152V657.704C1242.52 658.728 1242.89 659.544 1243.63 660.152C1244.36 660.744 1245.38 661.04 1246.68 661.04ZM1246.68 652.592C1247.83 652.592 1248.72 652.336 1249.36 651.824C1250 651.296 1250.32 650.56 1250.32 649.616V649.184C1250.32 648.256 1250 647.528 1249.36 647C1248.72 646.472 1247.83 646.208 1246.68 646.208C1245.52 646.208 1244.63 646.472 1243.99 647C1243.35 647.528 1243.03 648.256 1243.03 649.184V649.616C1243.03 650.56 1243.35 651.296 1243.99 651.824C1244.63 652.336 1245.52 652.592 1246.68 652.592ZM1256.24 645.248H1261.57C1263.73 645.248 1265.4 645.944 1266.56 647.336C1267.75 648.728 1268.34 650.824 1268.34 653.624C1268.34 656.424 1267.75 658.52 1266.56 659.912C1265.4 661.304 1263.73 662 1261.57 662H1256.24V645.248ZM1261.6 660.728C1263.24 660.728 1264.52 660.2 1265.44 659.144C1266.35 658.072 1266.8 656.6 1266.8 654.728V652.52C1266.8 650.648 1266.35 649.184 1265.44 648.128C1264.52 647.056 1263.24 646.52 1261.6 646.52H1257.68V660.728H1261.6ZM1282.52 662H1271.77V660.536L1277.63 654.92C1278.41 654.152 1279.05 653.368 1279.55 652.568C1280.04 651.752 1280.29 650.92 1280.29 650.072V649.616C1280.29 648.624 1280 647.816 1279.43 647.192C1278.85 646.568 1277.99 646.256 1276.84 646.256C1275.72 646.256 1274.86 646.536 1274.27 647.096C1273.68 647.656 1273.24 648.384 1272.97 649.28L1271.68 648.8C1271.84 648.288 1272.05 647.8 1272.32 647.336C1272.6 646.872 1272.94 646.464 1273.36 646.112C1273.79 645.76 1274.29 645.48 1274.87 645.272C1275.44 645.064 1276.12 644.96 1276.88 644.96C1277.67 644.96 1278.36 645.08 1278.97 645.32C1279.6 645.544 1280.12 645.864 1280.53 646.28C1280.96 646.696 1281.28 647.2 1281.49 647.792C1281.72 648.368 1281.83 649.016 1281.83 649.736C1281.83 650.344 1281.75 650.92 1281.59 651.464C1281.43 651.992 1281.2 652.504 1280.92 653C1280.63 653.48 1280.28 653.96 1279.86 654.44C1279.44 654.904 1278.99 655.368 1278.49 655.832L1273.33 660.728H1282.52V662ZM1292.28 662.288C1290.2 662.288 1288.59 661.568 1287.46 660.128C1286.32 658.672 1285.75 656.52 1285.75 653.672C1285.75 650.84 1286.32 648.68 1287.46 647.192C1288.59 645.704 1290.2 644.96 1292.28 644.96C1293.63 644.96 1294.75 645.28 1295.67 645.92C1296.59 646.56 1297.31 647.432 1297.83 648.536L1296.65 649.232C1296.28 648.32 1295.72 647.6 1294.97 647.072C1294.23 646.528 1293.34 646.256 1292.28 646.256C1290.71 646.256 1289.49 646.816 1288.61 647.936C1287.73 649.056 1287.29 650.656 1287.29 652.736V654.632C1287.29 656.696 1287.73 658.272 1288.61 659.36C1289.49 660.448 1290.71 660.992 1292.28 660.992C1293.4 660.992 1294.34 660.712 1295.09 660.152C1295.84 659.576 1296.4 658.808 1296.77 657.848L1297.95 658.544C1297.45 659.696 1296.72 660.608 1295.76 661.28C1294.8 661.952 1293.64 662.288 1292.28 662.288ZM1311.65 651.104C1311.65 652.4 1311.47 653.608 1311.1 654.728C1310.75 655.832 1310.29 656.84 1309.71 657.752C1309.13 658.664 1308.47 659.48 1307.72 660.2C1306.98 660.904 1306.23 661.504 1305.46 662H1303.59C1304.52 661.36 1305.34 660.72 1306.06 660.08C1306.78 659.44 1307.41 658.768 1307.93 658.064C1308.48 657.344 1308.93 656.584 1309.28 655.784C1309.65 654.968 1309.93 654.064 1310.14 653.072L1310.05 653.048C1309.63 653.8 1309.08 654.4 1308.39 654.848C1307.72 655.28 1306.88 655.496 1305.87 655.496C1305.13 655.496 1304.45 655.376 1303.83 655.136C1303.22 654.896 1302.69 654.56 1302.25 654.128C1301.81 653.68 1301.48 653.144 1301.24 652.52C1301 651.88 1300.88 651.168 1300.88 650.384C1300.88 649.568 1301.01 648.832 1301.26 648.176C1301.52 647.504 1301.88 646.936 1302.34 646.472C1302.81 645.992 1303.37 645.624 1304.02 645.368C1304.69 645.096 1305.44 644.96 1306.25 644.96C1307.13 644.96 1307.91 645.112 1308.58 645.416C1309.25 645.704 1309.81 646.12 1310.26 646.664C1310.73 647.192 1311.07 647.84 1311.29 648.608C1311.53 649.36 1311.65 650.192 1311.65 651.104ZM1306.28 654.272C1307.51 654.272 1308.46 653.928 1309.13 653.24C1309.82 652.552 1310.17 651.624 1310.17 650.456V650.072C1310.17 648.888 1309.82 647.952 1309.13 647.264C1308.45 646.56 1307.49 646.208 1306.28 646.208C1305.05 646.208 1304.09 646.56 1303.4 647.264C1302.71 647.952 1302.37 648.88 1302.37 650.048V650.456C1302.37 651.624 1302.7 652.552 1303.37 653.24C1304.06 653.928 1305.03 654.272 1306.28 654.272Z" fill="#262526"/>
<path d="M849.748 616.736L847.9 613.184H847.828V626H845.236V609.248H848.26L853.732 618.512L855.58 622.064H855.652V609.248H858.244V626H855.22L849.748 616.736ZM867.073 626.288C866.209 626.288 865.417 626.136 864.697 625.832C863.993 625.528 863.393 625.096 862.897 624.536C862.401 623.96 862.017 623.272 861.745 622.472C861.473 621.656 861.337 620.752 861.337 619.76C861.337 618.768 861.473 617.872 861.745 617.072C862.017 616.256 862.401 615.568 862.897 615.008C863.393 614.432 863.993 613.992 864.697 613.688C865.417 613.384 866.209 613.232 867.073 613.232C867.937 613.232 868.721 613.384 869.425 613.688C870.145 613.992 870.753 614.432 871.249 615.008C871.745 615.568 872.129 616.256 872.401 617.072C872.673 617.872 872.809 618.768 872.809 619.76C872.809 620.752 872.673 621.656 872.401 622.472C872.129 623.272 871.745 623.96 871.249 624.536C870.753 625.096 870.145 625.528 869.425 625.832C868.721 626.136 867.937 626.288 867.073 626.288ZM867.073 624.128C867.969 624.128 868.689 623.856 869.233 623.312C869.777 622.752 870.049 621.92 870.049 620.816V618.704C870.049 617.6 869.777 616.776 869.233 616.232C868.689 615.672 867.969 615.392 867.073 615.392C866.177 615.392 865.457 615.672 864.913 616.232C864.369 616.776 864.097 617.6 864.097 618.704V620.816C864.097 621.92 864.369 622.752 864.913 623.312C865.457 623.856 866.177 624.128 867.073 624.128ZM875.724 626V613.52H878.34V615.92H878.46C878.636 615.28 879.004 614.72 879.564 614.24C880.124 613.76 880.9 613.52 881.892 613.52H882.588V616.04H881.556C880.516 616.04 879.716 616.208 879.156 616.544C878.612 616.88 878.34 617.376 878.34 618.032V626H875.724ZM884.911 626V613.52H887.527V615.584H887.647C887.775 615.264 887.927 614.96 888.103 614.672C888.295 614.384 888.519 614.136 888.775 613.928C889.047 613.704 889.359 613.536 889.711 613.424C890.079 613.296 890.503 613.232 890.983 613.232C891.831 613.232 892.583 613.44 893.239 613.856C893.895 614.272 894.375 614.912 894.679 615.776H894.751C894.975 615.072 895.407 614.472 896.047 613.976C896.687 613.48 897.511 613.232 898.519 613.232C899.767 613.232 900.735 613.656 901.423 614.504C902.111 615.336 902.455 616.528 902.455 618.08V626H899.839V618.392C899.839 617.432 899.655 616.712 899.287 616.232C898.919 615.736 898.335 615.488 897.535 615.488C897.199 615.488 896.879 615.536 896.575 615.632C896.271 615.712 895.999 615.84 895.759 616.016C895.535 616.192 895.351 616.416 895.207 616.688C895.063 616.96 894.991 617.272 894.991 617.624V626H892.375V618.392C892.375 616.456 891.615 615.488 890.095 615.488C889.775 615.488 889.455 615.536 889.135 615.632C888.831 615.712 888.559 615.84 888.319 616.016C888.079 616.192 887.887 616.416 887.743 616.688C887.599 616.96 887.527 617.272 887.527 617.624V626H884.911ZM915.219 626C914.531 626 914.003 625.808 913.635 625.424C913.267 625.024 913.043 624.52 912.963 623.912H912.843C912.603 624.696 912.163 625.288 911.523 625.688C910.883 626.088 910.107 626.288 909.195 626.288C907.899 626.288 906.899 625.952 906.195 625.28C905.507 624.608 905.163 623.704 905.163 622.568C905.163 621.32 905.611 620.384 906.507 619.76C907.419 619.136 908.747 618.824 910.491 618.824H912.747V617.768C912.747 617 912.539 616.408 912.123 615.992C911.707 615.576 911.059 615.368 910.179 615.368C909.443 615.368 908.843 615.528 908.379 615.848C907.915 616.168 907.523 616.576 907.203 617.072L905.643 615.656C906.059 614.952 906.643 614.376 907.395 613.928C908.147 613.464 909.131 613.232 910.347 613.232C911.963 613.232 913.203 613.608 914.067 614.36C914.931 615.112 915.363 616.192 915.363 617.6V623.864H916.683V626H915.219ZM909.939 624.296C910.755 624.296 911.427 624.12 911.955 623.768C912.483 623.4 912.747 622.912 912.747 622.304V620.504H910.539C908.731 620.504 907.827 621.064 907.827 622.184V622.616C907.827 623.176 908.011 623.6 908.379 623.888C908.763 624.16 909.283 624.296 909.939 624.296ZM919.247 626V613.52H921.863V615.584H921.983C922.255 614.912 922.663 614.352 923.207 613.904C923.767 613.456 924.527 613.232 925.487 613.232C926.767 613.232 927.759 613.656 928.463 614.504C929.183 615.336 929.543 616.528 929.543 618.08V626H926.927V618.416C926.927 616.464 926.143 615.488 924.575 615.488C924.239 615.488 923.903 615.536 923.567 615.632C923.247 615.712 922.959 615.84 922.703 616.016C922.447 616.192 922.239 616.416 922.079 616.688C921.935 616.96 921.863 617.28 921.863 617.648V626H919.247ZM941.017 623.936H940.897C940.625 624.672 940.177 625.248 939.553 625.664C938.945 626.08 938.225 626.288 937.393 626.288C935.809 626.288 934.585 625.72 933.721 624.584C932.857 623.432 932.425 621.824 932.425 619.76C932.425 617.696 932.857 616.096 933.721 614.96C934.585 613.808 935.809 613.232 937.393 613.232C938.225 613.232 938.945 613.44 939.553 613.856C940.177 614.256 940.625 614.832 940.897 615.584H941.017V608.24H943.633V626H941.017V623.936ZM938.185 624.032C938.985 624.032 939.657 623.84 940.201 623.456C940.745 623.056 941.017 622.536 941.017 621.896V617.624C941.017 616.984 940.745 616.472 940.201 616.088C939.657 615.688 938.985 615.488 938.185 615.488C937.273 615.488 936.545 615.784 936.001 616.376C935.457 616.952 935.185 617.72 935.185 618.68V620.84C935.185 621.8 935.457 622.576 936.001 623.168C936.545 623.744 937.273 624.032 938.185 624.032ZM955.028 613.52H957.548L952.292 628.472C952.148 628.888 951.98 629.24 951.788 629.528C951.612 629.832 951.396 630.072 951.14 630.248C950.9 630.44 950.604 630.576 950.252 630.656C949.9 630.752 949.484 630.8 949.004 630.8H947.492V628.664H949.604L950.324 626.552L945.788 613.52H948.404L950.9 620.864L951.62 623.576H951.74L952.532 620.864L955.028 613.52ZM858.863 656.936H854.879L853.991 662H852.863L853.727 656.936H850.463V655.88H853.919L854.687 651.368H851.399V650.312H854.879L855.743 645.248H856.871L856.007 650.312H859.991L860.855 645.248H862.007L861.119 650.312H864.407V651.368H860.927L860.183 655.88H863.471V656.936H859.991L859.127 662H857.975L858.863 656.936ZM859.031 655.88L859.799 651.368H855.815L855.047 655.88H859.031ZM874.028 662.288C871.948 662.288 870.34 661.568 869.204 660.128C868.068 658.672 867.5 656.52 867.5 653.672C867.5 650.84 868.068 648.68 869.204 647.192C870.34 645.704 871.948 644.96 874.028 644.96C875.372 644.96 876.5 645.28 877.412 645.92C878.34 646.56 879.06 647.432 879.572 648.536L878.396 649.232C878.028 648.32 877.468 647.6 876.716 647.072C875.98 646.528 875.084 646.256 874.028 646.256C872.46 646.256 871.236 646.816 870.356 647.936C869.476 649.056 869.036 650.656 869.036 652.736V654.632C869.036 656.696 869.476 658.272 870.356 659.36C871.236 660.448 872.46 660.992 874.028 660.992C875.148 660.992 876.084 660.712 876.836 660.152C877.588 659.576 878.148 658.808 878.516 657.848L879.692 658.544C879.196 659.696 878.468 660.608 877.508 661.28C876.548 661.952 875.388 662.288 874.028 662.288ZM893.401 651.104C893.401 652.4 893.217 653.608 892.849 654.728C892.497 655.832 892.033 656.84 891.457 657.752C890.881 658.664 890.217 659.48 889.465 660.2C888.729 660.904 887.977 661.504 887.209 662H885.337C886.265 661.36 887.089 660.72 887.809 660.08C888.529 659.44 889.153 658.768 889.681 658.064C890.225 657.344 890.673 656.584 891.025 655.784C891.393 654.968 891.681 654.064 891.889 653.072L891.793 653.048C891.377 653.8 890.825 654.4 890.137 654.848C889.465 655.28 888.625 655.496 887.617 655.496C886.881 655.496 886.201 655.376 885.577 655.136C884.969 654.896 884.441 654.56 883.993 654.128C883.561 653.68 883.225 653.144 882.985 652.52C882.745 651.88 882.625 651.168 882.625 650.384C882.625 649.568 882.753 648.832 883.009 648.176C883.265 647.504 883.625 646.936 884.089 646.472C884.553 645.992 885.113 645.624 885.769 645.368C886.441 645.096 887.185 644.96 888.001 644.96C888.881 644.96 889.657 645.112 890.329 645.416C891.001 645.704 891.561 646.12 892.009 646.664C892.473 647.192 892.817 647.84 893.041 648.608C893.281 649.36 893.401 650.192 893.401 651.104ZM888.025 654.272C889.257 654.272 890.209 653.928 890.881 653.24C891.569 652.552 891.913 651.624 891.913 650.456V650.072C891.913 648.888 891.569 647.952 890.881 647.264C890.193 646.56 889.241 646.208 888.025 646.208C886.793 646.208 885.833 646.56 885.145 647.264C884.457 647.952 884.113 648.88 884.113 650.048V650.456C884.113 651.624 884.449 652.552 885.121 653.24C885.809 653.928 886.777 654.272 888.025 654.272ZM897.567 645.248H904.119C905.431 645.248 906.455 645.624 907.191 646.376C907.943 647.112 908.319 648.144 908.319 649.472C908.319 650.048 908.239 650.552 908.079 650.984C907.935 651.416 907.743 651.776 907.503 652.064C907.263 652.352 906.983 652.584 906.663 652.76C906.359 652.936 906.055 653.056 905.751 653.12V653.216C906.135 653.264 906.519 653.384 906.903 653.576C907.287 653.752 907.631 654.008 907.935 654.344C908.239 654.664 908.487 655.072 908.679 655.568C908.871 656.048 908.967 656.616 908.967 657.272C908.967 657.96 908.863 658.592 908.655 659.168C908.463 659.744 908.175 660.248 907.791 660.68C907.423 661.096 906.975 661.424 906.447 661.664C905.935 661.888 905.359 662 904.719 662H897.567V645.248ZM899.007 660.728H904.335C905.343 660.728 906.111 660.456 906.639 659.912C907.167 659.352 907.431 658.632 907.431 657.752V656.864C907.431 656 907.167 655.296 906.639 654.752C906.111 654.192 905.343 653.912 904.335 653.912H899.007V660.728ZM899.007 652.664H903.975C904.887 652.664 905.583 652.424 906.063 651.944C906.543 651.448 906.783 650.816 906.783 650.048V649.136C906.783 648.368 906.543 647.744 906.063 647.264C905.583 646.768 904.887 646.52 903.975 646.52H899.007V652.664ZM912.872 662V645.248H922.448V646.52H914.312V652.856H921.896V654.128H914.312V662H912.872ZM935.594 662L933.77 656.792H926.642L924.818 662H923.378L929.306 645.248H931.154L937.106 662H935.594ZM930.242 646.616H930.146L927.002 655.544H933.386L930.242 646.616ZM944.162 652.592C945.314 652.592 946.21 652.312 946.85 651.752C947.506 651.176 947.834 650.432 947.834 649.52V649.208C947.834 648.264 947.522 647.536 946.898 647.024C946.274 646.512 945.474 646.256 944.498 646.256C943.522 646.256 942.738 646.456 942.146 646.856C941.57 647.24 941.106 647.768 940.754 648.44L939.674 647.672C939.866 647.32 940.106 646.984 940.394 646.664C940.682 646.328 941.018 646.032 941.402 645.776C941.802 645.52 942.258 645.32 942.77 645.176C943.282 645.032 943.866 644.96 944.522 644.96C945.21 644.96 945.85 645.056 946.442 645.248C947.034 645.44 947.546 645.72 947.978 646.088C948.41 646.44 948.746 646.88 948.986 647.408C949.242 647.92 949.37 648.504 949.37 649.16C949.37 650.296 949.058 651.184 948.434 651.824C947.81 652.464 947.034 652.896 946.106 653.12V653.216C946.602 653.296 947.066 653.448 947.498 653.672C947.93 653.88 948.306 654.16 948.626 654.512C948.962 654.864 949.226 655.288 949.418 655.784C949.61 656.28 949.706 656.84 949.706 657.464C949.706 658.184 949.578 658.848 949.322 659.456C949.066 660.048 948.698 660.552 948.218 660.968C947.754 661.384 947.186 661.712 946.514 661.952C945.858 662.176 945.122 662.288 944.306 662.288C942.962 662.288 941.874 662.032 941.042 661.52C940.21 660.992 939.53 660.336 939.002 659.552L940.082 658.736C940.546 659.456 941.098 660.016 941.738 660.416C942.394 660.8 943.242 660.992 944.282 660.992C945.498 660.992 946.45 660.696 947.138 660.104C947.826 659.496 948.17 658.664 948.17 657.608V657.224C948.17 656.168 947.834 655.344 947.162 654.752C946.49 654.144 945.53 653.84 944.282 653.84H942.17V652.592H944.162Z" fill="#262526"/>
<path d="M123.459 609.248H129.387C130.459 609.248 131.427 609.424 132.291 609.776C133.171 610.128 133.915 610.656 134.523 611.36C135.147 612.048 135.627 612.92 135.963 613.976C136.299 615.016 136.467 616.232 136.467 617.624C136.467 619.016 136.299 620.24 135.963 621.296C135.627 622.336 135.147 623.208 134.523 623.912C133.915 624.6 133.171 625.12 132.291 625.472C131.427 625.824 130.459 626 129.387 626H123.459V609.248ZM129.387 623.6C130.635 623.6 131.643 623.208 132.411 622.424C133.179 621.64 133.563 620.488 133.563 618.968V616.28C133.563 614.76 133.179 613.608 132.411 612.824C131.643 612.04 130.635 611.648 129.387 611.648H126.171V623.6H129.387ZM147.209 623.936H147.113C147.001 624.24 146.849 624.536 146.657 624.824C146.481 625.112 146.249 625.368 145.961 625.592C145.689 625.8 145.353 625.968 144.953 626.096C144.569 626.224 144.121 626.288 143.609 626.288C142.313 626.288 141.305 625.872 140.585 625.04C139.881 624.208 139.529 623.016 139.529 621.464V613.52H142.145V621.128C142.145 623.064 142.945 624.032 144.545 624.032C144.881 624.032 145.209 623.992 145.529 623.912C145.849 623.816 146.129 623.68 146.369 623.504C146.625 623.328 146.825 623.104 146.969 622.832C147.129 622.56 147.209 622.24 147.209 621.872V613.52H149.825V626H147.209V623.936ZM157.531 626.288C156.347 626.288 155.355 626.08 154.555 625.664C153.755 625.248 153.059 624.672 152.467 623.936L154.147 622.4C154.611 622.96 155.123 623.4 155.683 623.72C156.259 624.024 156.923 624.176 157.675 624.176C158.443 624.176 159.011 624.032 159.379 623.744C159.763 623.44 159.955 623.024 159.955 622.496C159.955 622.096 159.819 621.76 159.547 621.488C159.291 621.2 158.835 621.016 158.179 620.936L157.027 620.792C155.747 620.632 154.739 620.264 154.003 619.688C153.283 619.096 152.923 618.224 152.923 617.072C152.923 616.464 153.035 615.928 153.259 615.464C153.483 614.984 153.795 614.584 154.195 614.264C154.611 613.928 155.099 613.672 155.659 613.496C156.235 613.32 156.867 613.232 157.555 613.232C158.675 613.232 159.587 613.408 160.291 613.76C161.011 614.112 161.651 614.6 162.211 615.224L160.603 616.76C160.283 616.376 159.859 616.048 159.331 615.776C158.819 615.488 158.227 615.344 157.555 615.344C156.835 615.344 156.299 615.488 155.947 615.776C155.611 616.064 155.443 616.44 155.443 616.904C155.443 617.384 155.595 617.744 155.899 617.984C156.203 618.224 156.691 618.4 157.363 618.512L158.515 618.656C159.891 618.864 160.891 619.272 161.515 619.88C162.155 620.472 162.475 621.272 162.475 622.28C162.475 622.888 162.355 623.44 162.115 623.936C161.891 624.416 161.563 624.832 161.131 625.184C160.699 625.536 160.179 625.808 159.571 626C158.963 626.192 158.283 626.288 157.531 626.288ZM168.723 626C167.811 626 167.123 625.768 166.659 625.304C166.195 624.824 165.963 624.152 165.963 623.288V615.656H164.019V613.52H165.075C165.507 613.52 165.803 613.424 165.963 613.232C166.139 613.04 166.227 612.728 166.227 612.296V610.112H168.579V613.52H171.195V615.656H168.579V623.864H171.003V626H168.723ZM181.688 613.52H184.208L178.952 628.472C178.808 628.888 178.64 629.24 178.448 629.528C178.272 629.832 178.056 630.072 177.8 630.248C177.56 630.44 177.264 630.576 176.912 630.656C176.56 630.752 176.144 630.8 175.664 630.8H174.152V628.664H176.264L176.984 626.552L172.448 613.52H175.064L177.56 620.864L178.28 623.576H178.4L179.192 620.864L181.688 613.52ZM192.224 626V609.248H199.424C200.976 609.248 202.176 609.704 203.024 610.616C203.872 611.528 204.296 612.752 204.296 614.288C204.296 615.824 203.872 617.048 203.024 617.96C202.176 618.872 200.976 619.328 199.424 619.328H194.936V626H192.224ZM194.936 616.952H199.256C199.944 616.952 200.48 616.776 200.864 616.424C201.248 616.056 201.44 615.536 201.44 614.864V613.712C201.44 613.04 201.248 612.528 200.864 612.176C200.48 611.808 199.944 611.624 199.256 611.624H194.936V616.952ZM208.399 611.288C207.855 611.288 207.455 611.16 207.199 610.904C206.959 610.648 206.839 610.32 206.839 609.92V609.512C206.839 609.112 206.959 608.784 207.199 608.528C207.455 608.272 207.855 608.144 208.399 608.144C208.943 608.144 209.335 608.272 209.575 608.528C209.815 608.784 209.935 609.112 209.935 609.512V609.92C209.935 610.32 209.815 610.648 209.575 610.904C209.335 611.16 208.943 611.288 208.399 611.288ZM207.079 613.52H209.695V626H207.079V613.52ZM213.431 626V613.52H216.047V615.584H216.167C216.439 614.912 216.847 614.352 217.391 613.904C217.951 613.456 218.711 613.232 219.671 613.232C220.951 613.232 221.943 613.656 222.647 614.504C223.367 615.336 223.727 616.528 223.727 618.08V626H221.111V618.416C221.111 616.464 220.327 615.488 218.759 615.488C218.423 615.488 218.087 615.536 217.751 615.632C217.431 615.712 217.143 615.84 216.887 616.016C216.631 616.192 216.423 616.416 216.263 616.688C216.119 616.96 216.047 617.28 216.047 617.648V626H213.431ZM227.352 608.24H229.968V619.136H230.088L231.816 616.904L234.816 613.52H237.864L233.496 618.344L238.392 626H235.272L231.696 620.048L229.968 621.92V626H227.352V608.24ZM138.211 656.936H134.227L133.339 662H132.211L133.075 656.936H129.811V655.88H133.267L134.035 651.368H130.747V650.312H134.227L135.091 645.248H136.219L135.355 650.312H139.339L140.203 645.248H141.355L140.467 650.312H143.755V651.368H140.275L139.531 655.88H142.819V656.936H139.339L138.475 662H137.323L138.211 656.936ZM138.379 655.88L139.147 651.368H135.163L134.395 655.88H138.379ZM147.712 662V645.248H157.288V646.52H149.152V652.856H156.736V654.128H149.152V662H147.712ZM165.731 662.288C164.819 662.288 164.011 662.168 163.307 661.928C162.603 661.688 162.003 661.36 161.507 660.944C161.027 660.528 160.659 660.032 160.403 659.456C160.163 658.864 160.043 658.224 160.043 657.536C160.043 656.368 160.363 655.432 161.003 654.728C161.643 654.008 162.499 653.528 163.571 653.288V653.12C162.659 652.864 161.931 652.392 161.387 651.704C160.859 651.016 160.595 650.168 160.595 649.16C160.595 647.88 161.043 646.864 161.939 646.112C162.851 645.344 164.115 644.96 165.731 644.96C167.347 644.96 168.603 645.344 169.499 646.112C170.411 646.864 170.867 647.88 170.867 649.16C170.867 650.168 170.595 651.016 170.051 651.704C169.523 652.392 168.803 652.864 167.891 653.12V653.288C168.963 653.528 169.819 654.008 170.459 654.728C171.099 655.432 171.419 656.368 171.419 657.536C171.419 658.224 171.291 658.864 171.035 659.456C170.795 660.032 170.427 660.528 169.931 660.944C169.451 661.36 168.859 661.688 168.155 661.928C167.451 662.168 166.643 662.288 165.731 662.288ZM165.731 661.04C167.027 661.04 168.043 660.744 168.779 660.152C169.515 659.544 169.883 658.728 169.883 657.704V657.152C169.883 656.112 169.515 655.296 168.779 654.704C168.043 654.112 167.027 653.816 165.731 653.816C164.435 653.816 163.419 654.112 162.683 654.704C161.947 655.296 161.579 656.112 161.579 657.152V657.704C161.579 658.728 161.947 659.544 162.683 660.152C163.419 660.744 164.435 661.04 165.731 661.04ZM165.731 652.592C166.883 652.592 167.779 652.336 168.419 651.824C169.059 651.296 169.379 650.56 169.379 649.616V649.184C169.379 648.256 169.059 647.528 168.419 647C167.779 646.472 166.883 646.208 165.731 646.208C164.579 646.208 163.683 646.472 163.043 647C162.403 647.528 162.083 648.256 162.083 649.184V649.616C162.083 650.56 162.403 651.296 163.043 651.824C163.683 652.336 164.579 652.592 165.731 652.592ZM175.298 662V645.248H185.09V646.52H176.738V652.856H184.682V654.128H176.738V660.728H185.09V662H175.298ZM189.079 645.248H194.407C196.567 645.248 198.231 645.944 199.399 647.336C200.583 648.728 201.175 650.824 201.175 653.624C201.175 656.424 200.583 658.52 199.399 659.912C198.231 661.304 196.567 662 194.407 662H189.079V645.248ZM194.431 660.728C196.079 660.728 197.359 660.2 198.271 659.144C199.183 658.072 199.639 656.6 199.639 654.728V652.52C199.639 650.648 199.183 649.184 198.271 648.128C197.359 647.056 196.079 646.52 194.431 646.52H190.519V660.728H194.431ZM205.064 662V645.248H214.856V646.52H206.504V652.856H214.448V654.128H206.504V660.728H214.856V662H205.064ZM218.845 645.248H225.397C226.709 645.248 227.733 645.624 228.469 646.376C229.221 647.112 229.597 648.144 229.597 649.472C229.597 650.048 229.517 650.552 229.357 650.984C229.213 651.416 229.021 651.776 228.781 652.064C228.541 652.352 228.261 652.584 227.941 652.76C227.637 652.936 227.333 653.056 227.029 653.12V653.216C227.413 653.264 227.797 653.384 228.181 653.576C228.565 653.752 228.909 654.008 229.213 654.344C229.517 654.664 229.765 655.072 229.957 655.568C230.149 656.048 230.245 656.616 230.245 657.272C230.245 657.96 230.141 658.592 229.933 659.168C229.741 659.744 229.453 660.248 229.069 660.68C228.701 661.096 228.253 661.424 227.725 661.664C227.213 661.888 226.637 662 225.997 662H218.845V645.248ZM220.285 660.728H225.613C226.621 660.728 227.389 660.456 227.917 659.912C228.445 659.352 228.709 658.632 228.709 657.752V656.864C228.709 656 228.445 655.296 227.917 654.752C227.389 654.192 226.621 653.912 225.613 653.912H220.285V660.728ZM220.285 652.664H225.253C226.165 652.664 226.861 652.424 227.341 651.944C227.821 651.448 228.061 650.816 228.061 650.048V649.136C228.061 648.368 227.821 647.744 227.341 647.264C226.861 646.768 226.165 646.52 225.253 646.52H220.285V652.664Z" fill="#262526"/>
<path d="M477.225 206.288C475.817 206.288 474.617 206.032 473.625 205.52C472.649 205.008 471.809 204.32 471.105 203.456L472.977 201.704C473.569 202.424 474.217 202.968 474.921 203.336C475.641 203.704 476.457 203.888 477.369 203.888C478.441 203.888 479.249 203.648 479.793 203.168C480.337 202.688 480.609 202.04 480.609 201.224C480.609 200.568 480.417 200.048 480.033 199.664C479.649 199.28 478.969 198.992 477.993 198.8L476.505 198.536C474.873 198.232 473.649 197.696 472.833 196.928C472.017 196.16 471.609 195.104 471.609 193.76C471.609 193.024 471.745 192.36 472.017 191.768C472.305 191.16 472.697 190.656 473.193 190.256C473.705 189.84 474.321 189.52 475.041 189.296C475.761 189.072 476.569 188.96 477.465 188.96C478.729 188.96 479.825 189.184 480.753 189.632C481.681 190.064 482.473 190.696 483.129 191.528L481.233 193.208C480.801 192.648 480.273 192.2 479.649 191.864C479.025 191.528 478.249 191.36 477.321 191.36C476.361 191.36 475.617 191.552 475.089 191.936C474.561 192.32 474.297 192.88 474.297 193.616C474.297 194.32 474.513 194.848 474.945 195.2C475.377 195.536 476.049 195.792 476.961 195.968L478.449 196.28C480.129 196.6 481.353 197.144 482.121 197.912C482.905 198.68 483.297 199.736 483.297 201.08C483.297 201.864 483.161 202.576 482.889 203.216C482.617 203.856 482.217 204.408 481.689 204.872C481.177 205.32 480.545 205.672 479.793 205.928C479.041 206.168 478.185 206.288 477.225 206.288ZM486.36 206V193.52H488.976V195.584H489.096C489.224 195.264 489.376 194.96 489.552 194.672C489.744 194.384 489.968 194.136 490.224 193.928C490.496 193.704 490.808 193.536 491.16 193.424C491.528 193.296 491.952 193.232 492.432 193.232C493.28 193.232 494.032 193.44 494.688 193.856C495.344 194.272 495.824 194.912 496.128 195.776H496.2C496.424 195.072 496.856 194.472 497.496 193.976C498.136 193.48 498.96 193.232 499.968 193.232C501.216 193.232 502.184 193.656 502.872 194.504C503.56 195.336 503.904 196.528 503.904 198.08V206H501.288V198.392C501.288 197.432 501.104 196.712 500.736 196.232C500.368 195.736 499.784 195.488 498.984 195.488C498.648 195.488 498.328 195.536 498.024 195.632C497.72 195.712 497.448 195.84 497.208 196.016C496.984 196.192 496.8 196.416 496.656 196.688C496.512 196.96 496.44 197.272 496.44 197.624V206H493.824V198.392C493.824 196.456 493.064 195.488 491.544 195.488C491.224 195.488 490.904 195.536 490.584 195.632C490.28 195.712 490.008 195.84 489.768 196.016C489.528 196.192 489.336 196.416 489.192 196.688C489.048 196.96 488.976 197.272 488.976 197.624V206H486.36ZM512.42 206.288C511.556 206.288 510.764 206.136 510.044 205.832C509.34 205.528 508.74 205.096 508.244 204.536C507.748 203.96 507.364 203.272 507.092 202.472C506.82 201.656 506.684 200.752 506.684 199.76C506.684 198.768 506.82 197.872 507.092 197.072C507.364 196.256 507.748 195.568 508.244 195.008C508.74 194.432 509.34 193.992 510.044 193.688C510.764 193.384 511.556 193.232 512.42 193.232C513.284 193.232 514.068 193.384 514.772 193.688C515.492 193.992 516.1 194.432 516.596 195.008C517.092 195.568 517.476 196.256 517.748 197.072C518.02 197.872 518.156 198.768 518.156 199.76C518.156 200.752 518.02 201.656 517.748 202.472C517.476 203.272 517.092 203.96 516.596 204.536C516.1 205.096 515.492 205.528 514.772 205.832C514.068 206.136 513.284 206.288 512.42 206.288ZM512.42 204.128C513.316 204.128 514.036 203.856 514.58 203.312C515.124 202.752 515.396 201.92 515.396 200.816V198.704C515.396 197.6 515.124 196.776 514.58 196.232C514.036 195.672 513.316 195.392 512.42 195.392C511.524 195.392 510.804 195.672 510.26 196.232C509.716 196.776 509.444 197.6 509.444 198.704V200.816C509.444 201.92 509.716 202.752 510.26 203.312C510.804 203.856 511.524 204.128 512.42 204.128ZM521.071 188.24H523.687V199.136H523.807L525.535 196.904L528.535 193.52H531.583L527.215 198.344L532.111 206H528.991L525.415 200.048L523.687 201.92V206H521.071V188.24ZM541.805 193.52H544.325L539.069 208.472C538.925 208.888 538.757 209.24 538.565 209.528C538.389 209.832 538.173 210.072 537.917 210.248C537.677 210.44 537.381 210.576 537.029 210.656C536.677 210.752 536.261 210.8 535.781 210.8H534.269V208.664H536.381L537.101 206.552L532.565 193.52H535.181L537.677 200.864L538.397 203.576H538.517L539.309 200.864L541.805 193.52ZM552.149 188.24H554.765V195.584H554.885C555.157 194.832 555.597 194.256 556.205 193.856C556.829 193.44 557.557 193.232 558.389 193.232C559.973 193.232 561.197 193.808 562.061 194.96C562.925 196.096 563.357 197.696 563.357 199.76C563.357 201.824 562.925 203.432 562.061 204.584C561.197 205.72 559.973 206.288 558.389 206.288C557.557 206.288 556.829 206.08 556.205 205.664C555.597 205.248 555.157 204.672 554.885 203.936H554.765V206H552.149V188.24ZM557.597 204.032C558.509 204.032 559.237 203.744 559.781 203.168C560.325 202.576 560.597 201.8 560.597 200.84V198.68C560.597 197.72 560.325 196.952 559.781 196.376C559.237 195.784 558.509 195.488 557.597 195.488C556.797 195.488 556.125 195.688 555.581 196.088C555.037 196.472 554.765 196.984 554.765 197.624V201.896C554.765 202.536 555.037 203.056 555.581 203.456C556.125 203.84 556.797 204.032 557.597 204.032ZM569.016 206C568.12 206 567.448 205.776 567 205.328C566.568 204.864 566.352 204.224 566.352 203.408V188.24H568.968V203.864H570.696V206H569.016ZM582.34 206C581.652 206 581.124 205.808 580.756 205.424C580.388 205.024 580.164 204.52 580.084 203.912H579.964C579.724 204.696 579.284 205.288 578.644 205.688C578.004 206.088 577.228 206.288 576.316 206.288C575.02 206.288 574.02 205.952 573.316 205.28C572.628 204.608 572.284 203.704 572.284 202.568C572.284 201.32 572.732 200.384 573.628 199.76C574.54 199.136 575.868 198.824 577.612 198.824H579.868V197.768C579.868 197 579.66 196.408 579.244 195.992C578.828 195.576 578.18 195.368 577.3 195.368C576.564 195.368 575.964 195.528 575.5 195.848C575.036 196.168 574.644 196.576 574.324 197.072L572.764 195.656C573.18 194.952 573.764 194.376 574.516 193.928C575.268 193.464 576.252 193.232 577.468 193.232C579.084 193.232 580.324 193.608 581.188 194.36C582.052 195.112 582.484 196.192 582.484 197.6V203.864H583.804V206H582.34ZM577.06 204.296C577.876 204.296 578.548 204.12 579.076 203.768C579.604 203.4 579.868 202.912 579.868 202.304V200.504H577.66C575.852 200.504 574.948 201.064 574.948 202.184V202.616C574.948 203.176 575.132 203.6 575.5 203.888C575.884 204.16 576.404 204.296 577.06 204.296ZM591.192 206.288C590.296 206.288 589.496 206.136 588.792 205.832C588.088 205.528 587.496 205.096 587.016 204.536C586.536 203.96 586.168 203.272 585.912 202.472C585.656 201.656 585.528 200.752 585.528 199.76C585.528 198.768 585.656 197.872 585.912 197.072C586.168 196.256 586.536 195.568 587.016 195.008C587.496 194.432 588.088 193.992 588.792 193.688C589.496 193.384 590.296 193.232 591.192 193.232C592.44 193.232 593.464 193.512 594.264 194.072C595.064 194.632 595.648 195.376 596.016 196.304L593.856 197.312C593.68 196.736 593.368 196.28 592.92 195.944C592.488 195.592 591.912 195.416 591.192 195.416C590.232 195.416 589.504 195.72 589.008 196.328C588.528 196.92 588.288 197.696 588.288 198.656V200.888C588.288 201.848 588.528 202.632 589.008 203.24C589.504 203.832 590.232 204.128 591.192 204.128C591.96 204.128 592.568 203.944 593.016 203.576C593.48 203.192 593.848 202.688 594.12 202.064L596.112 203.12C595.696 204.144 595.072 204.928 594.24 205.472C593.408 206.016 592.392 206.288 591.192 206.288ZM598.602 188.24H601.218V199.136H601.338L603.066 196.904L606.066 193.52H609.114L604.746 198.344L609.642 206H606.522L602.946 200.048L601.218 201.92V206H598.602V188.24ZM498.257 236.936H494.273L493.385 242H492.257L493.121 236.936H489.857V235.88H493.313L494.081 231.368H490.793V230.312H494.273L495.137 225.248H496.265L495.401 230.312H499.385L500.249 225.248H501.401L500.513 230.312H503.801V231.368H500.321L499.577 235.88H502.865V236.936H499.385L498.521 242H497.369L498.257 236.936ZM498.425 235.88L499.193 231.368H495.209L494.441 235.88H498.425ZM518.055 242H507.303V240.536L513.159 234.92C513.943 234.152 514.583 233.368 515.079 232.568C515.575 231.752 515.823 230.92 515.823 230.072V229.616C515.823 228.624 515.535 227.816 514.959 227.192C514.383 226.568 513.519 226.256 512.367 226.256C511.247 226.256 510.391 226.536 509.799 227.096C509.207 227.656 508.775 228.384 508.503 229.28L507.207 228.8C507.367 228.288 507.583 227.8 507.855 227.336C508.127 226.872 508.471 226.464 508.887 226.112C509.319 225.76 509.823 225.48 510.399 225.272C510.975 225.064 511.647 224.96 512.415 224.96C513.199 224.96 513.895 225.08 514.503 225.32C515.127 225.544 515.647 225.864 516.063 226.28C516.495 226.696 516.815 227.2 517.023 227.792C517.247 228.368 517.359 229.016 517.359 229.736C517.359 230.344 517.279 230.92 517.119 231.464C516.959 231.992 516.735 232.504 516.447 233C516.159 233.48 515.807 233.96 515.391 234.44C514.975 234.904 514.519 235.368 514.023 235.832L508.863 240.728H518.055V242ZM526.997 242.288C526.101 242.288 525.317 242.144 524.645 241.856C523.973 241.552 523.405 241.136 522.941 240.608C522.493 240.064 522.149 239.416 521.909 238.664C521.685 237.896 521.573 237.056 521.573 236.144C521.573 234.848 521.749 233.648 522.101 232.544C522.469 231.424 522.941 230.408 523.517 229.496C524.093 228.584 524.749 227.776 525.485 227.072C526.237 226.352 526.997 225.744 527.765 225.248H529.661C528.733 225.888 527.909 226.528 527.189 227.168C526.469 227.808 525.837 228.488 525.293 229.208C524.749 229.912 524.293 230.672 523.925 231.488C523.573 232.304 523.293 233.2 523.085 234.176L523.181 234.2C523.597 233.448 524.141 232.856 524.813 232.424C525.501 231.976 526.349 231.752 527.357 231.752C528.093 231.752 528.765 231.872 529.373 232.112C529.997 232.352 530.525 232.696 530.957 233.144C531.405 233.576 531.749 234.112 531.989 234.752C532.229 235.376 532.349 236.08 532.349 236.864C532.349 237.68 532.221 238.424 531.965 239.096C531.709 239.752 531.349 240.32 530.885 240.8C530.421 241.264 529.861 241.632 529.205 241.904C528.549 242.16 527.813 242.288 526.997 242.288ZM526.973 241.04C528.189 241.04 529.141 240.696 529.829 240.008C530.517 239.304 530.861 238.368 530.861 237.2V236.792C530.861 235.624 530.517 234.696 529.829 234.008C529.157 233.32 528.205 232.976 526.973 232.976C525.725 232.976 524.757 233.32 524.069 234.008C523.397 234.696 523.061 235.624 523.061 236.792V237.176C523.061 238.36 523.405 239.304 524.093 240.008C524.781 240.696 525.741 241.04 526.973 241.04ZM546.836 242H536.084V240.536L541.94 234.92C542.724 234.152 543.364 233.368 543.86 232.568C544.356 231.752 544.604 230.92 544.604 230.072V229.616C544.604 228.624 544.316 227.816 543.74 227.192C543.164 226.568 542.3 226.256 541.148 226.256C540.028 226.256 539.172 226.536 538.58 227.096C537.988 227.656 537.556 228.384 537.284 229.28L535.988 228.8C536.148 228.288 536.364 227.8 536.636 227.336C536.908 226.872 537.252 226.464 537.668 226.112C538.1 225.76 538.604 225.48 539.18 225.272C539.756 225.064 540.428 224.96 541.196 224.96C541.98 224.96 542.676 225.08 543.284 225.32C543.908 225.544 544.428 225.864 544.844 226.28C545.276 226.696 545.596 227.2 545.804 227.792C546.028 228.368 546.14 229.016 546.14 229.736C546.14 230.344 546.06 230.92 545.9 231.464C545.74 231.992 545.516 232.504 545.228 233C544.94 233.48 544.588 233.96 544.172 234.44C543.756 234.904 543.3 235.368 542.804 235.832L537.644 240.728H546.836V242ZM560.339 226.52H552.851L552.323 233.528L552.467 233.552C552.883 232.96 553.371 232.52 553.931 232.232C554.491 231.928 555.219 231.776 556.115 231.776C556.851 231.776 557.523 231.896 558.131 232.136C558.739 232.36 559.259 232.696 559.691 233.144C560.123 233.576 560.451 234.112 560.675 234.752C560.915 235.376 561.035 236.088 561.035 236.888C561.035 237.704 560.907 238.448 560.651 239.12C560.411 239.776 560.059 240.344 559.595 240.824C559.131 241.288 558.563 241.648 557.891 241.904C557.235 242.16 556.491 242.288 555.659 242.288C555.003 242.288 554.411 242.216 553.883 242.072C553.355 241.944 552.883 241.76 552.467 241.52C552.051 241.264 551.675 240.968 551.339 240.632C551.019 240.296 550.731 239.936 550.475 239.552L551.555 238.736C552.019 239.456 552.555 240.016 553.163 240.416C553.787 240.8 554.619 240.992 555.659 240.992C556.907 240.992 557.859 240.656 558.515 239.984C559.187 239.296 559.523 238.368 559.523 237.2V236.792C559.523 235.624 559.195 234.704 558.539 234.032C557.899 233.344 556.963 233 555.731 233C555.299 233 554.915 233.04 554.579 233.12C554.243 233.184 553.939 233.288 553.667 233.432C553.411 233.56 553.171 233.72 552.947 233.912C552.739 234.088 552.531 234.296 552.323 234.536L551.075 234.344L551.675 225.248H560.339V226.52ZM575.617 242H564.865V240.536L570.721 234.92C571.505 234.152 572.145 233.368 572.641 232.568C573.137 231.752 573.385 230.92 573.385 230.072V229.616C573.385 228.624 573.097 227.816 572.521 227.192C571.945 226.568 571.081 226.256 569.929 226.256C568.809 226.256 567.953 226.536 567.361 227.096C566.769 227.656 566.337 228.384 566.065 229.28L564.769 228.8C564.929 228.288 565.145 227.8 565.417 227.336C565.689 226.872 566.033 226.464 566.449 226.112C566.881 225.76 567.385 225.48 567.961 225.272C568.537 225.064 569.209 224.96 569.977 224.96C570.761 224.96 571.457 225.08 572.065 225.32C572.689 225.544 573.209 225.864 573.625 226.28C574.057 226.696 574.377 227.2 574.585 227.792C574.809 228.368 574.921 229.016 574.921 229.736C574.921 230.344 574.841 230.92 574.681 231.464C574.521 231.992 574.297 232.504 574.009 233C573.721 233.48 573.369 233.96 572.953 234.44C572.537 234.904 572.081 235.368 571.585 235.832L566.425 240.728H575.617V242ZM584.56 242.288C583.664 242.288 582.88 242.144 582.208 241.856C581.536 241.552 580.968 241.136 580.504 240.608C580.056 240.064 579.712 239.416 579.472 238.664C579.248 237.896 579.136 237.056 579.136 236.144C579.136 234.848 579.312 233.648 579.664 232.544C580.032 231.424 580.504 230.408 581.08 229.496C581.656 228.584 582.312 227.776 583.048 227.072C583.8 226.352 584.56 225.744 585.328 225.248H587.224C586.296 225.888 585.472 226.528 584.752 227.168C584.032 227.808 583.4 228.488 582.856 229.208C582.312 229.912 581.856 230.672 581.488 231.488C581.136 232.304 580.856 233.2 580.648 234.176L580.744 234.2C581.16 233.448 581.704 232.856 582.376 232.424C583.064 231.976 583.912 231.752 584.92 231.752C585.656 231.752 586.328 231.872 586.936 232.112C587.56 232.352 588.088 232.696 588.52 233.144C588.968 233.576 589.312 234.112 589.552 234.752C589.792 235.376 589.912 236.08 589.912 236.864C589.912 237.68 589.784 238.424 589.528 239.096C589.272 239.752 588.912 240.32 588.448 240.8C587.984 241.264 587.424 241.632 586.768 241.904C586.112 242.16 585.376 242.288 584.56 242.288ZM584.536 241.04C585.752 241.04 586.704 240.696 587.392 240.008C588.08 239.304 588.424 238.368 588.424 237.2V236.792C588.424 235.624 588.08 234.696 587.392 234.008C586.72 233.32 585.768 232.976 584.536 232.976C583.288 232.976 582.32 233.32 581.632 234.008C580.96 234.696 580.624 235.624 580.624 236.792V237.176C580.624 238.36 580.968 239.304 581.656 240.008C582.344 240.696 583.304 241.04 584.536 241.04Z" fill="white"/>
</g>
<defs>
<clipPath id="clip0_1_1596">
<rect width="1440" height="838" fill="white"/>
</clipPath>
</defs>
</svg>
