<svg width="1440" height="1593" viewBox="0 0 1440 1593" fill="none" xmlns="http://www.w3.org/2000/svg">
<g clip-path="url(#clip0_1_1301)">
<rect width="1440" height="1593" fill="#F7F6F0"/>
<rect y="334.431" width="360.086" height="334.431" fill="#E1C4C4"/>
<rect y="334.431" width="360.086" height="334.431" stroke="#262526"/>
<rect x="360.084" width="360.086" height="334.431" fill="#262526"/>
<rect x="360.084" width="360.086" height="334.431" stroke="#262526"/>
<rect x="1080.26" width="360.086" height="334.431" fill="#F8EDEB"/>
<rect x="1080.26" width="360.086" height="334.431" stroke="#262526"/>
<rect x="720.171" width="360.086" height="334.431" fill="#F7F6F0"/>
<rect x="720.171" width="360.086" height="334.431" stroke="#262526"/>
<rect x="360.084" y="334.431" width="360.086" height="334.431" fill="#E2D5CA"/>
<rect x="360.084" y="334.431" width="360.086" height="334.431" stroke="#262526"/>
<rect x="1080.26" y="334.431" width="360.086" height="334.431" fill="#C8D2C9"/>
<rect x="1080.26" y="334.431" width="360.086" height="334.431" stroke="#262526"/>
<rect x="720.171" y="334.431" width="360.086" height="334.431" fill="#C9BFA3"/>
<rect x="720.171" y="334.431" width="360.086" height="334.431" stroke="#262526"/>
<path d="M1240.59 149.832H1245.53C1246.46 149.832 1247.18 150.093 1247.71 150.616C1248.24 151.139 1248.51 151.837 1248.51 152.712C1248.51 153.128 1248.45 153.485 1248.33 153.784C1248.21 154.072 1248.06 154.312 1247.88 154.504C1247.7 154.685 1247.49 154.824 1247.26 154.92C1247.02 155.005 1246.79 155.059 1246.57 155.08V155.176C1246.79 155.187 1247.04 155.24 1247.31 155.336C1247.58 155.432 1247.84 155.587 1248.07 155.8C1248.31 156.003 1248.51 156.269 1248.67 156.6C1248.83 156.92 1248.91 157.315 1248.91 157.784C1248.91 158.232 1248.83 158.653 1248.68 159.048C1248.54 159.443 1248.35 159.784 1248.09 160.072C1247.83 160.36 1247.53 160.589 1247.18 160.76C1246.83 160.92 1246.44 161 1246.03 161H1240.59V149.832ZM1242.39 159.448H1245.5C1245.97 159.448 1246.34 159.325 1246.6 159.08C1246.87 158.835 1247 158.483 1247 158.024V157.48C1247 157.021 1246.87 156.669 1246.6 156.424C1246.34 156.179 1245.97 156.056 1245.5 156.056H1242.39V159.448ZM1242.39 154.552H1245.19C1245.64 154.552 1245.99 154.44 1246.23 154.216C1246.48 153.981 1246.6 153.651 1246.6 153.224V152.712C1246.6 152.285 1246.48 151.96 1246.23 151.736C1245.99 151.501 1245.64 151.384 1245.19 151.384H1242.39V154.552ZM1252.78 161C1252.18 161 1251.74 160.851 1251.44 160.552C1251.15 160.243 1251.01 159.816 1251.01 159.272V149.16H1252.75V159.576H1253.9V161H1252.78ZM1260.61 159.624H1260.54C1260.47 159.827 1260.37 160.024 1260.24 160.216C1260.12 160.408 1259.97 160.579 1259.78 160.728C1259.59 160.867 1259.37 160.979 1259.1 161.064C1258.85 161.149 1258.55 161.192 1258.21 161.192C1257.34 161.192 1256.67 160.915 1256.19 160.36C1255.72 159.805 1255.49 159.011 1255.49 157.976V152.68H1257.23V157.752C1257.23 159.043 1257.77 159.688 1258.83 159.688C1259.06 159.688 1259.27 159.661 1259.49 159.608C1259.7 159.544 1259.89 159.453 1260.05 159.336C1260.22 159.219 1260.35 159.069 1260.45 158.888C1260.55 158.707 1260.61 158.493 1260.61 158.248V152.68H1262.35V161H1260.61V159.624ZM1267.49 161.192C1266.7 161.192 1266.04 161.053 1265.51 160.776C1264.97 160.499 1264.51 160.115 1264.11 159.624L1265.23 158.6C1265.54 158.973 1265.88 159.267 1266.26 159.48C1266.64 159.683 1267.08 159.784 1267.59 159.784C1268.1 159.784 1268.48 159.688 1268.72 159.496C1268.98 159.293 1269.11 159.016 1269.11 158.664C1269.11 158.397 1269.01 158.173 1268.83 157.992C1268.66 157.8 1268.36 157.677 1267.92 157.624L1267.15 157.528C1266.3 157.421 1265.63 157.176 1265.14 156.792C1264.66 156.397 1264.42 155.816 1264.42 155.048C1264.42 154.643 1264.49 154.285 1264.64 153.976C1264.79 153.656 1265 153.389 1265.27 153.176C1265.54 152.952 1265.87 152.781 1266.24 152.664C1266.63 152.547 1267.05 152.488 1267.51 152.488C1268.25 152.488 1268.86 152.605 1269.33 152.84C1269.81 153.075 1270.24 153.4 1270.61 153.816L1269.54 154.84C1269.32 154.584 1269.04 154.365 1268.69 154.184C1268.35 153.992 1267.95 153.896 1267.51 153.896C1267.03 153.896 1266.67 153.992 1266.43 154.184C1266.21 154.376 1266.1 154.627 1266.1 154.936C1266.1 155.256 1266.2 155.496 1266.4 155.656C1266.6 155.816 1266.93 155.933 1267.38 156.008L1268.15 156.104C1269.06 156.243 1269.73 156.515 1270.15 156.92C1270.57 157.315 1270.79 157.848 1270.79 158.52C1270.79 158.925 1270.71 159.293 1270.55 159.624C1270.4 159.944 1270.18 160.221 1269.89 160.456C1269.6 160.691 1269.25 160.872 1268.85 161C1268.44 161.128 1267.99 161.192 1267.49 161.192ZM1272.76 149.16H1274.5V154.056H1274.58C1274.76 153.608 1275.03 153.235 1275.4 152.936C1275.77 152.637 1276.28 152.488 1276.92 152.488C1277.77 152.488 1278.43 152.771 1278.9 153.336C1279.38 153.891 1279.62 154.685 1279.62 155.72V161H1277.88V155.928C1277.88 154.637 1277.35 153.992 1276.31 153.992C1276.08 153.992 1275.86 154.024 1275.64 154.088C1275.42 154.141 1275.23 154.227 1275.06 154.344C1274.89 154.461 1274.75 154.611 1274.64 154.792C1274.55 154.973 1274.5 155.181 1274.5 155.416V161H1272.76V149.16ZM1232.09 181.624H1229.44L1228.85 185H1228.09L1228.67 181.624H1226.49V180.92H1228.8L1229.31 177.912H1227.12V177.208H1229.44L1230.01 173.832H1230.77L1230.19 177.208H1232.85L1233.42 173.832H1234.19L1233.6 177.208H1235.79V177.912H1233.47L1232.97 180.92H1235.17V181.624H1232.85L1232.27 185H1231.5L1232.09 181.624ZM1232.21 180.92L1232.72 177.912H1230.06L1229.55 180.92H1232.21ZM1238.43 185V173.832H1244.96V174.68H1239.39V178.904H1244.68V179.752H1239.39V184.152H1244.96V185H1238.43ZM1247.47 185V184.152H1250.74V174.536H1250.66L1247.58 177.272L1247.04 176.664L1250.22 173.832H1251.7V184.152H1254.77V185H1247.47ZM1260.99 185.192C1259.6 185.192 1258.53 184.712 1257.77 183.752C1257.01 182.781 1256.63 181.347 1256.63 179.448C1256.63 177.56 1257.01 176.12 1257.77 175.128C1258.53 174.136 1259.6 173.64 1260.99 173.64C1261.88 173.64 1262.63 173.853 1263.24 174.28C1263.86 174.707 1264.34 175.288 1264.68 176.024L1263.9 176.488C1263.65 175.88 1263.28 175.4 1262.78 175.048C1262.29 174.685 1261.69 174.504 1260.99 174.504C1259.94 174.504 1259.12 174.877 1258.54 175.624C1257.95 176.371 1257.66 177.437 1257.66 178.824V180.088C1257.66 181.464 1257.95 182.515 1258.54 183.24C1259.12 183.965 1259.94 184.328 1260.99 184.328C1261.73 184.328 1262.36 184.141 1262.86 183.768C1263.36 183.384 1263.73 182.872 1263.98 182.232L1264.76 182.696C1264.43 183.464 1263.95 184.072 1263.31 184.52C1262.67 184.968 1261.89 185.192 1260.99 185.192ZM1271.72 185V182.664H1266.17V181.816L1271.26 173.832H1272.64V181.864H1274.36V182.664H1272.64V185H1271.72ZM1267.07 181.864H1271.72V174.648H1271.68L1267.07 181.864ZM1280.45 185.192C1279.07 185.192 1278 184.712 1277.24 183.752C1276.48 182.781 1276.1 181.347 1276.1 179.448C1276.1 177.56 1276.48 176.12 1277.24 175.128C1278 174.136 1279.07 173.64 1280.45 173.64C1281.35 173.64 1282.1 173.853 1282.71 174.28C1283.33 174.707 1283.81 175.288 1284.15 176.024L1283.37 176.488C1283.12 175.88 1282.75 175.4 1282.25 175.048C1281.76 174.685 1281.16 174.504 1280.45 174.504C1279.41 174.504 1278.59 174.877 1278.01 175.624C1277.42 176.371 1277.13 177.437 1277.13 178.824V180.088C1277.13 181.464 1277.42 182.515 1278.01 183.24C1278.59 183.965 1279.41 184.328 1280.45 184.328C1281.2 184.328 1281.82 184.141 1282.33 183.768C1282.83 183.384 1283.2 182.872 1283.45 182.232L1284.23 182.696C1283.9 183.464 1283.41 184.072 1282.77 184.52C1282.13 184.968 1281.36 185.192 1280.45 185.192ZM1291.19 185V182.664H1285.64V181.816L1290.73 173.832H1292.1V181.864H1293.83V182.664H1292.1V185H1291.19ZM1286.54 181.864H1291.19V174.648H1291.14L1286.54 181.864Z" fill="#262526"/>
<path d="M882.029 161.192C880.568 161.192 879.421 160.701 878.589 159.72C877.757 158.728 877.341 157.293 877.341 155.416C877.341 154.477 877.448 153.651 877.661 152.936C877.874 152.221 878.184 151.619 878.589 151.128C878.994 150.637 879.485 150.269 880.061 150.024C880.648 149.768 881.304 149.64 882.029 149.64C883 149.64 883.81 149.853 884.461 150.28C885.122 150.707 885.64 151.336 886.013 152.168L884.493 153C884.301 152.467 884.002 152.045 883.597 151.736C883.202 151.416 882.68 151.256 882.029 151.256C881.165 151.256 880.488 151.549 879.997 152.136C879.506 152.723 879.261 153.533 879.261 154.568V156.264C879.261 157.299 879.506 158.109 879.997 158.696C880.488 159.283 881.165 159.576 882.029 159.576C882.701 159.576 883.245 159.405 883.661 159.064C884.088 158.712 884.402 158.264 884.605 157.72L886.061 158.6C885.688 159.411 885.165 160.045 884.493 160.504C883.821 160.963 883 161.192 882.029 161.192ZM887.85 161V152.68H889.594V154.28H889.674C889.791 153.853 890.036 153.48 890.41 153.16C890.783 152.84 891.3 152.68 891.962 152.68H892.426V154.36H891.738C891.044 154.36 890.511 154.472 890.138 154.696C889.775 154.92 889.594 155.251 889.594 155.688V161H887.85ZM897.16 161.192C896.563 161.192 896.03 161.091 895.56 160.888C895.091 160.685 894.691 160.397 894.36 160.024C894.03 159.64 893.774 159.181 893.592 158.648C893.422 158.104 893.336 157.501 893.336 156.84C893.336 156.179 893.422 155.581 893.592 155.048C893.774 154.504 894.03 154.045 894.36 153.672C894.691 153.288 895.091 152.995 895.56 152.792C896.03 152.589 896.563 152.488 897.16 152.488C897.768 152.488 898.302 152.595 898.76 152.808C899.23 153.021 899.619 153.32 899.928 153.704C900.238 154.077 900.467 154.515 900.616 155.016C900.776 155.517 900.856 156.056 900.856 156.632V157.288H895.144V157.56C895.144 158.2 895.331 158.728 895.704 159.144C896.088 159.549 896.632 159.752 897.336 159.752C897.848 159.752 898.28 159.64 898.632 159.416C898.984 159.192 899.283 158.888 899.528 158.504L900.552 159.512C900.243 160.024 899.795 160.435 899.208 160.744C898.622 161.043 897.939 161.192 897.16 161.192ZM897.16 153.848C896.862 153.848 896.584 153.901 896.328 154.008C896.083 154.115 895.87 154.264 895.688 154.456C895.518 154.648 895.384 154.877 895.288 155.144C895.192 155.411 895.144 155.704 895.144 156.024V156.136H899.016V155.976C899.016 155.336 898.851 154.824 898.52 154.44C898.19 154.045 897.736 153.848 897.16 153.848ZM902.787 161V152.68H904.531V154.056H904.611C904.696 153.843 904.798 153.64 904.915 153.448C905.043 153.256 905.192 153.091 905.363 152.952C905.544 152.803 905.752 152.691 905.987 152.616C906.232 152.531 906.515 152.488 906.835 152.488C907.4 152.488 907.902 152.627 908.339 152.904C908.776 153.181 909.096 153.608 909.299 154.184H909.347C909.496 153.715 909.784 153.315 910.211 152.984C910.638 152.653 911.187 152.488 911.859 152.488C912.691 152.488 913.336 152.771 913.795 153.336C914.254 153.891 914.483 154.685 914.483 155.72V161H912.739V155.928C912.739 155.288 912.616 154.808 912.371 154.488C912.126 154.157 911.736 153.992 911.203 153.992C910.979 153.992 910.766 154.024 910.563 154.088C910.36 154.141 910.179 154.227 910.019 154.344C909.87 154.461 909.747 154.611 909.651 154.792C909.555 154.973 909.507 155.181 909.507 155.416V161H907.763V155.928C907.763 154.637 907.256 153.992 906.243 153.992C906.03 153.992 905.816 154.024 905.603 154.088C905.4 154.141 905.219 154.227 905.059 154.344C904.899 154.461 904.771 154.611 904.675 154.792C904.579 154.973 904.531 155.181 904.531 155.416V161H902.787ZM920.16 161.192C919.563 161.192 919.03 161.091 918.56 160.888C918.091 160.685 917.691 160.397 917.36 160.024C917.03 159.64 916.774 159.181 916.592 158.648C916.422 158.104 916.336 157.501 916.336 156.84C916.336 156.179 916.422 155.581 916.592 155.048C916.774 154.504 917.03 154.045 917.36 153.672C917.691 153.288 918.091 152.995 918.56 152.792C919.03 152.589 919.563 152.488 920.16 152.488C920.768 152.488 921.302 152.595 921.76 152.808C922.23 153.021 922.619 153.32 922.928 153.704C923.238 154.077 923.467 154.515 923.616 155.016C923.776 155.517 923.856 156.056 923.856 156.632V157.288H918.144V157.56C918.144 158.2 918.331 158.728 918.704 159.144C919.088 159.549 919.632 159.752 920.336 159.752C920.848 159.752 921.28 159.64 921.632 159.416C921.984 159.192 922.283 158.888 922.528 158.504L923.552 159.512C923.243 160.024 922.795 160.435 922.208 160.744C921.622 161.043 920.939 161.192 920.16 161.192ZM920.16 153.848C919.862 153.848 919.584 153.901 919.328 154.008C919.083 154.115 918.87 154.264 918.688 154.456C918.518 154.648 918.384 154.877 918.288 155.144C918.192 155.411 918.144 155.704 918.144 156.024V156.136H922.016V155.976C922.016 155.336 921.851 154.824 921.52 154.44C921.19 154.045 920.736 153.848 920.16 153.848ZM873.867 181.624H871.211L870.619 185H869.867L870.443 181.624H868.267V180.92H870.571L871.083 177.912H868.891V177.208H871.211L871.787 173.832H872.539L871.963 177.208H874.619L875.195 173.832H875.963L875.371 177.208H877.563V177.912H875.243L874.747 180.92H876.939V181.624H874.619L874.043 185H873.275L873.867 181.624ZM873.979 180.92L874.491 177.912H871.835L871.323 180.92H873.979ZM880.201 185V173.832H886.585V174.68H881.161V178.904H886.217V179.752H881.161V185H880.201ZM890.294 185L894.774 174.664H889.43V176.968H888.566V173.832H895.75V174.68L891.318 185H890.294ZM898.592 185V173.832H904.976V174.68H899.552V178.904H904.608V179.752H899.552V185H898.592ZM910.621 185.192C910.023 185.192 909.501 185.096 909.053 184.904C908.605 184.701 908.226 184.424 907.917 184.072C907.618 183.709 907.389 183.277 907.229 182.776C907.079 182.264 907.005 181.704 907.005 181.096C907.005 180.232 907.122 179.432 907.357 178.696C907.602 177.949 907.917 177.272 908.301 176.664C908.685 176.056 909.122 175.517 909.613 175.048C910.114 174.568 910.621 174.163 911.133 173.832H912.397C911.778 174.259 911.229 174.685 910.749 175.112C910.269 175.539 909.847 175.992 909.485 176.472C909.122 176.941 908.818 177.448 908.573 177.992C908.338 178.536 908.151 179.133 908.013 179.784L908.077 179.8C908.354 179.299 908.717 178.904 909.165 178.616C909.623 178.317 910.189 178.168 910.861 178.168C911.351 178.168 911.799 178.248 912.205 178.408C912.621 178.568 912.973 178.797 913.261 179.096C913.559 179.384 913.789 179.741 913.949 180.168C914.109 180.584 914.189 181.053 914.189 181.576C914.189 182.12 914.103 182.616 913.933 183.064C913.762 183.501 913.522 183.88 913.213 184.2C912.903 184.509 912.53 184.755 912.093 184.936C911.655 185.107 911.165 185.192 910.621 185.192ZM910.605 184.36C911.415 184.36 912.05 184.131 912.509 183.672C912.967 183.203 913.197 182.579 913.197 181.8V181.528C913.197 180.749 912.967 180.131 912.509 179.672C912.061 179.213 911.426 178.984 910.605 178.984C909.773 178.984 909.127 179.213 908.669 179.672C908.221 180.131 907.997 180.749 907.997 181.528V181.784C907.997 182.573 908.226 183.203 908.685 183.672C909.143 184.131 909.783 184.36 910.605 184.36ZM916.982 185V173.832H923.366V174.68H917.942V178.904H922.998V179.752H917.942V185H916.982ZM928.995 185.192C926.478 185.192 925.219 183.267 925.219 179.416C925.219 175.565 926.478 173.64 928.995 173.64C931.513 173.64 932.771 175.565 932.771 179.416C932.771 183.267 931.513 185.192 928.995 185.192ZM928.995 184.36C929.934 184.36 930.627 183.987 931.075 183.24C931.534 182.493 931.763 181.469 931.763 180.168V178.664C931.763 177.363 931.534 176.339 931.075 175.592C930.627 174.845 929.934 174.472 928.995 174.472C928.046 174.472 927.347 174.845 926.899 175.592C926.451 176.339 926.227 177.363 926.227 178.664V180.168C926.227 181.469 926.451 182.493 926.899 183.24C927.347 183.987 928.046 184.36 928.995 184.36Z" fill="#262526"/>
<path d="M520.931 496V484.832H522.739V494.4H527.283V496H520.931ZM529.886 486.192C529.523 486.192 529.256 486.107 529.086 485.936C528.926 485.765 528.846 485.547 528.846 485.28V485.008C528.846 484.741 528.926 484.523 529.086 484.352C529.256 484.181 529.523 484.096 529.886 484.096C530.248 484.096 530.51 484.181 530.67 484.352C530.83 484.523 530.91 484.741 530.91 485.008V485.28C530.91 485.547 530.83 485.765 530.67 485.936C530.51 486.107 530.248 486.192 529.886 486.192ZM529.006 487.68H530.75V496H529.006V487.68ZM533.24 496V487.68H534.984V489.056H535.064C535.246 488.608 535.518 488.235 535.88 487.936C536.254 487.637 536.76 487.488 537.4 487.488C538.254 487.488 538.915 487.771 539.384 488.336C539.864 488.891 540.104 489.685 540.104 490.72V496H538.36V490.944C538.36 489.643 537.838 488.992 536.792 488.992C536.568 488.992 536.344 489.024 536.12 489.088C535.907 489.141 535.715 489.227 535.544 489.344C535.374 489.461 535.235 489.611 535.128 489.792C535.032 489.973 534.984 490.187 534.984 490.432V496H533.24ZM545.785 496.192C545.188 496.192 544.655 496.091 544.185 495.888C543.716 495.685 543.316 495.397 542.985 495.024C542.655 494.64 542.399 494.181 542.217 493.648C542.047 493.104 541.961 492.501 541.961 491.84C541.961 491.179 542.047 490.581 542.217 490.048C542.399 489.504 542.655 489.045 542.985 488.672C543.316 488.288 543.716 487.995 544.185 487.792C544.655 487.589 545.188 487.488 545.785 487.488C546.393 487.488 546.927 487.595 547.385 487.808C547.855 488.021 548.244 488.32 548.553 488.704C548.863 489.077 549.092 489.515 549.241 490.016C549.401 490.517 549.481 491.056 549.481 491.632V492.288H543.769V492.56C543.769 493.2 543.956 493.728 544.329 494.144C544.713 494.549 545.257 494.752 545.961 494.752C546.473 494.752 546.905 494.64 547.257 494.416C547.609 494.192 547.908 493.888 548.153 493.504L549.177 494.512C548.868 495.024 548.42 495.435 547.833 495.744C547.247 496.043 546.564 496.192 545.785 496.192ZM545.785 488.848C545.487 488.848 545.209 488.901 544.953 489.008C544.708 489.115 544.495 489.264 544.313 489.456C544.143 489.648 544.009 489.877 543.913 490.144C543.817 490.411 543.769 490.704 543.769 491.024V491.136H547.641V490.976C547.641 490.336 547.476 489.824 547.145 489.44C546.815 489.045 546.361 488.848 545.785 488.848ZM551.412 496V487.68H553.156V489.056H553.236C553.417 488.608 553.689 488.235 554.052 487.936C554.425 487.637 554.932 487.488 555.572 487.488C556.425 487.488 557.087 487.771 557.556 488.336C558.036 488.891 558.276 489.685 558.276 490.72V496H556.532V490.944C556.532 489.643 556.009 488.992 554.964 488.992C554.74 488.992 554.516 489.024 554.292 489.088C554.079 489.141 553.887 489.227 553.716 489.344C553.545 489.461 553.407 489.611 553.3 489.792C553.204 489.973 553.156 490.187 553.156 490.432V496H551.412ZM511.015 516.624H508.359L507.767 520H507.015L507.591 516.624H505.415V515.92H507.719L508.231 512.912H506.039V512.208H508.359L508.935 508.832H509.687L509.111 512.208H511.767L512.343 508.832H513.111L512.519 512.208H514.711V512.912H512.391L511.895 515.92H514.087V516.624H511.767L511.191 520H510.423L511.015 516.624ZM511.127 515.92L511.639 512.912H508.983L508.471 515.92H511.127ZM517.35 520V508.832H523.878V509.68H518.31V513.904H523.606V514.752H518.31V519.152H523.878V520H517.35ZM533.401 520H526.233V519.024L530.137 515.28C530.66 514.768 531.086 514.245 531.417 513.712C531.748 513.168 531.913 512.613 531.913 512.048V511.744C531.913 511.083 531.721 510.544 531.337 510.128C530.953 509.712 530.377 509.504 529.609 509.504C528.862 509.504 528.292 509.691 527.897 510.064C527.502 510.437 527.214 510.923 527.033 511.52L526.169 511.2C526.276 510.859 526.42 510.533 526.601 510.224C526.782 509.915 527.012 509.643 527.289 509.408C527.577 509.173 527.913 508.987 528.297 508.848C528.681 508.709 529.129 508.64 529.641 508.64C530.164 508.64 530.628 508.72 531.033 508.88C531.449 509.029 531.796 509.243 532.073 509.52C532.361 509.797 532.574 510.133 532.713 510.528C532.862 510.912 532.937 511.344 532.937 511.824C532.937 512.229 532.884 512.613 532.777 512.976C532.67 513.328 532.521 513.669 532.329 514C532.137 514.32 531.902 514.64 531.625 514.96C531.348 515.269 531.044 515.579 530.713 515.888L527.273 519.152H533.401V520ZM536.131 508.832H539.683C541.123 508.832 542.232 509.296 543.011 510.224C543.8 511.152 544.195 512.549 544.195 514.416C544.195 516.283 543.8 517.68 543.011 518.608C542.232 519.536 541.123 520 539.683 520H536.131V508.832ZM539.699 519.152C540.798 519.152 541.651 518.8 542.259 518.096C542.867 517.381 543.171 516.4 543.171 515.152V513.68C543.171 512.432 542.867 511.456 542.259 510.752C541.651 510.037 540.798 509.68 539.699 509.68H537.091V519.152H539.699ZM553.059 509.68H548.067L547.715 514.352L547.811 514.368C548.088 513.973 548.414 513.68 548.787 513.488C549.16 513.285 549.646 513.184 550.243 513.184C550.734 513.184 551.182 513.264 551.587 513.424C551.992 513.573 552.339 513.797 552.627 514.096C552.915 514.384 553.134 514.741 553.283 515.168C553.443 515.584 553.523 516.059 553.523 516.592C553.523 517.136 553.438 517.632 553.267 518.08C553.107 518.517 552.872 518.896 552.563 519.216C552.254 519.525 551.875 519.765 551.427 519.936C550.99 520.107 550.494 520.192 549.939 520.192C549.502 520.192 549.107 520.144 548.755 520.048C548.403 519.963 548.088 519.84 547.811 519.68C547.534 519.509 547.283 519.312 547.059 519.088C546.846 518.864 546.654 518.624 546.483 518.368L547.203 517.824C547.512 518.304 547.87 518.677 548.275 518.944C548.691 519.2 549.246 519.328 549.939 519.328C550.771 519.328 551.406 519.104 551.843 518.656C552.291 518.197 552.515 517.579 552.515 516.8V516.528C552.515 515.749 552.296 515.136 551.859 514.688C551.432 514.229 550.808 514 549.987 514C549.699 514 549.443 514.027 549.219 514.08C548.995 514.123 548.792 514.192 548.611 514.288C548.44 514.373 548.28 514.48 548.131 514.608C547.992 514.725 547.854 514.864 547.715 515.024L546.883 514.896L547.283 508.832H553.059V509.68ZM560.157 520.192C558.77 520.192 557.698 519.712 556.941 518.752C556.184 517.781 555.805 516.347 555.805 514.448C555.805 512.56 556.184 511.12 556.941 510.128C557.698 509.136 558.77 508.64 560.157 508.64C561.053 508.64 561.805 508.853 562.413 509.28C563.032 509.707 563.512 510.288 563.853 511.024L563.069 511.488C562.824 510.88 562.45 510.4 561.949 510.048C561.458 509.685 560.861 509.504 560.157 509.504C559.112 509.504 558.296 509.877 557.709 510.624C557.122 511.371 556.829 512.437 556.829 513.824V515.088C556.829 516.464 557.122 517.515 557.709 518.24C558.296 518.965 559.112 519.328 560.157 519.328C560.904 519.328 561.528 519.141 562.029 518.768C562.53 518.384 562.904 517.872 563.149 517.232L563.933 517.696C563.602 518.464 563.117 519.072 562.477 519.52C561.837 519.968 561.064 520.192 560.157 520.192ZM573.217 520L572.001 516.528H567.249L566.033 520H565.073L569.025 508.832H570.257L574.225 520H573.217ZM569.649 509.744H569.585L567.489 515.696H571.745L569.649 509.744Z" fill="#262526"/>
<path d="M1222.22 496.192C1220.76 496.192 1219.62 495.701 1218.78 494.72C1217.95 493.728 1217.54 492.293 1217.54 490.416C1217.54 489.477 1217.64 488.651 1217.86 487.936C1218.07 487.221 1218.38 486.619 1218.78 486.128C1219.19 485.637 1219.68 485.269 1220.26 485.024C1220.84 484.768 1221.5 484.64 1222.22 484.64C1223.19 484.64 1224.01 484.853 1224.66 485.28C1225.32 485.707 1225.83 486.336 1226.21 487.168L1224.69 488C1224.5 487.467 1224.2 487.045 1223.79 486.736C1223.4 486.416 1222.87 486.256 1222.22 486.256C1221.36 486.256 1220.68 486.549 1220.19 487.136C1219.7 487.723 1219.46 488.533 1219.46 489.568V491.264C1219.46 492.299 1219.7 493.109 1220.19 493.696C1220.68 494.283 1221.36 494.576 1222.22 494.576C1222.9 494.576 1223.44 494.405 1223.86 494.064C1224.28 493.712 1224.6 493.264 1224.8 492.72L1226.26 493.6C1225.88 494.411 1225.36 495.045 1224.69 495.504C1224.02 495.963 1223.19 496.192 1222.22 496.192ZM1231.31 496.192C1230.73 496.192 1230.2 496.091 1229.72 495.888C1229.26 495.685 1228.86 495.397 1228.52 495.024C1228.19 494.64 1227.94 494.181 1227.76 493.648C1227.58 493.104 1227.48 492.501 1227.48 491.84C1227.48 491.179 1227.58 490.581 1227.76 490.048C1227.94 489.504 1228.19 489.045 1228.52 488.672C1228.86 488.288 1229.26 487.995 1229.72 487.792C1230.2 487.589 1230.73 487.488 1231.31 487.488C1231.88 487.488 1232.41 487.589 1232.88 487.792C1233.36 487.995 1233.76 488.288 1234.09 488.672C1234.42 489.045 1234.68 489.504 1234.86 490.048C1235.04 490.581 1235.13 491.179 1235.13 491.84C1235.13 492.501 1235.04 493.104 1234.86 493.648C1234.68 494.181 1234.42 494.64 1234.09 495.024C1233.76 495.397 1233.36 495.685 1232.88 495.888C1232.41 496.091 1231.88 496.192 1231.31 496.192ZM1231.31 494.752C1231.91 494.752 1232.39 494.571 1232.75 494.208C1233.11 493.835 1233.29 493.28 1233.29 492.544V491.136C1233.29 490.4 1233.11 489.851 1232.75 489.488C1232.39 489.115 1231.91 488.928 1231.31 488.928C1230.71 488.928 1230.23 489.115 1229.87 489.488C1229.51 489.851 1229.32 490.4 1229.32 491.136V492.544C1229.32 493.28 1229.51 493.835 1229.87 494.208C1230.23 494.571 1230.71 494.752 1231.31 494.752ZM1237.08 496V487.68H1238.82V489.28H1238.9C1239.02 488.853 1239.26 488.48 1239.64 488.16C1240.01 487.84 1240.53 487.68 1241.19 487.68H1241.65V489.36H1240.96C1240.27 489.36 1239.74 489.472 1239.36 489.696C1239 489.92 1238.82 490.251 1238.82 490.688V496H1237.08ZM1249.17 496C1248.71 496 1248.36 495.872 1248.12 495.616C1247.87 495.349 1247.72 495.013 1247.67 494.608H1247.59C1247.43 495.131 1247.13 495.525 1246.71 495.792C1246.28 496.059 1245.76 496.192 1245.16 496.192C1244.29 496.192 1243.63 495.968 1243.16 495.52C1242.7 495.072 1242.47 494.469 1242.47 493.712C1242.47 492.88 1242.77 492.256 1243.36 491.84C1243.97 491.424 1244.86 491.216 1246.02 491.216H1247.52V490.512C1247.52 490 1247.39 489.605 1247.11 489.328C1246.83 489.051 1246.4 488.912 1245.81 488.912C1245.32 488.912 1244.92 489.019 1244.61 489.232C1244.3 489.445 1244.04 489.717 1243.83 490.048L1242.79 489.104C1243.07 488.635 1243.45 488.251 1243.96 487.952C1244.46 487.643 1245.11 487.488 1245.92 487.488C1247 487.488 1247.83 487.739 1248.4 488.24C1248.98 488.741 1249.27 489.461 1249.27 490.4V494.576H1250.15V496H1249.17ZM1245.65 494.864C1246.2 494.864 1246.64 494.747 1247 494.512C1247.35 494.267 1247.52 493.941 1247.52 493.536V492.336H1246.05C1244.85 492.336 1244.24 492.709 1244.24 493.456V493.744C1244.24 494.117 1244.37 494.4 1244.61 494.592C1244.87 494.773 1245.21 494.864 1245.65 494.864ZM1253.63 496C1253.04 496 1252.59 495.851 1252.29 495.552C1252 495.243 1251.86 494.816 1251.86 494.272V484.16H1253.6V494.576H1254.75V496H1253.63ZM1267.51 494.304H1267.45C1267.33 494.848 1267.01 495.301 1266.49 495.664C1265.98 496.016 1265.29 496.192 1264.44 496.192C1263.78 496.192 1263.17 496.069 1262.6 495.824C1262.04 495.568 1261.55 495.2 1261.13 494.72C1260.72 494.229 1260.4 493.627 1260.17 492.912C1259.95 492.187 1259.83 491.355 1259.83 490.416C1259.83 489.488 1259.95 488.667 1260.19 487.952C1260.42 487.227 1260.75 486.619 1261.18 486.128C1261.6 485.637 1262.12 485.269 1262.71 485.024C1263.31 484.768 1263.98 484.64 1264.71 484.64C1265.72 484.64 1266.56 484.864 1267.26 485.312C1267.95 485.749 1268.49 486.363 1268.87 487.152L1267.4 488.016C1267.19 487.493 1266.86 487.072 1266.41 486.752C1265.96 486.421 1265.4 486.256 1264.71 486.256C1263.83 486.256 1263.11 486.539 1262.57 487.104C1262.04 487.669 1261.77 488.469 1261.77 489.504V491.328C1261.77 492.363 1262.04 493.163 1262.57 493.728C1263.11 494.293 1263.83 494.576 1264.71 494.576C1265.07 494.576 1265.4 494.533 1265.72 494.448C1266.04 494.352 1266.32 494.219 1266.55 494.048C1266.8 493.867 1266.99 493.648 1267.13 493.392C1267.28 493.125 1267.35 492.816 1267.35 492.464V491.6H1265.05V490.048H1269.1V496H1267.51V494.304ZM1271.48 496V487.68H1273.23V489.28H1273.31C1273.42 488.853 1273.67 488.48 1274.04 488.16C1274.42 487.84 1274.93 487.68 1275.59 487.68H1276.06V489.36H1275.37C1274.68 489.36 1274.14 489.472 1273.77 489.696C1273.41 489.92 1273.23 490.251 1273.23 490.688V496H1271.48ZM1280.79 496.192C1280.2 496.192 1279.66 496.091 1279.19 495.888C1278.72 495.685 1278.32 495.397 1277.99 495.024C1277.66 494.64 1277.41 494.181 1277.23 493.648C1277.05 493.104 1276.97 492.501 1276.97 491.84C1276.97 491.179 1277.05 490.581 1277.23 490.048C1277.41 489.504 1277.66 489.045 1277.99 488.672C1278.32 488.288 1278.72 487.995 1279.19 487.792C1279.66 487.589 1280.2 487.488 1280.79 487.488C1281.4 487.488 1281.93 487.595 1282.39 487.808C1282.86 488.021 1283.25 488.32 1283.56 488.704C1283.87 489.077 1284.1 489.515 1284.25 490.016C1284.41 490.517 1284.49 491.056 1284.49 491.632V492.288H1278.78V492.56C1278.78 493.2 1278.96 493.728 1279.34 494.144C1279.72 494.549 1280.27 494.752 1280.97 494.752C1281.48 494.752 1281.91 494.64 1282.27 494.416C1282.62 494.192 1282.92 493.888 1283.16 493.504L1284.19 494.512C1283.88 495.024 1283.43 495.435 1282.84 495.744C1282.25 496.043 1281.57 496.192 1280.79 496.192ZM1280.79 488.848C1280.49 488.848 1280.22 488.901 1279.96 489.008C1279.72 489.115 1279.5 489.264 1279.32 489.456C1279.15 489.648 1279.02 489.877 1278.92 490.144C1278.83 490.411 1278.78 490.704 1278.78 491.024V491.136H1282.65V490.976C1282.65 490.336 1282.48 489.824 1282.15 489.44C1281.82 489.045 1281.37 488.848 1280.79 488.848ZM1289.68 496.192C1289.09 496.192 1288.55 496.091 1288.08 495.888C1287.61 495.685 1287.21 495.397 1286.88 495.024C1286.55 494.64 1286.3 494.181 1286.12 493.648C1285.95 493.104 1285.86 492.501 1285.86 491.84C1285.86 491.179 1285.95 490.581 1286.12 490.048C1286.3 489.504 1286.55 489.045 1286.88 488.672C1287.21 488.288 1287.61 487.995 1288.08 487.792C1288.55 487.589 1289.09 487.488 1289.68 487.488C1290.29 487.488 1290.83 487.595 1291.28 487.808C1291.75 488.021 1292.14 488.32 1292.45 488.704C1292.76 489.077 1292.99 489.515 1293.14 490.016C1293.3 490.517 1293.38 491.056 1293.38 491.632V492.288H1287.67V492.56C1287.67 493.2 1287.85 493.728 1288.23 494.144C1288.61 494.549 1289.16 494.752 1289.86 494.752C1290.37 494.752 1290.8 494.64 1291.16 494.416C1291.51 494.192 1291.81 493.888 1292.05 493.504L1293.08 494.512C1292.77 495.024 1292.32 495.435 1291.73 495.744C1291.15 496.043 1290.46 496.192 1289.68 496.192ZM1289.68 488.848C1289.39 488.848 1289.11 488.901 1288.85 489.008C1288.61 489.115 1288.39 489.264 1288.21 489.456C1288.04 489.648 1287.91 489.877 1287.81 490.144C1287.72 490.411 1287.67 490.704 1287.67 491.024V491.136H1291.54V490.976C1291.54 490.336 1291.37 489.824 1291.04 489.44C1290.71 489.045 1290.26 488.848 1289.68 488.848ZM1295.31 496V487.68H1297.05V489.056H1297.13C1297.32 488.608 1297.59 488.235 1297.95 487.936C1298.32 487.637 1298.83 487.488 1299.47 487.488C1300.32 487.488 1300.99 487.771 1301.45 488.336C1301.93 488.891 1302.17 489.685 1302.17 490.72V496H1300.43V490.944C1300.43 489.643 1299.91 488.992 1298.86 488.992C1298.64 488.992 1298.41 489.024 1298.19 489.088C1297.98 489.141 1297.79 489.227 1297.61 489.344C1297.44 489.461 1297.31 489.611 1297.2 489.792C1297.1 489.973 1297.05 490.187 1297.05 490.432V496H1295.31ZM1231.36 516.624H1228.7L1228.11 520H1227.36L1227.94 516.624H1225.76V515.92H1228.06L1228.58 512.912H1226.38V512.208H1228.7L1229.28 508.832H1230.03L1229.46 512.208H1232.11L1232.69 508.832H1233.46L1232.86 512.208H1235.06V512.912H1232.74L1232.24 515.92H1234.43V516.624H1232.11L1231.54 520H1230.77L1231.36 516.624ZM1231.47 515.92L1231.98 512.912H1229.33L1228.82 515.92H1231.47ZM1241.47 520.192C1240.08 520.192 1239.01 519.712 1238.25 518.752C1237.5 517.781 1237.12 516.347 1237.12 514.448C1237.12 512.56 1237.5 511.12 1238.25 510.128C1239.01 509.136 1240.08 508.64 1241.47 508.64C1242.37 508.64 1243.12 508.853 1243.73 509.28C1244.34 509.707 1244.82 510.288 1245.17 511.024L1244.38 511.488C1244.14 510.88 1243.76 510.4 1243.26 510.048C1242.77 509.685 1242.17 509.504 1241.47 509.504C1240.42 509.504 1239.61 509.877 1239.02 510.624C1238.43 511.371 1238.14 512.437 1238.14 513.824V515.088C1238.14 516.464 1238.43 517.515 1239.02 518.24C1239.61 518.965 1240.42 519.328 1241.47 519.328C1242.22 519.328 1242.84 519.141 1243.34 518.768C1243.84 518.384 1244.22 517.872 1244.46 517.232L1245.25 517.696C1244.91 518.464 1244.43 519.072 1243.79 519.52C1243.15 519.968 1242.38 520.192 1241.47 520.192ZM1250.78 520.192C1250.18 520.192 1249.64 520.112 1249.17 519.952C1248.7 519.792 1248.3 519.573 1247.97 519.296C1247.65 519.019 1247.4 518.688 1247.23 518.304C1247.07 517.909 1246.99 517.483 1246.99 517.024C1246.99 516.245 1247.21 515.621 1247.63 515.152C1248.06 514.672 1248.63 514.352 1249.34 514.192V514.08C1248.74 513.909 1248.25 513.595 1247.89 513.136C1247.54 512.677 1247.36 512.112 1247.36 511.44C1247.36 510.587 1247.66 509.909 1248.26 509.408C1248.86 508.896 1249.71 508.64 1250.78 508.64C1251.86 508.64 1252.7 508.896 1253.3 509.408C1253.9 509.909 1254.21 510.587 1254.21 511.44C1254.21 512.112 1254.03 512.677 1253.66 513.136C1253.31 513.595 1252.83 513.909 1252.22 514.08V514.192C1252.94 514.352 1253.51 514.672 1253.94 515.152C1254.36 515.621 1254.58 516.245 1254.58 517.024C1254.58 517.483 1254.49 517.909 1254.32 518.304C1254.16 518.688 1253.92 519.019 1253.58 519.296C1253.26 519.573 1252.87 519.792 1252.4 519.952C1251.93 520.112 1251.39 520.192 1250.78 520.192ZM1250.78 519.36C1251.65 519.36 1252.33 519.163 1252.82 518.768C1253.31 518.363 1253.55 517.819 1253.55 517.136V516.768C1253.55 516.075 1253.31 515.531 1252.82 515.136C1252.33 514.741 1251.65 514.544 1250.78 514.544C1249.92 514.544 1249.24 514.741 1248.75 515.136C1248.26 515.531 1248.02 516.075 1248.02 516.768V517.136C1248.02 517.819 1248.26 518.363 1248.75 518.768C1249.24 519.163 1249.92 519.36 1250.78 519.36ZM1250.78 513.728C1251.55 513.728 1252.15 513.557 1252.58 513.216C1253 512.864 1253.22 512.373 1253.22 511.744V511.456C1253.22 510.837 1253 510.352 1252.58 510C1252.15 509.648 1251.55 509.472 1250.78 509.472C1250.02 509.472 1249.42 509.648 1248.99 510C1248.57 510.352 1248.35 510.837 1248.35 511.456V511.744C1248.35 512.373 1248.57 512.864 1248.99 513.216C1249.42 513.557 1250.02 513.728 1250.78 513.728ZM1257.16 508.832H1260.71C1262.15 508.832 1263.26 509.296 1264.04 510.224C1264.83 511.152 1265.23 512.549 1265.23 514.416C1265.23 516.283 1264.83 517.68 1264.04 518.608C1263.26 519.536 1262.15 520 1260.71 520H1257.16V508.832ZM1260.73 519.152C1261.83 519.152 1262.68 518.8 1263.29 518.096C1263.9 517.381 1264.2 516.4 1264.2 515.152V513.68C1264.2 512.432 1263.9 511.456 1263.29 510.752C1262.68 510.037 1261.83 509.68 1260.73 509.68H1258.12V519.152H1260.73ZM1274.68 520H1267.51V519.024L1271.42 515.28C1271.94 514.768 1272.37 514.245 1272.7 513.712C1273.03 513.168 1273.19 512.613 1273.19 512.048V511.744C1273.19 511.083 1273 510.544 1272.62 510.128C1272.23 509.712 1271.66 509.504 1270.89 509.504C1270.14 509.504 1269.57 509.691 1269.18 510.064C1268.78 510.437 1268.5 510.923 1268.31 511.52L1267.45 511.2C1267.56 510.859 1267.7 510.533 1267.88 510.224C1268.06 509.915 1268.29 509.643 1268.57 509.408C1268.86 509.173 1269.19 508.987 1269.58 508.848C1269.96 508.709 1270.41 508.64 1270.92 508.64C1271.45 508.64 1271.91 508.72 1272.31 508.88C1272.73 509.029 1273.08 509.243 1273.35 509.52C1273.64 509.797 1273.86 510.133 1273.99 510.528C1274.14 510.912 1274.22 511.344 1274.22 511.824C1274.22 512.229 1274.17 512.613 1274.06 512.976C1273.95 513.328 1273.8 513.669 1273.61 514C1273.42 514.32 1273.18 514.64 1272.91 514.96C1272.63 515.269 1272.33 515.579 1271.99 515.888L1268.55 519.152H1274.68V520ZM1281.19 520.192C1279.8 520.192 1278.73 519.712 1277.97 518.752C1277.21 517.781 1276.84 516.347 1276.84 514.448C1276.84 512.56 1277.21 511.12 1277.97 510.128C1278.73 509.136 1279.8 508.64 1281.19 508.64C1282.08 508.64 1282.84 508.853 1283.44 509.28C1284.06 509.707 1284.54 510.288 1284.88 511.024L1284.1 511.488C1283.85 510.88 1283.48 510.4 1282.98 510.048C1282.49 509.685 1281.89 509.504 1281.19 509.504C1280.14 509.504 1279.33 509.877 1278.74 510.624C1278.15 511.371 1277.86 512.437 1277.86 513.824V515.088C1277.86 516.464 1278.15 517.515 1278.74 518.24C1279.33 518.965 1280.14 519.328 1281.19 519.328C1281.93 519.328 1282.56 519.141 1283.06 518.768C1283.56 518.384 1283.93 517.872 1284.18 517.232L1284.96 517.696C1284.63 518.464 1284.15 519.072 1283.51 519.52C1282.87 519.968 1282.09 520.192 1281.19 520.192ZM1294.1 512.736C1294.1 513.6 1293.98 514.405 1293.74 515.152C1293.5 515.888 1293.19 516.56 1292.81 517.168C1292.42 517.776 1291.98 518.32 1291.48 518.8C1290.99 519.269 1290.49 519.669 1289.98 520H1288.73C1289.35 519.573 1289.9 519.147 1290.38 518.72C1290.86 518.293 1291.27 517.845 1291.62 517.376C1291.99 516.896 1292.28 516.389 1292.52 515.856C1292.76 515.312 1292.96 514.709 1293.1 514.048L1293.03 514.032C1292.75 514.533 1292.39 514.933 1291.93 515.232C1291.48 515.52 1290.92 515.664 1290.25 515.664C1289.76 515.664 1289.3 515.584 1288.89 515.424C1288.48 515.264 1288.13 515.04 1287.83 514.752C1287.54 514.453 1287.32 514.096 1287.16 513.68C1287 513.253 1286.92 512.779 1286.92 512.256C1286.92 511.712 1287 511.221 1287.18 510.784C1287.35 510.336 1287.59 509.957 1287.9 509.648C1288.2 509.328 1288.58 509.083 1289.02 508.912C1289.46 508.731 1289.96 508.64 1290.5 508.64C1291.09 508.64 1291.61 508.741 1292.06 508.944C1292.5 509.136 1292.88 509.413 1293.18 509.776C1293.48 510.128 1293.71 510.56 1293.86 511.072C1294.02 511.573 1294.1 512.128 1294.1 512.736ZM1290.52 514.848C1291.34 514.848 1291.98 514.619 1292.42 514.16C1292.88 513.701 1293.11 513.083 1293.11 512.304V512.048C1293.11 511.259 1292.88 510.635 1292.42 510.176C1291.96 509.707 1291.33 509.472 1290.52 509.472C1289.7 509.472 1289.06 509.707 1288.6 510.176C1288.14 510.635 1287.91 511.253 1287.91 512.032V512.304C1287.91 513.083 1288.14 513.701 1288.58 514.16C1289.04 514.619 1289.69 514.848 1290.52 514.848Z" fill="#262526"/>
<path d="M866.665 489.824L865.433 487.456H865.385V496H863.657V484.832H865.673L869.321 491.008L870.553 493.376H870.601V484.832H872.329V496H870.313L866.665 489.824ZM878.215 496.192C877.639 496.192 877.111 496.091 876.631 495.888C876.162 495.685 875.762 495.397 875.431 495.024C875.1 494.64 874.844 494.181 874.663 493.648C874.482 493.104 874.391 492.501 874.391 491.84C874.391 491.179 874.482 490.581 874.663 490.048C874.844 489.504 875.1 489.045 875.431 488.672C875.762 488.288 876.162 487.995 876.631 487.792C877.111 487.589 877.639 487.488 878.215 487.488C878.791 487.488 879.314 487.589 879.783 487.792C880.263 487.995 880.668 488.288 880.999 488.672C881.33 489.045 881.586 489.504 881.767 490.048C881.948 490.581 882.039 491.179 882.039 491.84C882.039 492.501 881.948 493.104 881.767 493.648C881.586 494.181 881.33 494.64 880.999 495.024C880.668 495.397 880.263 495.685 879.783 495.888C879.314 496.091 878.791 496.192 878.215 496.192ZM878.215 494.752C878.812 494.752 879.292 494.571 879.655 494.208C880.018 493.835 880.199 493.28 880.199 492.544V491.136C880.199 490.4 880.018 489.851 879.655 489.488C879.292 489.115 878.812 488.928 878.215 488.928C877.618 488.928 877.138 489.115 876.775 489.488C876.412 489.851 876.231 490.4 876.231 491.136V492.544C876.231 493.28 876.412 493.835 876.775 494.208C877.138 494.571 877.618 494.752 878.215 494.752ZM883.982 496V487.68H885.726V489.28H885.806C885.924 488.853 886.169 488.48 886.542 488.16C886.916 487.84 887.433 487.68 888.094 487.68H888.558V489.36H887.87C887.177 489.36 886.644 489.472 886.27 489.696C885.908 489.92 885.726 490.251 885.726 490.688V496H883.982ZM890.107 496V487.68H891.851V489.056H891.931C892.017 488.843 892.118 488.64 892.235 488.448C892.363 488.256 892.513 488.091 892.683 487.952C892.865 487.803 893.073 487.691 893.307 487.616C893.553 487.531 893.835 487.488 894.155 487.488C894.721 487.488 895.222 487.627 895.659 487.904C896.097 488.181 896.417 488.608 896.619 489.184H896.667C896.817 488.715 897.105 488.315 897.531 487.984C897.958 487.653 898.507 487.488 899.179 487.488C900.011 487.488 900.657 487.771 901.115 488.336C901.574 488.891 901.803 489.685 901.803 490.72V496H900.059V490.928C900.059 490.288 899.937 489.808 899.691 489.488C899.446 489.157 899.057 488.992 898.523 488.992C898.299 488.992 898.086 489.024 897.883 489.088C897.681 489.141 897.499 489.227 897.339 489.344C897.19 489.461 897.067 489.611 896.971 489.792C896.875 489.973 896.827 490.181 896.827 490.416V496H895.083V490.928C895.083 489.637 894.577 488.992 893.563 488.992C893.35 488.992 893.137 489.024 892.923 489.088C892.721 489.141 892.539 489.227 892.379 489.344C892.219 489.461 892.091 489.611 891.995 489.792C891.899 489.973 891.851 490.181 891.851 490.416V496H890.107ZM910.313 496C909.854 496 909.502 495.872 909.257 495.616C909.011 495.349 908.862 495.013 908.809 494.608H908.729C908.569 495.131 908.275 495.525 907.849 495.792C907.422 496.059 906.905 496.192 906.297 496.192C905.433 496.192 904.766 495.968 904.297 495.52C903.838 495.072 903.609 494.469 903.609 493.712C903.609 492.88 903.907 492.256 904.505 491.84C905.113 491.424 905.998 491.216 907.161 491.216H908.665V490.512C908.665 490 908.526 489.605 908.249 489.328C907.971 489.051 907.539 488.912 906.953 488.912C906.462 488.912 906.062 489.019 905.753 489.232C905.443 489.445 905.182 489.717 904.969 490.048L903.929 489.104C904.206 488.635 904.595 488.251 905.097 487.952C905.598 487.643 906.254 487.488 907.065 487.488C908.142 487.488 908.969 487.739 909.545 488.24C910.121 488.741 910.409 489.461 910.409 490.4V494.576H911.289V496H910.313ZM906.793 494.864C907.337 494.864 907.785 494.747 908.137 494.512C908.489 494.267 908.665 493.941 908.665 493.536V492.336H907.193C905.987 492.336 905.385 492.709 905.385 493.456V493.744C905.385 494.117 905.507 494.4 905.753 494.592C906.009 494.773 906.355 494.864 906.793 494.864ZM912.998 496V487.68H914.742V489.056H914.822C915.003 488.608 915.275 488.235 915.638 487.936C916.011 487.637 916.518 487.488 917.158 487.488C918.011 487.488 918.673 487.771 919.142 488.336C919.622 488.891 919.862 489.685 919.862 490.72V496H918.118V490.944C918.118 489.643 917.595 488.992 916.55 488.992C916.326 488.992 916.102 489.024 915.878 489.088C915.665 489.141 915.473 489.227 915.302 489.344C915.131 489.461 914.993 489.611 914.886 489.792C914.79 489.973 914.742 490.187 914.742 490.432V496H912.998ZM927.511 494.624H927.431C927.25 495.115 926.951 495.499 926.535 495.776C926.13 496.053 925.65 496.192 925.095 496.192C924.039 496.192 923.223 495.813 922.647 495.056C922.071 494.288 921.783 493.216 921.783 491.84C921.783 490.464 922.071 489.397 922.647 488.64C923.223 487.872 924.039 487.488 925.095 487.488C925.65 487.488 926.13 487.627 926.535 487.904C926.951 488.171 927.25 488.555 927.431 489.056H927.511V484.16H929.255V496H927.511V494.624ZM925.623 494.688C926.157 494.688 926.605 494.56 926.967 494.304C927.33 494.037 927.511 493.691 927.511 493.264V490.416C927.511 489.989 927.33 489.648 926.967 489.392C926.605 489.125 926.157 488.992 925.623 488.992C925.015 488.992 924.53 489.189 924.167 489.584C923.805 489.968 923.623 490.48 923.623 491.12V492.56C923.623 493.2 923.805 493.717 924.167 494.112C924.53 494.496 925.015 494.688 925.623 494.688ZM936.852 487.68H938.532L935.028 497.648C934.932 497.925 934.82 498.16 934.692 498.352C934.575 498.555 934.431 498.715 934.26 498.832C934.1 498.96 933.903 499.051 933.668 499.104C933.433 499.168 933.156 499.2 932.836 499.2H931.828V497.776H933.236L933.716 496.368L930.692 487.68H932.436L934.1 492.576L934.58 494.384H934.66L935.188 492.576L936.852 487.68ZM872.742 516.624H870.086L869.494 520H868.742L869.318 516.624H867.142V515.92H869.446L869.958 512.912H867.766V512.208H870.086L870.662 508.832H871.414L870.838 512.208H873.494L874.07 508.832H874.838L874.246 512.208H876.438V512.912H874.118L873.622 515.92H875.814V516.624H873.494L872.918 520H872.15L872.742 516.624ZM872.854 515.92L873.366 512.912H870.71L870.198 515.92H872.854ZM882.852 520.192C881.466 520.192 880.394 519.712 879.636 518.752C878.879 517.781 878.5 516.347 878.5 514.448C878.5 512.56 878.879 511.12 879.636 510.128C880.394 509.136 881.466 508.64 882.852 508.64C883.748 508.64 884.5 508.853 885.108 509.28C885.727 509.707 886.207 510.288 886.548 511.024L885.764 511.488C885.519 510.88 885.146 510.4 884.644 510.048C884.154 509.685 883.556 509.504 882.852 509.504C881.807 509.504 880.991 509.877 880.404 510.624C879.818 511.371 879.524 512.437 879.524 513.824V515.088C879.524 516.464 879.818 517.515 880.404 518.24C880.991 518.965 881.807 519.328 882.852 519.328C883.599 519.328 884.223 519.141 884.724 518.768C885.226 518.384 885.599 517.872 885.844 517.232L886.628 517.696C886.298 518.464 885.812 519.072 885.172 519.52C884.532 519.968 883.759 520.192 882.852 520.192ZM895.767 512.736C895.767 513.6 895.645 514.405 895.399 515.152C895.165 515.888 894.855 516.56 894.471 517.168C894.087 517.776 893.645 518.32 893.143 518.8C892.653 519.269 892.151 519.669 891.639 520H890.391C891.01 519.573 891.559 519.147 892.039 518.72C892.519 518.293 892.935 517.845 893.287 517.376C893.65 516.896 893.949 516.389 894.183 515.856C894.429 515.312 894.621 514.709 894.759 514.048L894.695 514.032C894.418 514.533 894.05 514.933 893.591 515.232C893.143 515.52 892.583 515.664 891.911 515.664C891.421 515.664 890.967 515.584 890.551 515.424C890.146 515.264 889.794 515.04 889.495 514.752C889.207 514.453 888.983 514.096 888.823 513.68C888.663 513.253 888.583 512.779 888.583 512.256C888.583 511.712 888.669 511.221 888.839 510.784C889.01 510.336 889.25 509.957 889.559 509.648C889.869 509.328 890.242 509.083 890.679 508.912C891.127 508.731 891.623 508.64 892.167 508.64C892.754 508.64 893.271 508.741 893.719 508.944C894.167 509.136 894.541 509.413 894.839 509.776C895.149 510.128 895.378 510.56 895.527 511.072C895.687 511.573 895.767 512.128 895.767 512.736ZM892.183 514.848C893.005 514.848 893.639 514.619 894.087 514.16C894.546 513.701 894.775 513.083 894.775 512.304V512.048C894.775 511.259 894.546 510.635 894.087 510.176C893.629 509.707 892.994 509.472 892.183 509.472C891.362 509.472 890.722 509.707 890.263 510.176C889.805 510.635 889.575 511.253 889.575 512.032V512.304C889.575 513.083 889.799 513.701 890.247 514.16C890.706 514.619 891.351 514.848 892.183 514.848ZM898.545 508.832H902.913C903.788 508.832 904.47 509.083 904.961 509.584C905.462 510.075 905.713 510.763 905.713 511.648C905.713 512.032 905.66 512.368 905.553 512.656C905.457 512.944 905.329 513.184 905.169 513.376C905.009 513.568 904.822 513.723 904.609 513.84C904.406 513.957 904.204 514.037 904.001 514.08V514.144C904.257 514.176 904.513 514.256 904.769 514.384C905.025 514.501 905.254 514.672 905.457 514.896C905.66 515.109 905.825 515.381 905.953 515.712C906.081 516.032 906.145 516.411 906.145 516.848C906.145 517.307 906.076 517.728 905.937 518.112C905.809 518.496 905.617 518.832 905.361 519.12C905.116 519.397 904.817 519.616 904.465 519.776C904.124 519.925 903.74 520 903.313 520H898.545V508.832ZM899.505 519.152H903.057C903.729 519.152 904.241 518.971 904.593 518.608C904.945 518.235 905.121 517.755 905.121 517.168V516.576C905.121 516 904.945 515.531 904.593 515.168C904.241 514.795 903.729 514.608 903.057 514.608H899.505V519.152ZM899.505 513.776H902.817C903.425 513.776 903.889 513.616 904.209 513.296C904.529 512.965 904.689 512.544 904.689 512.032V511.424C904.689 510.912 904.529 510.496 904.209 510.176C903.889 509.845 903.425 509.68 902.817 509.68H899.505V513.776ZM908.748 520V508.832H915.132V509.68H909.708V513.904H914.764V514.752H909.708V520H908.748ZM923.896 520L922.68 516.528H917.928L916.712 520H915.752L919.704 508.832H920.936L924.904 520H923.896ZM920.328 509.744H920.264L918.168 515.696H922.424L920.328 509.744ZM929.608 513.728C930.376 513.728 930.974 513.541 931.4 513.168C931.838 512.784 932.056 512.288 932.056 511.68V511.472C932.056 510.843 931.848 510.357 931.432 510.016C931.016 509.675 930.483 509.504 929.832 509.504C929.182 509.504 928.659 509.637 928.264 509.904C927.88 510.16 927.571 510.512 927.336 510.96L926.616 510.448C926.744 510.213 926.904 509.989 927.096 509.776C927.288 509.552 927.512 509.355 927.768 509.184C928.035 509.013 928.339 508.88 928.68 508.784C929.022 508.688 929.411 508.64 929.848 508.64C930.307 508.64 930.734 508.704 931.128 508.832C931.523 508.96 931.864 509.147 932.152 509.392C932.44 509.627 932.664 509.92 932.824 510.272C932.995 510.613 933.08 511.003 933.08 511.44C933.08 512.197 932.872 512.789 932.456 513.216C932.04 513.643 931.523 513.931 930.904 514.08V514.144C931.235 514.197 931.544 514.299 931.832 514.448C932.12 514.587 932.371 514.773 932.584 515.008C932.808 515.243 932.984 515.525 933.112 515.856C933.24 516.187 933.304 516.56 933.304 516.976C933.304 517.456 933.219 517.899 933.048 518.304C932.878 518.699 932.632 519.035 932.312 519.312C932.003 519.589 931.624 519.808 931.176 519.968C930.739 520.117 930.248 520.192 929.704 520.192C928.808 520.192 928.083 520.021 927.528 519.68C926.974 519.328 926.52 518.891 926.168 518.368L926.888 517.824C927.198 518.304 927.566 518.677 927.992 518.944C928.43 519.2 928.995 519.328 929.688 519.328C930.499 519.328 931.134 519.131 931.592 518.736C932.051 518.331 932.28 517.776 932.28 517.072V516.816C932.28 516.112 932.056 515.563 931.608 515.168C931.16 514.763 930.52 514.56 929.688 514.56H928.28V513.728H929.608Z" fill="#262526"/>
<path d="M142.806 484.832H146.758C147.472 484.832 148.118 484.949 148.694 485.184C149.28 485.419 149.776 485.771 150.182 486.24C150.598 486.699 150.918 487.28 151.142 487.984C151.366 488.677 151.478 489.488 151.478 490.416C151.478 491.344 151.366 492.16 151.142 492.864C150.918 493.557 150.598 494.139 150.182 494.608C149.776 495.067 149.28 495.413 148.694 495.648C148.118 495.883 147.472 496 146.758 496H142.806V484.832ZM146.758 494.4C147.59 494.4 148.262 494.139 148.774 493.616C149.286 493.093 149.542 492.325 149.542 491.312V489.52C149.542 488.507 149.286 487.739 148.774 487.216C148.262 486.693 147.59 486.432 146.758 486.432H144.614V494.4H146.758ZM158.64 494.624H158.576C158.501 494.827 158.4 495.024 158.272 495.216C158.154 495.408 158 495.579 157.808 495.728C157.626 495.867 157.402 495.979 157.136 496.064C156.88 496.149 156.581 496.192 156.24 496.192C155.376 496.192 154.704 495.915 154.224 495.36C153.754 494.805 153.52 494.011 153.52 492.976V487.68H155.264V492.752C155.264 494.043 155.797 494.688 156.864 494.688C157.088 494.688 157.306 494.661 157.52 494.608C157.733 494.544 157.92 494.453 158.08 494.336C158.25 494.219 158.384 494.069 158.48 493.888C158.586 493.707 158.64 493.493 158.64 493.248V487.68H160.384V496H158.64V494.624ZM165.521 496.192C164.731 496.192 164.07 496.053 163.537 495.776C163.003 495.499 162.539 495.115 162.145 494.624L163.265 493.6C163.574 493.973 163.915 494.267 164.289 494.48C164.673 494.683 165.115 494.784 165.617 494.784C166.129 494.784 166.507 494.688 166.753 494.496C167.009 494.293 167.137 494.016 167.137 493.664C167.137 493.397 167.046 493.173 166.865 492.992C166.694 492.8 166.39 492.677 165.953 492.624L165.185 492.528C164.331 492.421 163.659 492.176 163.169 491.792C162.689 491.397 162.449 490.816 162.449 490.048C162.449 489.643 162.523 489.285 162.673 488.976C162.822 488.656 163.03 488.389 163.297 488.176C163.574 487.952 163.899 487.781 164.273 487.664C164.657 487.547 165.078 487.488 165.537 487.488C166.283 487.488 166.891 487.605 167.361 487.84C167.841 488.075 168.267 488.4 168.641 488.816L167.569 489.84C167.355 489.584 167.073 489.365 166.721 489.184C166.379 488.992 165.985 488.896 165.537 488.896C165.057 488.896 164.699 488.992 164.465 489.184C164.241 489.376 164.129 489.627 164.129 489.936C164.129 490.256 164.23 490.496 164.433 490.656C164.635 490.816 164.961 490.933 165.409 491.008L166.177 491.104C167.094 491.243 167.761 491.515 168.177 491.92C168.603 492.315 168.817 492.848 168.817 493.52C168.817 493.925 168.737 494.293 168.577 494.624C168.427 494.944 168.209 495.221 167.921 495.456C167.633 495.691 167.286 495.872 166.881 496C166.475 496.128 166.022 496.192 165.521 496.192ZM172.982 496C172.374 496 171.915 495.845 171.606 495.536C171.296 495.216 171.142 494.768 171.142 494.192V489.104H169.846V487.68H170.55C170.838 487.68 171.035 487.616 171.142 487.488C171.259 487.36 171.318 487.152 171.318 486.864V485.408H172.886V487.68H174.63V489.104H172.886V494.576H174.502V496H172.982ZM181.625 487.68H183.305L179.801 497.648C179.705 497.925 179.593 498.16 179.465 498.352C179.348 498.555 179.204 498.715 179.033 498.832C178.873 498.96 178.676 499.051 178.441 499.104C178.207 499.168 177.929 499.2 177.609 499.2H176.601V497.776H178.009L178.489 496.368L175.465 487.68H177.209L178.873 492.576L179.353 494.384H179.433L179.961 492.576L181.625 487.68ZM188.649 496V484.832H193.449C194.484 484.832 195.284 485.136 195.849 485.744C196.415 486.352 196.697 487.168 196.697 488.192C196.697 489.216 196.415 490.032 195.849 490.64C195.284 491.248 194.484 491.552 193.449 491.552H190.457V496H188.649ZM190.457 489.968H193.337C193.796 489.968 194.153 489.851 194.409 489.616C194.665 489.371 194.793 489.024 194.793 488.576V487.808C194.793 487.36 194.665 487.019 194.409 486.784C194.153 486.539 193.796 486.416 193.337 486.416H190.457V489.968ZM199.433 486.192C199.07 486.192 198.803 486.107 198.633 485.936C198.473 485.765 198.393 485.547 198.393 485.28V485.008C198.393 484.741 198.473 484.523 198.633 484.352C198.803 484.181 199.07 484.096 199.433 484.096C199.795 484.096 200.057 484.181 200.217 484.352C200.377 484.523 200.457 484.741 200.457 485.008V485.28C200.457 485.547 200.377 485.765 200.217 485.936C200.057 486.107 199.795 486.192 199.433 486.192ZM198.553 487.68H200.297V496H198.553V487.68ZM202.787 496V487.68H204.531V489.056H204.611C204.792 488.608 205.064 488.235 205.427 487.936C205.8 487.637 206.307 487.488 206.947 487.488C207.8 487.488 208.462 487.771 208.931 488.336C209.411 488.891 209.651 489.685 209.651 490.72V496H207.907V490.944C207.907 489.643 207.384 488.992 206.339 488.992C206.115 488.992 205.891 489.024 205.667 489.088C205.454 489.141 205.262 489.227 205.091 489.344C204.92 489.461 204.782 489.611 204.675 489.792C204.579 489.973 204.531 490.187 204.531 490.432V496H202.787ZM212.068 484.16H213.812V491.424H213.892L215.044 489.936L217.044 487.68H219.076L216.164 490.896L219.428 496H217.348L214.964 492.032L213.812 493.28V496H212.068V484.16ZM152.64 516.624H149.984L149.392 520H148.64L149.216 516.624H147.04V515.92H149.344L149.856 512.912H147.664V512.208H149.984L150.56 508.832H151.312L150.736 512.208H153.392L153.968 508.832H154.736L154.144 512.208H156.336V512.912H154.016L153.52 515.92H155.712V516.624H153.392L152.816 520H152.048L152.64 516.624ZM152.752 515.92L153.264 512.912H150.608L150.096 515.92H152.752ZM158.975 520V508.832H165.359V509.68H159.935V513.904H164.991V514.752H159.935V520H158.975ZM170.988 520.192C170.38 520.192 169.841 520.112 169.372 519.952C168.902 519.792 168.502 519.573 168.172 519.296C167.852 519.019 167.606 518.688 167.436 518.304C167.276 517.909 167.196 517.483 167.196 517.024C167.196 516.245 167.409 515.621 167.836 515.152C168.262 514.672 168.833 514.352 169.548 514.192V514.08C168.94 513.909 168.454 513.595 168.092 513.136C167.74 512.677 167.564 512.112 167.564 511.44C167.564 510.587 167.862 509.909 168.46 509.408C169.068 508.896 169.91 508.64 170.988 508.64C172.065 508.64 172.902 508.896 173.5 509.408C174.108 509.909 174.411 510.587 174.411 511.44C174.411 512.112 174.23 512.677 173.868 513.136C173.516 513.595 173.036 513.909 172.428 514.08V514.192C173.142 514.352 173.713 514.672 174.14 515.152C174.566 515.621 174.78 516.245 174.78 517.024C174.78 517.483 174.694 517.909 174.524 518.304C174.364 518.688 174.118 519.019 173.788 519.296C173.468 519.573 173.073 519.792 172.604 519.952C172.134 520.112 171.596 520.192 170.988 520.192ZM170.988 519.36C171.852 519.36 172.529 519.163 173.02 518.768C173.51 518.363 173.756 517.819 173.756 517.136V516.768C173.756 516.075 173.51 515.531 173.02 515.136C172.529 514.741 171.852 514.544 170.988 514.544C170.124 514.544 169.446 514.741 168.956 515.136C168.465 515.531 168.22 516.075 168.22 516.768V517.136C168.22 517.819 168.465 518.363 168.956 518.768C169.446 519.163 170.124 519.36 170.988 519.36ZM170.988 513.728C171.756 513.728 172.353 513.557 172.78 513.216C173.206 512.864 173.42 512.373 173.42 511.744V511.456C173.42 510.837 173.206 510.352 172.78 510C172.353 509.648 171.756 509.472 170.988 509.472C170.22 509.472 169.622 509.648 169.196 510C168.769 510.352 168.556 510.837 168.556 511.456V511.744C168.556 512.373 168.769 512.864 169.196 513.216C169.622 513.557 170.22 513.728 170.988 513.728ZM177.365 520V508.832H183.893V509.68H178.325V513.904H183.621V514.752H178.325V519.152H183.893V520H177.365ZM186.553 508.832H190.105C191.545 508.832 192.654 509.296 193.433 510.224C194.222 511.152 194.617 512.549 194.617 514.416C194.617 516.283 194.222 517.68 193.433 518.608C192.654 519.536 191.545 520 190.105 520H186.553V508.832ZM190.121 519.152C191.219 519.152 192.073 518.8 192.681 518.096C193.289 517.381 193.593 516.4 193.593 515.152V513.68C193.593 512.432 193.289 511.456 192.681 510.752C192.073 510.037 191.219 509.68 190.121 509.68H187.513V519.152H190.121ZM197.209 520V508.832H203.737V509.68H198.169V513.904H203.465V514.752H198.169V519.152H203.737V520H197.209ZM206.397 508.832H210.765C211.639 508.832 212.322 509.083 212.812 509.584C213.314 510.075 213.565 510.763 213.565 511.648C213.565 512.032 213.511 512.368 213.405 512.656C213.308 512.944 213.181 513.184 213.021 513.376C212.861 513.568 212.674 513.723 212.461 513.84C212.258 513.957 212.055 514.037 211.853 514.08V514.144C212.109 514.176 212.365 514.256 212.621 514.384C212.877 514.501 213.106 514.672 213.309 514.896C213.511 515.109 213.677 515.381 213.805 515.712C213.933 516.032 213.997 516.411 213.997 516.848C213.997 517.307 213.927 517.728 213.789 518.112C213.661 518.496 213.469 518.832 213.213 519.12C212.967 519.397 212.669 519.616 212.317 519.776C211.975 519.925 211.591 520 211.165 520H206.397V508.832ZM207.357 519.152H210.909C211.581 519.152 212.093 518.971 212.445 518.608C212.797 518.235 212.973 517.755 212.973 517.168V516.576C212.973 516 212.797 515.531 212.445 515.168C212.093 514.795 211.581 514.608 210.909 514.608H207.357V519.152ZM207.357 513.776H210.669C211.277 513.776 211.741 513.616 212.061 513.296C212.381 512.965 212.541 512.544 212.541 512.032V511.424C212.541 510.912 212.381 510.496 212.061 510.176C211.741 509.845 211.277 509.68 210.669 509.68H207.357V513.776Z" fill="#262526"/>
<path d="M498.15 161.192C497.211 161.192 496.411 161.021 495.75 160.68C495.099 160.339 494.539 159.88 494.07 159.304L495.318 158.136C495.712 158.616 496.144 158.979 496.614 159.224C497.094 159.469 497.638 159.592 498.246 159.592C498.96 159.592 499.499 159.432 499.862 159.112C500.224 158.792 500.406 158.36 500.406 157.816C500.406 157.379 500.278 157.032 500.022 156.776C499.766 156.52 499.312 156.328 498.662 156.2L497.67 156.024C496.582 155.821 495.766 155.464 495.222 154.952C494.678 154.44 494.406 153.736 494.406 152.84C494.406 152.349 494.496 151.907 494.678 151.512C494.87 151.107 495.131 150.771 495.462 150.504C495.803 150.227 496.214 150.013 496.694 149.864C497.174 149.715 497.712 149.64 498.31 149.64C499.152 149.64 499.883 149.789 500.502 150.088C501.12 150.376 501.648 150.797 502.086 151.352L500.822 152.472C500.534 152.099 500.182 151.8 499.766 151.576C499.35 151.352 498.832 151.24 498.214 151.24C497.574 151.24 497.078 151.368 496.726 151.624C496.374 151.88 496.198 152.253 496.198 152.744C496.198 153.213 496.342 153.565 496.63 153.8C496.918 154.024 497.366 154.195 497.974 154.312L498.966 154.52C500.086 154.733 500.902 155.096 501.414 155.608C501.936 156.12 502.198 156.824 502.198 157.72C502.198 158.243 502.107 158.717 501.926 159.144C501.744 159.571 501.478 159.939 501.126 160.248C500.784 160.547 500.363 160.781 499.862 160.952C499.36 161.112 498.79 161.192 498.15 161.192ZM504.24 161V152.68H505.984V154.056H506.064C506.15 153.843 506.251 153.64 506.368 153.448C506.496 153.256 506.646 153.091 506.816 152.952C506.998 152.803 507.206 152.691 507.44 152.616C507.686 152.531 507.968 152.488 508.288 152.488C508.854 152.488 509.355 152.627 509.792 152.904C510.23 153.181 510.55 153.608 510.752 154.184H510.8C510.95 153.715 511.238 153.315 511.664 152.984C512.091 152.653 512.64 152.488 513.312 152.488C514.144 152.488 514.79 152.771 515.248 153.336C515.707 153.891 515.936 154.685 515.936 155.72V161H514.192V155.928C514.192 155.288 514.07 154.808 513.824 154.488C513.579 154.157 513.19 153.992 512.656 153.992C512.432 153.992 512.219 154.024 512.016 154.088C511.814 154.141 511.632 154.227 511.472 154.344C511.323 154.461 511.2 154.611 511.104 154.792C511.008 154.973 510.96 155.181 510.96 155.416V161H509.216V155.928C509.216 154.637 508.71 153.992 507.696 153.992C507.483 153.992 507.27 154.024 507.056 154.088C506.854 154.141 506.672 154.227 506.512 154.344C506.352 154.461 506.224 154.611 506.128 154.792C506.032 154.973 505.984 155.181 505.984 155.416V161H504.24ZM521.614 161.192C521.038 161.192 520.51 161.091 520.03 160.888C519.56 160.685 519.16 160.397 518.83 160.024C518.499 159.64 518.243 159.181 518.062 158.648C517.88 158.104 517.79 157.501 517.79 156.84C517.79 156.179 517.88 155.581 518.062 155.048C518.243 154.504 518.499 154.045 518.83 153.672C519.16 153.288 519.56 152.995 520.03 152.792C520.51 152.589 521.038 152.488 521.614 152.488C522.19 152.488 522.712 152.589 523.182 152.792C523.662 152.995 524.067 153.288 524.398 153.672C524.728 154.045 524.984 154.504 525.166 155.048C525.347 155.581 525.438 156.179 525.438 156.84C525.438 157.501 525.347 158.104 525.166 158.648C524.984 159.181 524.728 159.64 524.398 160.024C524.067 160.397 523.662 160.685 523.182 160.888C522.712 161.091 522.19 161.192 521.614 161.192ZM521.614 159.752C522.211 159.752 522.691 159.571 523.054 159.208C523.416 158.835 523.598 158.28 523.598 157.544V156.136C523.598 155.4 523.416 154.851 523.054 154.488C522.691 154.115 522.211 153.928 521.614 153.928C521.016 153.928 520.536 154.115 520.174 154.488C519.811 154.851 519.63 155.4 519.63 156.136V157.544C519.63 158.28 519.811 158.835 520.174 159.208C520.536 159.571 521.016 159.752 521.614 159.752ZM527.381 149.16H529.125V156.424H529.205L530.357 154.936L532.357 152.68H534.389L531.477 155.896L534.741 161H532.661L530.277 157.032L529.125 158.28V161H527.381V149.16ZM541.204 152.68H542.884L539.38 162.648C539.284 162.925 539.172 163.16 539.044 163.352C538.926 163.555 538.782 163.715 538.612 163.832C538.452 163.96 538.254 164.051 538.02 164.104C537.785 164.168 537.508 164.2 537.188 164.2H536.18V162.776H537.588L538.068 161.368L535.044 152.68H536.788L538.452 157.576L538.932 159.384H539.012L539.54 157.576L541.204 152.68ZM548.1 149.16H549.844V154.056H549.924C550.105 153.555 550.398 153.171 550.804 152.904C551.22 152.627 551.705 152.488 552.26 152.488C553.316 152.488 554.132 152.872 554.708 153.64C555.284 154.397 555.572 155.464 555.572 156.84C555.572 158.216 555.284 159.288 554.708 160.056C554.132 160.813 553.316 161.192 552.26 161.192C551.705 161.192 551.22 161.053 550.804 160.776C550.398 160.499 550.105 160.115 549.924 159.624H549.844V161H548.1V149.16ZM551.732 159.688C552.34 159.688 552.825 159.496 553.188 159.112C553.55 158.717 553.732 158.2 553.732 157.56V156.12C553.732 155.48 553.55 154.968 553.188 154.584C552.825 154.189 552.34 153.992 551.732 153.992C551.198 153.992 550.75 154.125 550.388 154.392C550.025 154.648 549.844 154.989 549.844 155.416V158.264C549.844 158.691 550.025 159.037 550.388 159.304C550.75 159.56 551.198 159.688 551.732 159.688ZM559.344 161C558.747 161 558.299 160.851 558 160.552C557.712 160.243 557.568 159.816 557.568 159.272V149.16H559.312V159.576H560.464V161H559.344ZM568.227 161C567.768 161 567.416 160.872 567.171 160.616C566.925 160.349 566.776 160.013 566.723 159.608H566.643C566.483 160.131 566.189 160.525 565.763 160.792C565.336 161.059 564.819 161.192 564.211 161.192C563.347 161.192 562.68 160.968 562.211 160.52C561.752 160.072 561.523 159.469 561.523 158.712C561.523 157.88 561.821 157.256 562.419 156.84C563.027 156.424 563.912 156.216 565.075 156.216H566.579V155.512C566.579 155 566.44 154.605 566.163 154.328C565.885 154.051 565.453 153.912 564.867 153.912C564.376 153.912 563.976 154.019 563.667 154.232C563.357 154.445 563.096 154.717 562.883 155.048L561.843 154.104C562.12 153.635 562.509 153.251 563.011 152.952C563.512 152.643 564.168 152.488 564.979 152.488C566.056 152.488 566.883 152.739 567.459 153.24C568.035 153.741 568.323 154.461 568.323 155.4V159.576H569.203V161H568.227ZM564.707 159.864C565.251 159.864 565.699 159.747 566.051 159.512C566.403 159.267 566.579 158.941 566.579 158.536V157.336H565.107C563.901 157.336 563.299 157.709 563.299 158.456V158.744C563.299 159.117 563.421 159.4 563.667 159.592C563.923 159.773 564.269 159.864 564.707 159.864ZM574.128 161.192C573.531 161.192 572.997 161.091 572.528 160.888C572.059 160.685 571.664 160.397 571.344 160.024C571.024 159.64 570.779 159.181 570.608 158.648C570.437 158.104 570.352 157.501 570.352 156.84C570.352 156.179 570.437 155.581 570.608 155.048C570.779 154.504 571.024 154.045 571.344 153.672C571.664 153.288 572.059 152.995 572.528 152.792C572.997 152.589 573.531 152.488 574.128 152.488C574.96 152.488 575.643 152.675 576.176 153.048C576.709 153.421 577.099 153.917 577.344 154.536L575.904 155.208C575.787 154.824 575.579 154.52 575.28 154.296C574.992 154.061 574.608 153.944 574.128 153.944C573.488 153.944 573.003 154.147 572.672 154.552C572.352 154.947 572.192 155.464 572.192 156.104V157.592C572.192 158.232 572.352 158.755 572.672 159.16C573.003 159.555 573.488 159.752 574.128 159.752C574.64 159.752 575.045 159.629 575.344 159.384C575.653 159.128 575.899 158.792 576.08 158.376L577.408 159.08C577.131 159.763 576.715 160.285 576.16 160.648C575.605 161.011 574.928 161.192 574.128 161.192ZM579.068 149.16H580.812V156.424H580.892L582.044 154.936L584.044 152.68H586.076L583.164 155.896L586.428 161H584.348L581.964 157.032L580.812 158.28V161H579.068V149.16ZM512.172 181.624H509.516L508.924 185H508.172L508.748 181.624H506.572V180.92H508.876L509.388 177.912H507.196V177.208H509.516L510.092 173.832H510.844L510.268 177.208H512.924L513.5 173.832H514.268L513.676 177.208H515.868V177.912H513.548L513.052 180.92H515.244V181.624H512.924L512.348 185H511.58L512.172 181.624ZM512.284 180.92L512.796 177.912H510.14L509.628 180.92H512.284ZM525.37 185H518.202V184.024L522.106 180.28C522.629 179.768 523.055 179.245 523.386 178.712C523.717 178.168 523.882 177.613 523.882 177.048V176.744C523.882 176.083 523.69 175.544 523.306 175.128C522.922 174.712 522.346 174.504 521.578 174.504C520.831 174.504 520.261 174.691 519.866 175.064C519.471 175.437 519.183 175.923 519.002 176.52L518.138 176.2C518.245 175.859 518.389 175.533 518.57 175.224C518.751 174.915 518.981 174.643 519.258 174.408C519.546 174.173 519.882 173.987 520.266 173.848C520.65 173.709 521.098 173.64 521.61 173.64C522.133 173.64 522.597 173.72 523.002 173.88C523.418 174.029 523.765 174.243 524.042 174.52C524.33 174.797 524.543 175.133 524.682 175.528C524.831 175.912 524.906 176.344 524.906 176.824C524.906 177.229 524.853 177.613 524.746 177.976C524.639 178.328 524.49 178.669 524.298 179C524.106 179.32 523.871 179.64 523.594 179.96C523.317 180.269 523.013 180.579 522.682 180.888L519.242 184.152H525.37V185ZM531.332 185.192C530.734 185.192 530.212 185.096 529.764 184.904C529.316 184.701 528.937 184.424 528.628 184.072C528.329 183.709 528.1 183.277 527.94 182.776C527.79 182.264 527.716 181.704 527.716 181.096C527.716 180.232 527.833 179.432 528.068 178.696C528.313 177.949 528.628 177.272 529.012 176.664C529.396 176.056 529.833 175.517 530.324 175.048C530.825 174.568 531.332 174.163 531.844 173.832H533.108C532.489 174.259 531.94 174.685 531.46 175.112C530.98 175.539 530.558 175.992 530.196 176.472C529.833 176.941 529.529 177.448 529.284 177.992C529.049 178.536 528.862 179.133 528.724 179.784L528.788 179.8C529.065 179.299 529.428 178.904 529.876 178.616C530.334 178.317 530.9 178.168 531.572 178.168C532.062 178.168 532.51 178.248 532.916 178.408C533.332 178.568 533.684 178.797 533.972 179.096C534.27 179.384 534.5 179.741 534.66 180.168C534.82 180.584 534.9 181.053 534.9 181.576C534.9 182.12 534.814 182.616 534.644 183.064C534.473 183.501 534.233 183.88 533.924 184.2C533.614 184.509 533.241 184.755 532.804 184.936C532.366 185.107 531.876 185.192 531.332 185.192ZM531.316 184.36C532.126 184.36 532.761 184.131 533.22 183.672C533.678 183.203 533.908 182.579 533.908 181.8V181.528C533.908 180.749 533.678 180.131 533.22 179.672C532.772 179.213 532.137 178.984 531.316 178.984C530.484 178.984 529.838 179.213 529.38 179.672C528.932 180.131 528.708 180.749 528.708 181.528V181.784C528.708 182.573 528.937 183.203 529.396 183.672C529.854 184.131 530.494 184.36 531.316 184.36ZM544.557 185H537.389V184.024L541.293 180.28C541.816 179.768 542.243 179.245 542.573 178.712C542.904 178.168 543.069 177.613 543.069 177.048V176.744C543.069 176.083 542.877 175.544 542.493 175.128C542.109 174.712 541.533 174.504 540.765 174.504C540.019 174.504 539.448 174.691 539.053 175.064C538.659 175.437 538.371 175.923 538.189 176.52L537.325 176.2C537.432 175.859 537.576 175.533 537.757 175.224C537.939 174.915 538.168 174.643 538.445 174.408C538.733 174.173 539.069 173.987 539.453 173.848C539.837 173.709 540.285 173.64 540.797 173.64C541.32 173.64 541.784 173.72 542.189 173.88C542.605 174.029 542.952 174.243 543.229 174.52C543.517 174.797 543.731 175.133 543.869 175.528C544.019 175.912 544.093 176.344 544.093 176.824C544.093 177.229 544.04 177.613 543.933 177.976C543.827 178.328 543.677 178.669 543.485 179C543.293 179.32 543.059 179.64 542.781 179.96C542.504 180.269 542.2 180.579 541.869 180.888L538.429 184.152H544.557V185ZM553.559 174.68H548.567L548.215 179.352L548.311 179.368C548.588 178.973 548.914 178.68 549.287 178.488C549.66 178.285 550.146 178.184 550.743 178.184C551.234 178.184 551.682 178.264 552.087 178.424C552.492 178.573 552.839 178.797 553.127 179.096C553.415 179.384 553.634 179.741 553.783 180.168C553.943 180.584 554.023 181.059 554.023 181.592C554.023 182.136 553.938 182.632 553.767 183.08C553.607 183.517 553.372 183.896 553.063 184.216C552.754 184.525 552.375 184.765 551.927 184.936C551.49 185.107 550.994 185.192 550.439 185.192C550.002 185.192 549.607 185.144 549.255 185.048C548.903 184.963 548.588 184.84 548.311 184.68C548.034 184.509 547.783 184.312 547.559 184.088C547.346 183.864 547.154 183.624 546.983 183.368L547.703 182.824C548.012 183.304 548.37 183.677 548.775 183.944C549.191 184.2 549.746 184.328 550.439 184.328C551.271 184.328 551.906 184.104 552.343 183.656C552.791 183.197 553.015 182.579 553.015 181.8V181.528C553.015 180.749 552.796 180.136 552.359 179.688C551.932 179.229 551.308 179 550.487 179C550.199 179 549.943 179.027 549.719 179.08C549.495 179.123 549.292 179.192 549.111 179.288C548.94 179.373 548.78 179.48 548.631 179.608C548.492 179.725 548.354 179.864 548.215 180.024L547.383 179.896L547.783 173.832H553.559V174.68ZM563.745 185H556.577V184.024L560.481 180.28C561.004 179.768 561.43 179.245 561.761 178.712C562.092 178.168 562.257 177.613 562.257 177.048V176.744C562.257 176.083 562.065 175.544 561.681 175.128C561.297 174.712 560.721 174.504 559.953 174.504C559.206 174.504 558.636 174.691 558.241 175.064C557.846 175.437 557.558 175.923 557.377 176.52L556.513 176.2C556.62 175.859 556.764 175.533 556.945 175.224C557.126 174.915 557.356 174.643 557.633 174.408C557.921 174.173 558.257 173.987 558.641 173.848C559.025 173.709 559.473 173.64 559.985 173.64C560.508 173.64 560.972 173.72 561.377 173.88C561.793 174.029 562.14 174.243 562.417 174.52C562.705 174.797 562.918 175.133 563.057 175.528C563.206 175.912 563.281 176.344 563.281 176.824C563.281 177.229 563.228 177.613 563.121 177.976C563.014 178.328 562.865 178.669 562.673 179C562.481 179.32 562.246 179.64 561.969 179.96C561.692 180.269 561.388 180.579 561.057 180.888L557.617 184.152H563.745V185ZM569.707 185.192C569.109 185.192 568.587 185.096 568.139 184.904C567.691 184.701 567.312 184.424 567.003 184.072C566.704 183.709 566.475 183.277 566.315 182.776C566.165 182.264 566.091 181.704 566.091 181.096C566.091 180.232 566.208 179.432 566.443 178.696C566.688 177.949 567.003 177.272 567.387 176.664C567.771 176.056 568.208 175.517 568.699 175.048C569.2 174.568 569.707 174.163 570.219 173.832H571.483C570.864 174.259 570.315 174.685 569.835 175.112C569.355 175.539 568.933 175.992 568.571 176.472C568.208 176.941 567.904 177.448 567.659 177.992C567.424 178.536 567.237 179.133 567.099 179.784L567.163 179.8C567.44 179.299 567.803 178.904 568.251 178.616C568.709 178.317 569.275 178.168 569.947 178.168C570.437 178.168 570.885 178.248 571.291 178.408C571.707 178.568 572.059 178.797 572.347 179.096C572.645 179.384 572.875 179.741 573.035 180.168C573.195 180.584 573.275 181.053 573.275 181.576C573.275 182.12 573.189 182.616 573.019 183.064C572.848 183.501 572.608 183.88 572.299 184.2C571.989 184.509 571.616 184.755 571.179 184.936C570.741 185.107 570.251 185.192 569.707 185.192ZM569.691 184.36C570.501 184.36 571.136 184.131 571.595 183.672C572.053 183.203 572.283 182.579 572.283 181.8V181.528C572.283 180.749 572.053 180.131 571.595 179.672C571.147 179.213 570.512 178.984 569.691 178.984C568.859 178.984 568.213 179.213 567.755 179.672C567.307 180.131 567.083 180.749 567.083 181.528V181.784C567.083 182.573 567.312 183.203 567.771 183.672C568.229 184.131 568.869 184.36 569.691 184.36Z" fill="white"/>
<rect x="780.833" y="894.833" width="591.406" height="283.286" stroke="#262526"/>
<path d="M841 982C841 958.252 860.252 939 884 939H1272C1295.75 939 1315 958.252 1315 982V982C1315 1005.75 1295.75 1025 1272 1025H884C860.252 1025 841 1005.75 841 982V982Z" fill="#FDFCFB"/>
<path d="M1035.05 991.812C1032.67 991.812 1030.81 991.015 1029.46 989.42C1028.11 987.808 1027.43 985.477 1027.43 982.426C1027.43 980.901 1027.6 979.557 1027.95 978.396C1028.3 977.235 1028.8 976.255 1029.46 975.458C1030.12 974.661 1030.91 974.063 1031.85 973.664C1032.8 973.248 1033.87 973.04 1035.05 973.04C1036.63 973.04 1037.94 973.387 1039 974.08C1040.08 974.773 1040.92 975.796 1041.52 977.148L1039.05 978.5C1038.74 977.633 1038.26 976.949 1037.6 976.446C1036.96 975.926 1036.11 975.666 1035.05 975.666C1033.64 975.666 1032.54 976.143 1031.75 977.096C1030.95 978.049 1030.55 979.367 1030.55 981.048V983.804C1030.55 985.485 1030.95 986.803 1031.75 987.756C1032.54 988.709 1033.64 989.186 1035.05 989.186C1036.14 989.186 1037.02 988.909 1037.7 988.354C1038.39 987.782 1038.91 987.054 1039.23 986.17L1041.6 987.6C1040.99 988.917 1040.14 989.949 1039.05 990.694C1037.96 991.439 1036.63 991.812 1035.05 991.812ZM1051.45 975.952V991.5H1048.51V975.952H1043.1V973.352H1056.86V975.952H1051.45ZM1069.36 991.5L1067.72 986.586H1060.93L1059.35 991.5H1056.36L1062.54 973.352H1066.24L1072.42 991.5H1069.36ZM1064.39 976.056H1064.26L1061.63 984.064H1066.99L1064.39 976.056Z" fill="#262526"/>
<path d="M1105 981L1104 981L1104 983L1105 983L1105 981ZM1105 983L1129 983L1129 981L1105 981L1105 983Z" fill="#262526"/>
<line x1="1128.29" y1="981.707" x2="1121.29" y2="974.707" stroke="#262526" stroke-width="2"/>
<line x1="1121.29" y1="989.293" x2="1129.29" y2="981.293" stroke="#262526" stroke-width="2"/>
<path d="M884 940H1272V938H884V940ZM1272 1024H884V1026H1272V1024ZM884 1024C860.804 1024 842 1005.2 842 982H840C840 1006.3 859.699 1026 884 1026V1024ZM1314 982C1314 1005.2 1295.2 1024 1272 1024V1026C1296.3 1026 1316 1006.3 1316 982H1314ZM1272 940C1295.2 940 1314 958.804 1314 982H1316C1316 957.699 1296.3 938 1272 938V940ZM884 938C859.699 938 840 957.699 840 982H842C842 958.804 860.804 940 884 940V938Z" fill="#262526"/>
<path d="M1203 1090C1203 1064.04 1224.04 1043 1250 1043H1257C1282.96 1043 1304 1064.04 1304 1090V1090C1304 1115.96 1282.96 1137 1257 1137H1250C1224.04 1137 1203 1115.96 1203 1090V1090Z" fill="#FDFCFB"/>
<path d="M1250 1044H1257V1042H1250V1044ZM1257 1136H1250V1138H1257V1136ZM1250 1136C1224.59 1136 1204 1115.41 1204 1090H1202C1202 1116.51 1223.49 1138 1250 1138V1136ZM1303 1090C1303 1115.41 1282.41 1136 1257 1136V1138C1283.51 1138 1305 1116.51 1305 1090H1303ZM1257 1044C1282.41 1044 1303 1064.59 1303 1090H1305C1305 1063.49 1283.51 1042 1257 1042V1044ZM1250 1042C1223.49 1042 1202 1063.49 1202 1090H1204C1204 1064.59 1224.59 1044 1250 1044V1042Z" fill="#262526"/>
<path d="M1083 1090C1083 1064.04 1104.04 1043 1130 1043H1137C1162.96 1043 1184 1064.04 1184 1090V1090C1184 1115.96 1162.96 1137 1137 1137H1130C1104.04 1137 1083 1115.96 1083 1090V1090Z" fill="#242526"/>
<path d="M1130 1044H1137V1042H1130V1044ZM1137 1136H1130V1138H1137V1136ZM1130 1136C1104.59 1136 1084 1115.41 1084 1090H1082C1082 1116.51 1103.49 1138 1130 1138V1136ZM1183 1090C1183 1115.41 1162.41 1136 1137 1136V1138C1163.51 1138 1185 1116.51 1185 1090H1183ZM1137 1044C1162.41 1044 1183 1064.59 1183 1090H1185C1185 1063.49 1163.51 1042 1137 1042V1044ZM1130 1042C1103.49 1042 1082 1063.49 1082 1090H1084C1084 1064.59 1104.59 1044 1130 1044V1042Z" fill="#262526"/>
<path d="M964 1090C964 1064.04 985.043 1043 1011 1043H1017C1042.96 1043 1064 1064.04 1064 1090V1090C1064 1115.96 1042.96 1137 1017 1137H1011C985.043 1137 964 1115.96 964 1090V1090Z" fill="#FDFCFB"/>
<path d="M1011 1044H1017V1042H1011V1044ZM1017 1136H1011V1138H1017V1136ZM1011 1136C985.595 1136 965 1115.41 965 1090H963C963 1116.51 984.49 1138 1011 1138V1136ZM1063 1090C1063 1115.41 1042.41 1136 1017 1136V1138C1043.51 1138 1065 1116.51 1065 1090H1063ZM1017 1044C1042.41 1044 1063 1064.59 1063 1090H1065C1065 1063.49 1043.51 1042 1017 1042V1044ZM1011 1042C984.49 1042 963 1063.49 963 1090H965C965 1064.59 985.595 1044 1011 1044V1042Z" fill="#262526"/>
<path d="M842 1090C842 1064.04 863.043 1043 889 1043H896C921.957 1043 943 1064.04 943 1090V1090C943 1115.96 921.957 1137 896 1137H889C863.043 1137 842 1115.96 842 1090V1090Z" fill="#FDFCFB"/>
<path d="M889 1044H896V1042H889V1044ZM896 1136H889V1138H896V1136ZM889 1136C863.595 1136 843 1115.41 843 1090H841C841 1116.51 862.49 1138 889 1138V1136ZM942 1090C942 1115.41 921.405 1136 896 1136V1138C922.51 1138 944 1116.51 944 1090H942ZM896 1044C921.405 1044 942 1064.59 942 1090H944C944 1063.49 922.51 1042 896 1042V1044ZM889 1042C862.49 1042 841 1063.49 841 1090H843C843 1064.59 863.595 1044 889 1044V1042Z" fill="#262526"/>
<path d="M884.01 1100V1096.9H890.478V1079.67H890.214L884.868 1085.38L882.591 1083.34L888.465 1076.97H894.141V1096.9H899.751V1100H884.01Z" fill="#262526"/>
<path d="M1021.96 1100H1006.32V1096.44L1013.68 1089.87C1014.84 1088.81 1015.73 1087.81 1016.35 1086.87C1016.99 1085.9 1017.31 1084.89 1017.31 1083.83V1083.4C1017.31 1082.28 1016.97 1081.4 1016.28 1080.76C1015.62 1080.12 1014.72 1079.8 1013.58 1079.8C1012.94 1079.8 1012.38 1079.9 1011.89 1080.1C1011.43 1080.28 1011.03 1080.53 1010.67 1080.86C1010.32 1081.19 1010.02 1081.57 1009.78 1082.01C1009.56 1082.45 1009.39 1082.93 1009.25 1083.43L1005.99 1082.18C1006.23 1081.45 1006.56 1080.76 1006.98 1080.1C1007.4 1079.42 1007.92 1078.81 1008.56 1078.29C1009.2 1077.76 1009.95 1077.34 1010.81 1077.03C1011.69 1076.72 1012.71 1076.57 1013.87 1076.57C1015.04 1076.57 1016.09 1076.75 1017.01 1077.1C1017.93 1077.43 1018.7 1077.9 1019.32 1078.52C1019.96 1079.11 1020.44 1079.83 1020.77 1080.66C1021.1 1081.5 1021.27 1082.41 1021.27 1083.4C1021.27 1084.32 1021.12 1085.18 1020.84 1085.97C1020.55 1086.77 1020.16 1087.51 1019.65 1088.22C1019.14 1088.92 1018.55 1089.59 1017.87 1090.23C1017.21 1090.87 1016.5 1091.52 1015.76 1092.18L1010.34 1096.83H1021.96V1100Z" fill="#262526"/>
<path d="M1132.75 1086.44C1134.18 1086.44 1135.24 1086.14 1135.92 1085.55C1136.6 1084.93 1136.94 1084.15 1136.94 1083.2V1082.97C1136.94 1081.92 1136.61 1081.11 1135.95 1080.56C1135.29 1079.99 1134.4 1079.7 1133.28 1079.7C1132.18 1079.7 1131.25 1079.96 1130.48 1080.46C1129.71 1080.95 1129.06 1081.63 1128.53 1082.51L1126.05 1080.36C1126.41 1079.86 1126.8 1079.37 1127.24 1078.91C1127.68 1078.45 1128.2 1078.05 1128.79 1077.72C1129.39 1077.37 1130.06 1077.1 1130.81 1076.9C1131.55 1076.68 1132.41 1076.57 1133.38 1076.57C1134.46 1076.57 1135.46 1076.7 1136.38 1076.97C1137.31 1077.23 1138.1 1077.63 1138.76 1078.15C1139.42 1078.66 1139.94 1079.29 1140.31 1080.03C1140.68 1080.76 1140.87 1081.59 1140.87 1082.51C1140.87 1083.24 1140.75 1083.9 1140.51 1084.49C1140.29 1085.08 1139.97 1085.61 1139.55 1086.07C1139.15 1086.51 1138.68 1086.88 1138.13 1087.16C1137.6 1087.45 1137.04 1087.66 1136.45 1087.79V1087.95C1137.11 1088.09 1137.72 1088.31 1138.3 1088.61C1138.89 1088.9 1139.41 1089.29 1139.85 1089.77C1140.29 1090.23 1140.63 1090.79 1140.87 1091.45C1141.13 1092.09 1141.27 1092.83 1141.27 1093.66C1141.27 1094.68 1141.07 1095.6 1140.67 1096.44C1140.28 1097.25 1139.72 1097.95 1138.99 1098.55C1138.29 1099.14 1137.43 1099.6 1136.42 1099.93C1135.4 1100.24 1134.28 1100.4 1133.05 1100.4C1131.97 1100.4 1131.03 1100.28 1130.21 1100.03C1129.4 1099.81 1128.67 1099.52 1128.03 1099.14C1127.42 1098.75 1126.87 1098.31 1126.38 1097.82C1125.92 1097.32 1125.51 1096.8 1125.16 1096.27L1127.9 1094.13C1128.19 1094.59 1128.48 1095.02 1128.79 1095.41C1129.12 1095.79 1129.49 1096.12 1129.88 1096.4C1130.3 1096.67 1130.76 1096.88 1131.27 1097.03C1131.8 1097.18 1132.39 1097.26 1133.05 1097.26C1134.46 1097.26 1135.54 1096.93 1136.28 1096.27C1137.03 1095.59 1137.41 1094.65 1137.41 1093.47V1093.23C1137.41 1092.05 1137.01 1091.14 1136.22 1090.53C1135.43 1089.91 1134.3 1089.6 1132.85 1089.6H1130.41V1086.44H1132.75Z" fill="white"/>
<path d="M1234 1081L1253 1097L1272 1081" stroke="#262526" stroke-width="2" stroke-linecap="square"/>
<line x1="1374" y1="812.5" x2="812" y2="812.5" stroke="#262526"/>
<rect x="1076.43" y="1178.36" width="295.617" height="283.286" fill="#F7F6F0" stroke="#262526"/>
<rect x="780.833" y="1178.36" width="295.617" height="283.286" fill="#F7F6F0" stroke="#262526"/>
<rect x="484.5" y="1178.36" width="297" height="283.286" fill="#F7F6F0" stroke="#262526"/>
<rect x="484.5" y="894.833" width="297" height="283.286" fill="#F7F6F0" stroke="#262526"/>
<path opacity="0.6" fill-rule="evenodd" clip-rule="evenodd" d="M625.337 967.588C645.902 969.48 667.516 960.885 684.838 971.349C705.368 983.751 722.862 1003.85 722.999 1026.58C723.137 1049.39 702.534 1066 685.51 1082.44C667.966 1099.39 650.583 1122.66 625.337 1120.91C600.505 1119.19 588.941 1092.84 573.526 1074.68C560.864 1059.77 548.62 1045.31 545.249 1026.58C541.081 1003.43 532.928 973.783 552.739 959.189C572.598 944.56 600.109 965.265 625.337 967.588Z" fill="#B2A47B"/>
<path opacity="0.5" fill-rule="evenodd" clip-rule="evenodd" d="M635.022 1386.7C616.263 1385.15 596.886 1400.13 580.102 1390.96C562.748 1381.48 554.954 1359.55 548.856 1339.62C542.734 1319.61 536.498 1296.73 545.555 1278.06C554.357 1259.92 575.956 1255.64 593.453 1247.7C606.882 1241.61 620.468 1238.2 635.022 1237.45C650.345 1236.66 665.759 1236.09 679.597 1243.24C695.495 1251.44 712.028 1262.45 718.055 1280.32C724.147 1298.37 714.288 1317.15 710.897 1336.01C706.89 1358.3 714.325 1388.64 696.433 1400.6C678.205 1412.78 656.399 1388.48 635.022 1386.7Z" fill="#CD9494"/>
<path opacity="0.6" fill-rule="evenodd" clip-rule="evenodd" d="M922.337 1250.59C942.902 1252.48 964.516 1243.88 981.838 1254.35C1002.37 1266.75 1019.86 1286.85 1020 1309.58C1020.14 1332.39 999.534 1349 982.51 1365.44C964.966 1382.39 947.583 1405.66 922.337 1403.91C897.506 1402.19 885.941 1375.84 870.526 1357.68C857.864 1342.77 845.62 1328.31 842.249 1309.58C838.081 1286.43 829.928 1256.78 849.739 1242.19C869.598 1227.56 897.109 1248.27 922.337 1250.59Z" fill="#D6BFAC"/>
<path opacity="0.6" fill-rule="evenodd" clip-rule="evenodd" d="M1227.6 1386.7C1208.52 1385.15 1188.82 1400.13 1171.76 1390.96C1154.11 1381.48 1146.19 1359.55 1139.99 1339.62C1133.76 1319.61 1127.42 1296.73 1136.63 1278.06C1145.58 1259.92 1167.54 1255.64 1185.33 1247.7C1198.99 1241.61 1212.8 1238.2 1227.6 1237.45C1243.18 1236.66 1258.85 1236.09 1272.92 1243.24C1289.08 1251.44 1305.89 1262.45 1312.02 1280.32C1318.22 1298.37 1308.19 1317.15 1304.74 1336.01C1300.67 1358.3 1308.23 1388.64 1290.04 1400.6C1271.5 1412.78 1249.33 1388.48 1227.6 1386.7Z" fill="#AEBEAF"/>
</g>
<defs>
<clipPath id="clip0_1_1301">
<rect width="1440" height="1593" fill="white"/>
</clipPath>
</defs>
</svg>
