<svg width="1440" height="838" viewBox="0 0 1440 838" fill="none" xmlns="http://www.w3.org/2000/svg">
<rect width="1440" height="838" fill="#F7F6F0"/>
<rect x="503.5" y="170.5" width="854.154" height="291.768" stroke="#262526"/>
<path d="M874 259C874 239.118 890.118 223 910 223H1266C1285.88 223 1302 239.118 1302 259V259C1302 278.882 1285.88 295 1266 295H910C890.118 295 874 278.882 874 259V259Z" fill="#FDFCFB"/>
<path d="M1045.05 268.812C1042.67 268.812 1040.81 268.015 1039.46 266.42C1038.11 264.808 1037.43 262.477 1037.43 259.426C1037.43 257.901 1037.6 256.557 1037.95 255.396C1038.3 254.235 1038.8 253.255 1039.46 252.458C1040.12 251.661 1040.91 251.063 1041.85 250.664C1042.8 250.248 1043.87 250.04 1045.05 250.04C1046.63 250.04 1047.94 250.387 1049 251.08C1050.08 251.773 1050.92 252.796 1051.52 254.148L1049.05 255.5C1048.74 254.633 1048.26 253.949 1047.6 253.446C1046.96 252.926 1046.11 252.666 1045.05 252.666C1043.64 252.666 1042.54 253.143 1041.75 254.096C1040.95 255.049 1040.55 256.367 1040.55 258.048V260.804C1040.55 262.485 1040.95 263.803 1041.75 264.756C1042.54 265.709 1043.64 266.186 1045.05 266.186C1046.14 266.186 1047.02 265.909 1047.7 265.354C1048.39 264.782 1048.91 264.054 1049.23 263.17L1051.6 264.6C1050.99 265.917 1050.14 266.949 1049.05 267.694C1047.96 268.439 1046.63 268.812 1045.05 268.812ZM1061.45 252.952V268.5H1058.51V252.952H1053.1V250.352H1066.86V252.952H1061.45ZM1079.36 268.5L1077.72 263.586H1070.93L1069.35 268.5H1066.36L1072.54 250.352H1076.24L1082.42 268.5H1079.36ZM1074.39 253.056H1074.26L1071.63 261.064H1076.99L1074.39 253.056Z" fill="#262526"/>
<path d="M1115 258L1114 258L1114 260L1115 260L1115 258ZM1115 260L1139 260L1139 258L1115 258L1115 260Z" fill="#262526"/>
<line x1="1138.29" y1="258.707" x2="1131.29" y2="251.707" stroke="#262526" stroke-width="2"/>
<line x1="1131.29" y1="266.293" x2="1139.29" y2="258.293" stroke="#262526" stroke-width="2"/>
<path d="M910 223.6H1266V222.4H910V223.6ZM1266 294.4H910V295.6H1266V294.4ZM910 294.4C890.449 294.4 874.6 278.551 874.6 259H873.4C873.4 279.214 889.786 295.6 910 295.6V294.4ZM1301.4 259C1301.4 278.551 1285.55 294.4 1266 294.4V295.6C1286.21 295.6 1302.6 279.214 1302.6 259H1301.4ZM1266 223.6C1285.55 223.6 1301.4 239.449 1301.4 259H1302.6C1302.6 238.786 1286.21 222.4 1266 222.4V223.6ZM910 222.4C889.786 222.4 873.4 238.786 873.4 259H874.6C874.6 239.449 890.449 223.6 910 223.6V222.4Z" fill="#262526"/>
<path d="M1213 372C1213 347.699 1232.7 328 1257 328H1258C1282.3 328 1302 347.699 1302 372V372C1302 396.301 1282.3 416 1258 416H1257C1232.7 416 1213 396.301 1213 372V372Z" fill="#FDFCFB"/>
<path d="M1257 328.6H1258V327.4H1257V328.6ZM1258 415.4H1257V416.6H1258V415.4ZM1257 415.4C1233.03 415.4 1213.6 395.969 1213.6 372H1212.4C1212.4 396.632 1232.37 416.6 1257 416.6V415.4ZM1301.4 372C1301.4 395.969 1281.97 415.4 1258 415.4V416.6C1282.63 416.6 1302.6 396.632 1302.6 372H1301.4ZM1258 328.6C1281.97 328.6 1301.4 348.031 1301.4 372H1302.6C1302.6 347.368 1282.63 327.4 1258 327.4V328.6ZM1257 327.4C1232.37 327.4 1212.4 347.368 1212.4 372H1213.6C1213.6 348.031 1233.03 328.6 1257 328.6V327.4Z" fill="#262526"/>
<path d="M1100 372C1100 347.699 1119.7 328 1144 328H1145C1169.3 328 1189 347.699 1189 372V372C1189 396.301 1169.3 416 1145 416H1144C1119.7 416 1100 396.301 1100 372V372Z" fill="#242526"/>
<path d="M1144 328.7H1145V327.3H1144V328.7ZM1145 415.3H1144V416.7H1145V415.3ZM1144 415.3C1120.09 415.3 1100.7 395.914 1100.7 372H1099.3C1099.3 396.687 1119.31 416.7 1144 416.7V415.3ZM1188.3 372C1188.3 395.914 1168.91 415.3 1145 415.3V416.7C1169.69 416.7 1189.7 396.687 1189.7 372H1188.3ZM1145 328.7C1168.91 328.7 1188.3 348.086 1188.3 372H1189.7C1189.7 347.313 1169.69 327.3 1145 327.3V328.7ZM1144 327.3C1119.31 327.3 1099.3 347.313 1099.3 372H1100.7C1100.7 348.086 1120.09 328.7 1144 328.7V327.3Z" fill="#262526"/>
<path d="M987 372C987 347.699 1006.7 328 1031 328H1032C1056.3 328 1076 347.699 1076 372V372C1076 396.301 1056.3 416 1032 416H1031C1006.7 416 987 396.301 987 372V372Z" fill="#FDFCFB"/>
<path d="M1031 328.6H1032V327.4H1031V328.6ZM1032 415.4H1031V416.6H1032V415.4ZM1031 415.4C1007.03 415.4 987.6 395.969 987.6 372H986.4C986.4 396.632 1006.37 416.6 1031 416.6V415.4ZM1075.4 372C1075.4 395.969 1055.97 415.4 1032 415.4V416.6C1056.63 416.6 1076.6 396.632 1076.6 372H1075.4ZM1032 328.6C1055.97 328.6 1075.4 348.031 1075.4 372H1076.6C1076.6 347.368 1056.63 327.4 1032 327.4V328.6ZM1031 327.4C1006.37 327.4 986.4 347.368 986.4 372H987.6C987.6 348.031 1007.03 328.6 1031 328.6V327.4Z" fill="#262526"/>
<path d="M874 371C874 346.699 893.699 327 918 327H919C943.301 327 963 346.699 963 371V371C963 395.301 943.301 415 919 415H918C893.699 415 874 395.301 874 371V371Z" fill="#FDFCFB"/>
<path d="M918 327.6H919V326.4H918V327.6ZM919 414.4H918V415.6H919V414.4ZM918 414.4C894.031 414.4 874.6 394.969 874.6 371H873.4C873.4 395.632 893.368 415.6 918 415.6V414.4ZM962.4 371C962.4 394.969 942.969 414.4 919 414.4V415.6C943.632 415.6 963.6 395.632 963.6 371H962.4ZM919 327.6C942.969 327.6 962.4 347.031 962.4 371H963.6C963.6 346.368 943.632 326.4 919 326.4V327.6ZM918 326.4C893.368 326.4 873.4 346.368 873.4 371H874.6C874.6 347.031 894.031 327.6 918 327.6V326.4Z" fill="#262526"/>
<path d="M1038.46 383H1022.82V379.436L1030.18 372.869C1031.34 371.813 1032.23 370.812 1032.85 369.866C1033.49 368.898 1033.81 367.886 1033.81 366.83V366.401C1033.81 365.279 1033.47 364.399 1032.78 363.761C1032.12 363.123 1031.22 362.804 1030.08 362.804C1029.44 362.804 1028.88 362.903 1028.39 363.101C1027.93 363.277 1027.53 363.53 1027.17 363.86C1026.82 364.19 1026.52 364.575 1026.28 365.015C1026.06 365.455 1025.89 365.928 1025.75 366.434L1022.49 365.18C1022.73 364.454 1023.06 363.761 1023.48 363.101C1023.9 362.419 1024.42 361.814 1025.06 361.286C1025.7 360.758 1026.45 360.34 1027.31 360.032C1028.19 359.724 1029.21 359.57 1030.37 359.57C1031.54 359.57 1032.59 359.746 1033.51 360.098C1034.43 360.428 1035.2 360.901 1035.82 361.517C1036.46 362.111 1036.94 362.826 1037.27 363.662C1037.6 364.498 1037.77 365.411 1037.77 366.401C1037.77 367.325 1037.62 368.183 1037.34 368.975C1037.05 369.767 1036.66 370.515 1036.15 371.219C1035.64 371.923 1035.05 372.594 1034.37 373.232C1033.71 373.87 1033 374.519 1032.26 375.179L1026.84 379.832H1038.46V383Z" fill="#262526"/>
<path d="M910.51 382V378.898H916.978V361.672H916.714L911.368 367.381L909.091 365.335L914.965 358.966H920.641V378.898H926.251V382H910.51Z" fill="#262526"/>
<path d="M1142.25 369.437C1143.68 369.437 1144.74 369.14 1145.42 368.546C1146.1 367.93 1146.44 367.149 1146.44 366.203V365.972C1146.44 364.916 1146.11 364.113 1145.45 363.563C1144.79 362.991 1143.9 362.705 1142.78 362.705C1141.68 362.705 1140.75 362.958 1139.98 363.464C1139.21 363.948 1138.56 364.63 1138.03 365.51L1135.55 363.365C1135.91 362.859 1136.3 362.375 1136.74 361.913C1137.18 361.451 1137.7 361.055 1138.29 360.725C1138.89 360.373 1139.56 360.098 1140.31 359.9C1141.05 359.68 1141.91 359.57 1142.88 359.57C1143.96 359.57 1144.96 359.702 1145.88 359.966C1146.81 360.23 1147.6 360.626 1148.26 361.154C1148.92 361.66 1149.44 362.287 1149.81 363.035C1150.18 363.761 1150.37 364.586 1150.37 365.51C1150.37 366.236 1150.25 366.896 1150.01 367.49C1149.79 368.084 1149.47 368.612 1149.05 369.074C1148.65 369.514 1148.18 369.877 1147.63 370.163C1147.1 370.449 1146.54 370.658 1145.95 370.79V370.955C1146.61 371.087 1147.22 371.307 1147.8 371.615C1148.39 371.901 1148.91 372.286 1149.35 372.77C1149.79 373.232 1150.13 373.793 1150.37 374.453C1150.63 375.091 1150.77 375.828 1150.77 376.664C1150.77 377.676 1150.57 378.6 1150.17 379.436C1149.78 380.25 1149.22 380.954 1148.49 381.548C1147.79 382.142 1146.93 382.604 1145.92 382.934C1144.9 383.242 1143.78 383.396 1142.55 383.396C1141.47 383.396 1140.53 383.275 1139.71 383.033C1138.9 382.813 1138.17 382.516 1137.53 382.142C1136.92 381.746 1136.37 381.306 1135.88 380.822C1135.42 380.316 1135.01 379.799 1134.66 379.271L1137.4 377.126C1137.69 377.588 1137.98 378.017 1138.29 378.413C1138.62 378.787 1138.99 379.117 1139.38 379.403C1139.8 379.667 1140.26 379.876 1140.77 380.03C1141.3 380.184 1141.89 380.261 1142.55 380.261C1143.96 380.261 1145.04 379.931 1145.78 379.271C1146.53 378.589 1146.91 377.654 1146.91 376.466V376.235C1146.91 375.047 1146.51 374.145 1145.72 373.529C1144.93 372.913 1143.8 372.605 1142.35 372.605H1139.91V369.437H1142.25Z" fill="white"/>
<path d="M1240 367L1257.5 382L1275 367" stroke="#262526" stroke-width="2" stroke-linecap="square"/>
<line x1="1359" y1="85.5" x2="817" y2="85.5" stroke="#262526"/>
<rect x="787.5" y="460.5" width="285.012" height="291.256" fill="#F7F6F0" stroke="#262526"/>
<rect x="503.5" y="460.5" width="284" height="291.256" fill="#F7F6F0" stroke="#262526"/>
<rect x="219.5" y="460.5" width="284" height="291.256" fill="#F7F6F0" stroke="#262526"/>
<rect x="1072.5" y="460.5" width="285.012" height="291.256" fill="#F7F6F0" stroke="#262526"/>
<path opacity="0.5" fill-rule="evenodd" clip-rule="evenodd" d="M647.345 677.187C629.319 675.586 610.7 691.016 594.573 681.57C577.897 671.803 570.408 649.218 564.549 628.693C558.666 608.086 552.674 584.518 561.376 565.291C569.835 546.605 590.589 542.202 607.402 534.022C620.306 527.743 633.36 524.241 647.345 523.464C662.069 522.646 676.88 522.067 690.177 529.424C705.453 537.877 721.34 549.213 727.131 567.614C732.984 586.209 723.511 605.552 720.253 624.978C716.403 647.934 723.547 679.185 706.354 691.497C688.839 704.039 667.886 679.011 647.345 677.187Z" fill="#CD9494"/>
<path opacity="0.6" fill-rule="evenodd" clip-rule="evenodd" d="M923.073 536.994C942.851 538.944 963.639 530.091 980.297 540.868C1000.04 553.642 1016.87 574.338 1017 597.758C1017.13 621.246 997.317 638.356 980.944 655.29C964.071 672.741 947.353 696.706 923.073 694.904C899.191 693.131 888.069 665.994 873.244 647.296C861.066 631.937 849.29 617.047 846.048 597.758C842.039 573.908 834.198 543.375 853.252 528.345C872.351 513.278 898.81 534.603 923.073 536.994Z" fill="#D6BFAC"/>
<path opacity="0.6" fill-rule="evenodd" clip-rule="evenodd" d="M1217.97 677.187C1199.42 675.586 1180.26 691.016 1163.67 681.57C1146.5 671.803 1138.8 649.218 1132.77 628.693C1126.71 608.086 1120.55 584.518 1129.5 565.291C1138.21 546.605 1159.57 542.202 1176.87 534.022C1190.15 527.743 1203.58 524.241 1217.97 523.464C1233.12 522.646 1248.36 522.067 1262.05 529.424C1277.77 537.877 1294.12 549.213 1300.08 567.614C1306.1 586.209 1296.35 605.552 1293 624.978C1289.04 647.934 1296.39 679.185 1278.7 691.497C1260.67 704.039 1239.11 679.011 1217.97 677.187Z" fill="#AEBEAF"/>
<path opacity="0.6" fill-rule="evenodd" clip-rule="evenodd" d="M357.073 536.076C376.851 538.037 397.639 529.132 414.297 539.972C434.042 552.82 450.867 573.637 450.999 597.192C451.132 620.818 431.317 638.026 414.944 655.059C398.071 672.611 381.353 696.716 357.073 694.903C333.191 693.12 322.069 665.825 307.244 647.018C295.066 631.571 283.29 616.593 280.048 597.192C276.039 573.204 268.198 542.494 287.252 527.376C306.351 512.221 332.81 533.67 357.073 536.076Z" fill="#B2A47B"/>
<rect x="547.35" y="223.35" width="19.3" height="71.3" fill="#CEC5AA" stroke="#262526" stroke-width="0.7"/>
<circle cx="743" cy="259" r="24.6" fill="#FDFCFB" stroke="#262526" stroke-width="0.8"/>
<path d="M735 256L743 264L751 256" stroke="#262526" stroke-width="0.7" stroke-linecap="round" stroke-linejoin="round"/>
<path d="M547 223V222.5H546.5V223H547ZM788 223H788.5V222.5H788V223ZM788 295V295.5H788.5V295H788ZM547 295H546.5V295.5H547V295ZM547 223.5H788V222.5H547V223.5ZM787.5 223V295H788.5V223H787.5ZM788 294.5H547V295.5H788V294.5ZM547.5 295V223H546.5V295H547.5Z" fill="#262526"/>
<rect x="547.35" y="335.35" width="19.3" height="71.3" fill="#C8D2C9" stroke="#262526" stroke-width="0.7"/>
<circle cx="743" cy="371" r="24.6" fill="#FDFCFB" stroke="#262526" stroke-width="0.8"/>
<path d="M735 368L743 376L751 368" stroke="#262526" stroke-width="0.8" stroke-linecap="round" stroke-linejoin="round"/>
<path d="M547 335V334.5H546.5V335H547ZM788 335H788.5V334.5H788V335ZM788 407V407.5H788.5V407H788ZM547 407H546.5V407.5H547V407ZM547 335.5H788V334.5H547V335.5ZM787.5 335V407H788.5V335H787.5ZM788 406.5H547V407.5H788V406.5ZM547.5 407V335H546.5V407H547.5Z" fill="#262526"/>
</svg>
